<?xml version="1.0" standalone="no"?>
<!DOCTYPE svg PUBLIC "-//W3C//DTD SVG 1.1//EN" "http://www.w3.org/Graphics/SVG/1.1/DTD/svg11.dtd" >
<svg xmlns="http://www.w3.org/2000/svg" xmlns:xlink="http://www.w3.org/1999/xlink" version="1.1">
<metadata>
Created by FontForge 20170910 at Mon Jan 11 02:58:02 1993
 By Jimmy Wärting
Copyright 1990-1993 Bitstream Inc.  All rights reserved.
</metadata>
<defs>
<font id="CooperBT-LightItalic" horiz-adv-x="1024" >
  <font-face 
    font-family="Cooper Lt BT"
    font-weight="400"
    font-style="italic"
    font-stretch="normal"
    units-per-em="2048"
    panose-1="2 8 5 3 4 3 11 9 4 4"
    ascent="1638"
    descent="-410"
    x-height="1042"
    cap-height="1501"
    bbox="-342 -526 2212 1972"
    underline-thickness="90"
    underline-position="-254"
    slope="-8"
    unicode-range="U+0020-F002"
  />
<missing-glyph horiz-adv-x="1229" 
d="M102 -362v1806h1024v-1806h-1024zM217 -248h795v1577h-795v-1577z" />
    <glyph glyph-name=".notdef" horiz-adv-x="1229" 
d="M102 -362v1806h1024v-1806h-1024zM217 -248h795v1577h-795v-1577z" />
    <glyph glyph-name=".null" horiz-adv-x="0" 
 />
    <glyph glyph-name="nonmarkingreturn" horiz-adv-x="545" 
 />
    <glyph glyph-name="space" unicode=" " horiz-adv-x="545" 
 />
    <glyph glyph-name="exclam" unicode="!" horiz-adv-x="616" 
d="M270 432q-18 0 -25 29t-7 119q0 70 26 454l4 56q7 87 17 166.5t22 142.5q14 60 37.5 89.5t58.5 29.5q42 0 64 -32t22 -93q0 -74 -35 -278t-94 -453q-33 -139 -51.5 -184.5t-38.5 -45.5zM115 84q0 48 32.5 81.5t79.5 33.5q48 0 81.5 -33.5t33.5 -81.5q0 -47 -33.5 -80
t-81.5 -33q-47 0 -79.5 32.5t-32.5 80.5z" />
    <glyph glyph-name="quotedbl" unicode="&#x22;" horiz-adv-x="678" 
d="M518 864h-31l-65 457q0 2 -1 6q-3 22 -3 33q0 49 22.5 75.5t63.5 26.5q40 0 62 -26t22 -74q0 -14 -0.5 -23t-1.5 -18zM190 864h-32l-64 457q-2 17 -3 26t-1 15q0 48 22 74t62 26q41 0 63.5 -26t22.5 -74q0 -9 -3 -34q-1 -5 -1 -7z" />
    <glyph glyph-name="numbersign" unicode="#" horiz-adv-x="1575" 
d="M700 868l-100 -286h289l102 286h-291zM778 1456h133l-168 -471h287l168 471h131l-166 -471h307l-40 -117h-310l-100 -286h332l-43 -115h-330l-166 -469h-133l166 469h-287l-166 -469h-131l166 469h-324l43 115h322l100 286h-348l43 117h348z" />
    <glyph glyph-name="dollar" unicode="$" horiz-adv-x="1090" 
d="M500 90q106 15 177 86.5t71 161.5q0 80 -43 135.5t-138 97.5zM512 791l59 413q-95 -17 -146.5 -75.5t-51.5 -149.5q0 -62 31 -104.5t108 -83.5zM463 -182q-4 -30 -14 -39.5t-33 -9.5q-21 0 -31 8t-10 24v9l26 186q-188 12 -244.5 60t-56.5 200q0 51 17.5 82t46.5 31
q30 0 42 -67q7 -38 13 -58q18 -61 66.5 -98.5t128.5 -53.5l73 516q-148 66 -213 143t-65 185q0 141 103.5 242t271.5 120l22 149q4 31 13.5 40.5t31.5 9.5q21 0 31 -8t10 -25v-8l-22 -157q133 -5 201.5 -57t68.5 -148q0 -22 -9.5 -33.5t-27.5 -11.5q-32 0 -78 59l-2 2
q-35 45 -73 67t-92 29l-66 -463q173 -80 244 -161t71 -193q0 -158 -116 -266.5t-302 -120.5z" />
    <glyph glyph-name="percent" unicode="%" horiz-adv-x="1460" 
d="M510 238q-42 -65 -99 -168q-67 -121 -98 -121q-21 0 -40 16.5t-19 34.5q0 20 77 128q68 96 111 161l506 768q42 63 97 164q67 122 100 122q23 0 41 -15t18 -34q0 -20 -73 -120.5t-117 -167.5zM334 608q-126 0 -208.5 89.5t-82.5 228.5q0 169 99.5 283t246.5 114
q124 0 203.5 -86t79.5 -223q0 -166 -100 -286t-238 -120zM332 688q80 0 135 99t55 249q0 94 -38.5 151.5t-100.5 57.5q-80 0 -135 -98t-55 -244q0 -100 37 -157.5t102 -57.5zM1075 -29q-126 0 -208.5 89.5t-82.5 228.5q0 169 99 283t245 114q125 0 205 -86.5t80 -222.5
q0 -166 -100 -286t-238 -120zM1071 49q81 0 137 99.5t56 248.5q0 93 -40.5 151t-103.5 58q-79 0 -132.5 -96.5t-53.5 -243.5q0 -101 36.5 -159t100.5 -58z" />
    <glyph glyph-name="ampersand" unicode="&#x26;" horiz-adv-x="1526" 
d="M412 973q-43 44 -64.5 96t-21.5 111q0 141 109 236t272 95q107 0 200.5 -47.5t93.5 -87.5q0 -21 -17.5 -38t-39.5 -17q-11 0 -83 37t-140 37q-99 0 -162 -63t-63 -161q0 -60 28 -108.5t78 -75.5q24 -13 65 -30q54 -22 54 -42q0 -23 -22.5 -42t-53.5 -19q-18 0 -57 12.5
t-88 34.5q-124 -26 -193 -124t-69 -247q0 -205 130.5 -337t331.5 -132q183 0 306.5 116.5t123.5 285.5q0 97 -48 155.5t-136 67.5q-67 -23 -104 -61t-47 -94q-2 -9 -5 -24q-14 -83 -59 -83q-24 0 -38.5 19t-14.5 51q0 80 61 151t189 137q33 18 96 50q412 212 412 376
q0 64 -33 102t-88 38q-26 0 -63 -15.5t-50 -15.5q-17 0 -25 9.5t-8 29.5q0 46 58 87.5t133 41.5q99 0 163 -72.5t64 -185.5q0 -136 -115 -241t-417 -234v-11q116 -15 178.5 -85.5t62.5 -186.5q0 -76 -31 -149.5t-94 -143.5q-88 -101 -225 -158t-293 -57q-83 0 -160.5 17
t-144.5 51q-144 73 -221.5 194.5t-77.5 274.5q0 163 90 281t273 194z" />
    <glyph glyph-name="quotesingle" unicode="'" horiz-adv-x="348" 
d="M190 864h-32l-66 457q-1 8 -1.5 16t-0.5 23q0 50 21.5 76t62.5 26t63.5 -26t22.5 -74q0 -9 -3 -34q-1 -5 -1 -7z" />
    <glyph glyph-name="parenleft" unicode="(" horiz-adv-x="717" 
d="M819 1489q0 -18 -74 -67t-129 -97q-160 -141 -247.5 -399t-87.5 -590q0 -154 30.5 -267.5t91.5 -187.5q47 -56 105.5 -106t58.5 -62q0 -13 -9.5 -21.5t-25.5 -8.5q-25 0 -74.5 29.5t-99.5 76.5q-123 120 -186 284t-63 363q0 206 69.5 405t200.5 365q103 132 225.5 222
t179.5 90q16 0 25.5 -8t9.5 -21z" />
    <glyph glyph-name="parenright" unicode=")" horiz-adv-x="717" 
d="M-141 -289q0 19 74 67.5t128 96.5q161 141 249.5 399.5t88.5 589.5q0 152 -31 266t-94 189q-46 56 -104.5 106t-58.5 62q0 14 9.5 22.5t24.5 8.5q27 0 77.5 -29t99.5 -76q122 -119 184.5 -283.5t62.5 -365.5q0 -206 -69.5 -405t-200.5 -365q-104 -132 -225 -221.5
t-178 -89.5q-17 0 -27 8t-10 20z" />
    <glyph glyph-name="asterisk" unicode="*" 
d="M539 1016q0 39 -7.5 64.5t-17.5 25.5q-17 0 -34.5 -38t-22.5 -93q-6 -62 -35.5 -94.5t-79.5 -32.5q-49 0 -83 33.5t-34 83.5q0 42 28 74t71 38q80 10 115.5 25.5t35.5 40.5q0 10 -18.5 17t-46.5 7t-70.5 -9t-56.5 -9q-45 0 -78 32.5t-33 75.5q0 49 33.5 85t79.5 36
q32 0 59.5 -17t44.5 -48q45 -81 64.5 -103t38.5 -22q5 0 9.5 4t4.5 8q0 51 -33 115t-33 88q0 49 33.5 83t81.5 34t81.5 -33t33.5 -80q0 -26 -12 -49.5t-44 -54.5q-31 -32 -49 -61.5t-18 -47.5q0 -7 4.5 -11.5t11.5 -4.5q15 0 47.5 21t61.5 52q30 34 51.5 46t48.5 12
q49 0 84 -33.5t35 -79.5t-35.5 -80.5t-83.5 -34.5q-26 0 -83.5 30t-100.5 30q-15 0 -22 -4t-7 -13q0 -17 28.5 -41.5t71.5 -42.5q48 -18 72.5 -48.5t24.5 -71.5q0 -48 -33.5 -79.5t-83.5 -31.5q-46 0 -79.5 32.5t-33.5 78.5q0 15 6.5 47t6.5 49z" />
    <glyph glyph-name="plus" unicode="+" horiz-adv-x="1706" 
d="M795 1221h118v-551h539v-117h-539v-553h-118v553h-541v117h541v551z" />
    <glyph glyph-name="comma" unicode="," horiz-adv-x="545" 
d="M92 -250q0 8 21 36q12 16 20 28q30 44 47 78t17 51q-1 17 -24 32q-6 4 -10 7q-1 1 -4 3q-46 34 -46 83q0 58 34.5 98.5t83.5 40.5q50 0 76.5 -32t26.5 -91q0 -50 -19 -102.5t-65 -128.5q-43 -70 -71.5 -99.5t-51.5 -29.5q-13 0 -24 8t-11 18z" />
    <glyph glyph-name="hyphen" unicode="-" horiz-adv-x="627" 
d="M301 459q-57 0 -119 -3t-65 -3q-31 0 -43.5 7.5t-12.5 26.5q0 46 30 77.5t79 31.5h18q69 -2 136 -2q40 0 93.5 3t65.5 3q31 0 43.5 -8t12.5 -27q0 -45 -30.5 -76.5t-80.5 -31.5q-3 0 -45.5 1t-81.5 1z" />
    <glyph glyph-name="period" unicode="." horiz-adv-x="545" 
d="M131 92q0 52 34 86.5t85 34.5q52 0 87.5 -34.5t35.5 -86.5q0 -50 -36 -85.5t-87 -35.5t-85 35t-34 86z" />
    <glyph glyph-name="slash" unicode="/" horiz-adv-x="494" 
d="M381 1479q4 19 20.5 29t47.5 10q18 -1 25 -6.5t7 -18.5q0 -8 -1.5 -17.5t-4.5 -19.5l-414 -1608q-4 -20 -19.5 -29t-45.5 -9q-18 0 -25.5 5.5t-7.5 18.5q0 14 1 22.5t3 16.5z" />
    <glyph glyph-name="zero" unicode="0" horiz-adv-x="1090" 
d="M502 63q67 0 124.5 45t98.5 130q55 116 85 259t30 291q0 201 -70 323t-182 122q-143 0 -242.5 -204.5t-99.5 -512.5q0 -212 68 -332.5t188 -120.5zM508 -29q-195 0 -322 168t-127 430q0 133 31.5 260t87.5 224q74 130 180.5 199t233.5 69q191 0 313.5 -162.5
t122.5 -423.5q0 -123 -28.5 -241.5t-84.5 -225.5q-77 -144 -181.5 -220.5t-225.5 -76.5z" />
    <glyph glyph-name="one" unicode="1" horiz-adv-x="1090" 
d="M737 43q0 -31 -52 -42t-259 -11q-159 0 -204.5 10t-45.5 37q0 18 16.5 29t55.5 18q12 2 34 5q97 14 111 48q13 31 29 126.5t49 348.5q31 237 42 341.5t11 154.5q0 35 -5 44t-21 9q-22 0 -65 -12t-62 -12t-29 8.5t-10 23.5q0 22 25.5 42t78.5 40q84 32 169 51t134 19
q28 0 41 -8.5t13 -26.5q0 -19 -27 -36q-3 -2 -4 -3q-2 -1 -7 -4q-40 -23 -57 -96q-12 -53 -32 -188.5t-43 -325.5q-25 -195 -38.5 -315t-13.5 -152q0 -56 77 -73q17 -4 28 -7q1 0 4 -1q57 -14 57 -42z" />
    <glyph glyph-name="two" unicode="2" horiz-adv-x="1090" 
d="M18 0q-39 0 -54 7t-15 24q0 13 10 30.5t26 32.5l474 428q166 150 242.5 271t76.5 231q0 89 -50.5 138.5t-139.5 49.5q-66 0 -137.5 -30.5t-126.5 -83.5q-23 -22 -60 -62q-63 -69 -94 -69q-15 0 -25 9t-10 21q0 38 37.5 90.5t101.5 104.5q83 66 172.5 98.5t188.5 32.5
q148 0 237 -82.5t89 -218.5q0 -97 -44 -188.5t-143 -198.5q-55 -60 -413 -358l-156 -130h366q103 0 152 18t90 66q17 20 40 59q32 54 56 54q14 0 23.5 -12.5t9.5 -32.5q0 -29 -17.5 -80.5t-47.5 -109.5q-43 -83 -81 -125.5t-69 -42.5q-12 0 -18.5 7t-6.5 21q0 11 1 18t4 13
h-689z" />
    <glyph glyph-name="three" unicode="3" horiz-adv-x="1090" 
d="M641 662q128 -19 194 -102t66 -226q0 -113 -56 -217.5t-157 -177.5q-89 -65 -195.5 -97t-230.5 -32q-139 0 -229 31t-90 77q0 21 14 32t41 11q16 0 102 -22.5t160 -22.5q202 0 327.5 110.5t125.5 284.5q0 122 -76.5 186t-220.5 64q-35 0 -79 -6t-54 -6q-7 0 -11 9t-4 28
q0 54 77 64q21 3 33 5q152 27 235 115.5t83 220.5q0 94 -51.5 149.5t-138.5 55.5q-97 0 -208 -60.5t-120 -60.5q-17 0 -25 8t-8 25q0 24 27.5 53.5t77.5 59.5q85 50 167 76t158 26q142 0 229 -84.5t87 -222.5q0 -110 -61.5 -197.5t-188.5 -156.5z" />
    <glyph glyph-name="four" unicode="4" horiz-adv-x="1090" 
d="M684 268l111 809q-162 -188 -326.5 -390.5t-329.5 -418.5h545zM813 135l-47 -338q-6 -36 -16 -46.5t-31 -10.5h-70q-17 0 -25 8t-8 25q0 1 1 6.5t1 9.5l48 346h-629q-24 0 -33.5 11.5t-9.5 39.5q0 40 35 99.5t174 230.5l436 539q105 130 180 199t111 69q25 0 34 -8.5
t9 -34.5q0 -29 -15.5 -108.5t-21.5 -124.5l-105 -779h121q20 0 29.5 -6.5t9.5 -19.5v-9l-8 -59q-3 -17 -14 -28t-25 -11h-131z" />
    <glyph glyph-name="five" unicode="5" horiz-adv-x="1090" 
d="M330 750q296 -43 432.5 -147t136.5 -286q0 -112 -50.5 -212.5t-143.5 -174.5q-77 -60 -172 -90t-205 -30q-124 0 -203.5 29t-79.5 73q0 20 11.5 28.5t37.5 8.5q28 0 108.5 -19.5t131.5 -19.5q165 0 274 105.5t109 263.5q0 113 -61.5 185.5t-184.5 104.5q-82 22 -184.5 34
t-102.5 36q0 23 7.5 55.5t21.5 69.5l150 390q2 6 8 21q45 119 145 119h143q227 0 357 38q11 3 14 3q10 0 16.5 -6.5t6.5 -17.5q0 -94 -57 -132t-220 -38h-209q-47 0 -75.5 -24.5t-53.5 -90.5z" />
    <glyph glyph-name="six" unicode="6" horiz-adv-x="1090" 
d="M831 449q0 144 -71 233.5t-185 89.5q-133 0 -223 -106.5t-90 -270.5q0 -145 72 -235t186 -90q133 0 222 107t89 272zM815 1368q-190 -136 -323 -301t-207 -358q93 95 186 141.5t188 46.5q151 0 242.5 -101t91.5 -270q0 -115 -42 -218.5t-122 -182.5q-74 -74 -167 -114
t-193 -40q-180 0 -289.5 125.5t-109.5 333.5q0 178 79 361.5t228 347.5q119 131 220 211t144 80q26 0 44.5 -15.5t29.5 -46.5z" />
    <glyph glyph-name="seven" unicode="7" horiz-adv-x="1090" 
d="M473 1145q-102 0 -150 -18t-90 -66q-15 -18 -44.5 -65.5t-53.5 -47.5q-13 0 -22 12t-9 31q0 31 17.5 84t46.5 109q44 83 82 125.5t69 42.5q13 0 19 -7t6 -20q0 -11 -1 -17.5t-3 -13.5h604q61 0 91 -14.5t30 -44.5q0 -20 -47 -111l-10 -20l-621 -1204q-46 -92 -72.5 -119
t-60.5 -27q-37 0 -68.5 22.5t-31.5 47.5q0 12 11 37t36 67l651 1112q13 23 21 45t8 31q0 14 -18 21.5t-54 7.5h-336z" />
    <glyph glyph-name="eight" unicode="8" horiz-adv-x="1090" 
d="M393 727q-100 65 -149 138t-49 157q0 73 37.5 145.5t105.5 128.5q70 60 160.5 90.5t195.5 30.5q150 0 242 -79.5t92 -209.5q0 -111 -73 -200.5t-234 -173.5q127 -84 188.5 -174.5t61.5 -194.5q0 -77 -39.5 -154t-110.5 -137q-72 -61 -165 -92t-205 -31q-178 0 -290 93
t-112 235q0 132 85 237.5t259 190.5zM643 809q114 52 177 132t63 171q0 96 -61.5 155.5t-159.5 59.5q-114 0 -198.5 -73t-84.5 -169q0 -74 63.5 -141t200.5 -135zM481 678q-138 -58 -210 -147.5t-72 -202.5q0 -118 79 -191.5t205 -73.5q130 0 220 77t90 184q0 93 -69.5 173
t-242.5 181z" />
    <glyph glyph-name="nine" unicode="9" horiz-adv-x="1090" 
d="M266 846q0 -145 72 -234.5t186 -89.5q133 0 222.5 107t89.5 270q0 143 -72.5 233.5t-183.5 90.5q-136 0 -225 -105.5t-89 -271.5zM258 -61q192 136 323.5 293.5t196.5 330.5q-78 -83 -167.5 -126.5t-180.5 -43.5q-150 0 -246 107t-96 276q0 81 22.5 158t65.5 145
q74 115 186.5 179.5t237.5 64.5q193 0 301.5 -118.5t108.5 -330.5q0 -187 -82.5 -377t-237.5 -358q-110 -121 -215 -199.5t-147 -78.5q-28 0 -43 16t-27 62z" />
    <glyph glyph-name="colon" unicode=":" horiz-adv-x="545" 
d="M86 84q0 52 34 87.5t85 35.5t86 -35.5t35 -87.5q0 -49 -35.5 -84t-85.5 -35t-84.5 34.5t-34.5 84.5zM180 737q0 52 35 87.5t86 35.5t86 -35.5t35 -87.5q0 -49 -35.5 -84t-85.5 -35t-85.5 35t-35.5 84z" />
    <glyph glyph-name="semicolon" unicode=";" horiz-adv-x="545" 
d="M180 737q0 52 35 86.5t86 34.5t86 -35t35 -86q0 -49 -35.5 -84t-85.5 -35t-85.5 35t-35.5 84zM76 -250q0 8 24.5 42.5t40.5 60.5q27 47 34 63.5t7 28.5t-21 27q-9 6 -14 10q-1 1 -4 3q-47 34 -47 83q0 58 35 98.5t84 40.5t76.5 -32.5t27.5 -90.5q0 -49 -19 -101.5
t-64 -125.5q-43 -71 -72.5 -102t-52.5 -31q-15 0 -25 7.5t-10 18.5z" />
    <glyph glyph-name="less" unicode="&#x3c;" horiz-adv-x="1706" 
d="M1442 1145v-127l-1000 -408l1000 -405v-129l-1178 483v103z" />
    <glyph glyph-name="equal" unicode="=" horiz-adv-x="1706" 
d="M254 477h1198v-117h-1198v117zM254 860h1198v-117h-1198v117z" />
    <glyph glyph-name="greater" unicode="&#x3e;" horiz-adv-x="1706" 
d="M264 1145l1178 -483v-103l-1178 -483v129l1000 405l-1000 408v127z" />
    <glyph glyph-name="question" unicode="?" horiz-adv-x="854" 
d="M315 494q0 112 36 208t124 207l11 14q165 211 165 339q0 82 -42 126t-122 44q-75 0 -134.5 -48t-94.5 -137q-5 -13 -14 -38q-31 -89 -84 -89q-33 0 -50.5 19.5t-17.5 56.5q0 40 28.5 93.5t76.5 99.5q67 65 142 97t163 32q145 0 231 -77.5t86 -207.5q0 -53 -17 -105
t-54 -112q-31 -48 -133 -147l-3 -3q-17 -17 -49 -47q-60 -56 -74 -80q-41 -68 -63 -195q-5 -28 -8 -42q-9 -42 -20.5 -56t-32.5 -14q-24 0 -37 16t-13 46zM225 84q0 48 33 81.5t80 33.5t80 -33.5t33 -81.5t-32.5 -80.5t-80.5 -32.5t-80.5 32.5t-32.5 80.5z" />
    <glyph glyph-name="at" unicode="@" horiz-adv-x="2019" 
d="M1190 336q-62 -106 -139 -158.5t-170 -52.5q-125 0 -201 92t-76 244q0 108 49 216t138 193q65 64 144 100t155 36q87 0 143 -49.5t78 -145.5l53 180h143l-170 -610q0 -2 -1 -5q-17 -59 -17 -104q0 -47 25.5 -74.5t68.5 -27.5q34 0 79 17.5t85 48.5q122 90 187 231t65 315
q0 140 -50 252t-153 203q-90 79 -216 122.5t-267 43.5q-187 0 -341.5 -58.5t-275.5 -175.5q-130 -126 -197 -293.5t-67 -369.5q0 -175 57 -304.5t181 -234.5q114 -97 261 -146.5t320 -49.5q163 0 317.5 52t295.5 154l30 -36q-148 -110 -313 -166t-342 -56q-187 0 -342 46.5
t-274 138.5q-151 113 -229.5 274.5t-78.5 358.5q0 204 86 381t250 313q131 110 291 165.5t344 55.5q347 0 553.5 -187t206.5 -499q0 -157 -58 -297t-163 -236q-57 -52 -123.5 -80t-134.5 -28q-97 0 -149 52.5t-58 158.5zM1098 965q-54 0 -99 -31t-92 -100
q-72 -108 -114.5 -234t-42.5 -225q0 -93 40.5 -147t108.5 -54q66 0 126 44.5t116 133.5q57 94 91 202.5t34 197.5q0 93 -47.5 153t-120.5 60z" />
    <glyph glyph-name="A" unicode="A" horiz-adv-x="1313" 
d="M590 1233q40 76 60 124t30 89q9 42 22 57t39 15q43 0 69 -42.5t67 -215.5l213 -920q27 -119 44 -160.5t40 -58.5q10 -8 44.5 -21t34.5 -39q0 -38 -58.5 -54.5t-201.5 -16.5q-107 0 -162 16t-55 47q0 30 70 55q8 3 13 5q40 14 54.5 33t14.5 59q0 50 -8 105.5t-31 148.5
q-8 32 -18.5 40.5t-43.5 8.5h-415q-45 0 -63.5 -9t-33.5 -32q-55 -89 -86.5 -165.5t-31.5 -115.5q0 -30 15 -47t58 -33q33 -12 42.5 -21.5t9.5 -25.5q0 -35 -54 -51t-174 -16q-98 0 -149 16t-51 47q0 25 45 44q10 4 13 5q70 27 131 150q16 32 26 49zM422 670q-2 -4 -4 -9
q-10 -23 -10 -28q0 -8 9.5 -12t26.5 -5h369q19 0 26 4t7 15q0 4 -2 13q-2 7 -2 9l-82 381l-6 27q-34 158 -45 158q-8 0 -61.5 -96t-117.5 -228z" />
    <glyph glyph-name="B" unicode="B" horiz-adv-x="1294" 
d="M791 774q203 -29 298 -107t95 -214q0 -216 -163.5 -339.5t-451.5 -123.5q-62 0 -170.5 6t-154.5 6h-24q-82 -2 -157 -2q-43 0 -68.5 14t-25.5 37q0 17 12 30.5t36 23.5q10 4 31 10q59 16 71 51q16 44 45 219t59 412q23 179 37 330t14 180q0 30 -9.5 44.5t-35.5 22.5
q-9 4 -26 9q-49 16 -49 40q0 46 105.5 63t457.5 17q235 0 357 -87.5t122 -256.5q0 -147 -101 -243t-304 -142zM555 96q189 0 304.5 88t115.5 230q0 165 -113.5 232t-417.5 67q-31 0 -48 -7t-21 -22q-5 -20 -17.5 -119.5t-29.5 -255.5q-4 -36 -6.5 -64.5t-2.5 -41.5
q0 -59 52 -83t184 -24zM403 885q0 -41 19.5 -55.5t81.5 -14.5q244 0 363.5 82t119.5 248q0 131 -76.5 192.5t-238.5 61.5q-91 0 -130 -7.5t-50 -24.5q-11 -18 -19.5 -41.5t-13.5 -51.5q-26 -129 -41 -235t-15 -154z" />
    <glyph glyph-name="C" unicode="C" horiz-adv-x="1341" 
d="M1296 1135q-42 0 -83 73q-3 5 -5 9q-59 100 -141.5 145t-206.5 45q-134 0 -249 -65t-191 -183q-72 -110 -110 -249.5t-38 -291.5q0 -250 121 -399t320 -149q108 0 203.5 36.5t154.5 100.5q26 28 63 90.5t68 62.5q18 0 28.5 -15t10.5 -40q0 -89 -40.5 -168.5t-82.5 -79.5
q-6 0 -17.5 3t-19.5 3q-5 0 -32 -13q-168 -89 -359 -89q-284 0 -451 182.5t-167 491.5q0 166 50 314t146 268q118 145 282.5 223t356.5 78q78 0 165 -19.5t97 -19.5q24 0 58.5 11t44.5 11q37 0 61.5 -71.5t24.5 -186.5q0 -55 -15 -81.5t-47 -26.5z" />
    <glyph glyph-name="D" unicode="D" horiz-adv-x="1546" 
d="M322 207q0 -59 56.5 -83t196.5 -24q326 0 508.5 206t182.5 575q0 263 -137 387.5t-427 124.5q-63 0 -115 -9.5t-83 -25.5q-30 -15 -46 -107q-2 -13 -3 -20q-60 -346 -96.5 -644t-36.5 -380zM123 -4q-80 0 -117 13.5t-37 41.5q0 17 12 30.5t36 23.5q10 4 31 10
q59 16 71 51q16 44 45 219t59 412q23 179 37 330t14 180q0 30 -9.5 44.5t-35.5 22.5q-9 4 -26 9q-49 16 -49 40q0 31 38 49.5t103 18.5q95 0 244.5 6t203.5 6q360 0 542.5 -163.5t182.5 -487.5q0 -210 -81 -388t-230 -296q-106 -84 -239.5 -128t-284.5 -44q-99 0 -212 2
t-126 2q-46 0 -103 -2t-69 -2z" />
    <glyph glyph-name="E" unicode="E" horiz-adv-x="1229" 
d="M137 0q-99 0 -134.5 11.5t-35.5 39.5q0 17 13 31t36 22q11 5 32 11q59 16 71 51q16 44 45 219t59 412q23 179 37 330t14 180q0 28 -10 42.5t-36 24.5q-9 3 -25 8q-49 16 -49 45q0 31 45.5 48.5t126.5 17.5h651q108 0 181 18q8 2 9 2q33 0 54.5 -62t21.5 -163
q0 -48 -13 -69t-42 -21q-35 0 -70 63q-17 31 -28 47q-23 34 -71 52t-114 18h-268q-94 0 -124 -15.5t-46 -70.5q-8 -33 -17.5 -85.5t-17.5 -112.5q-12 -93 -18 -143t-6 -62q0 -27 14 -36t61 -9h181q83 0 116 13.5t54 45.5q10 16 30.5 88t63.5 72q25 0 36 -18.5t11 -61.5
q0 -103 -16.5 -208.5t-47.5 -201.5q-11 -35 -25.5 -49t-39.5 -14q-23 0 -34 16t-11 49v62q0 47 -27.5 69.5t-85.5 22.5h-239q-41 0 -54.5 -9t-21.5 -42q-4 -20 -20 -155l-1 -7q-3 -34 -10 -95q-20 -185 -20 -214q0 -53 28 -70.5t117 -17.5h268q72 0 128 20.5t93 61.5
q35 37 73 117.5t73 80.5q24 0 37.5 -19.5t13.5 -53.5q0 -48 -26 -127.5t-68 -153.5q-20 -34 -40 -52t-38 -18q-10 0 -54 12.5t-79 12.5h-711z" />
    <glyph glyph-name="F" unicode="F" horiz-adv-x="1157" 
d="M637 821q87 0 118.5 13t51.5 45q10 16 31 88.5t63 72.5q25 0 36 -19t11 -63q0 -103 -16 -208.5t-47 -200.5q-12 -37 -26.5 -51.5t-39.5 -14.5q-23 0 -34 17t-11 51v61q0 47 -27.5 70t-84.5 23h-216q-41 0 -54.5 -9t-20.5 -40q-4 -16 -29 -206l-4 -32q-12 -93 -18.5 -150
t-6.5 -75q0 -33 14 -50.5t50 -29.5q6 -3 19 -7q57 -18 57 -47q0 -36 -63 -52.5t-206 -16.5q-109 0 -161 15t-52 46q0 19 10.5 31.5t34.5 21.5q10 4 28 9q62 17 75 53q16 44 45 219t59 412q23 179 37 330t14 180q0 30 -9.5 44.5t-35.5 22.5q-9 4 -26 9q-49 16 -49 40
q0 34 41 52t118 18h650q108 0 178 18q8 2 10 2q33 0 55.5 -62.5t22.5 -162.5q0 -48 -13 -69t-42 -21q-35 0 -70 63q-17 30 -29 48q-22 33 -71 51t-115 18h-252q-94 0 -124 -15.5t-46 -70.5q-7 -20 -16 -71.5t-19 -126.5q-17 -123 -23 -171t-6 -59q0 -25 13.5 -34t62.5 -9
h158z" />
    <glyph glyph-name="G" unicode="G" horiz-adv-x="1479" 
d="M907 1518q76 0 164.5 -19.5t102.5 -19.5q20 0 53 11t45 11q37 0 61.5 -71.5t24.5 -186.5q0 -55 -15 -81.5t-47 -26.5q-40 0 -84 76q-4 7 -6 10q-57 97 -141 142.5t-207 45.5q-133 0 -247.5 -65.5t-190.5 -184.5q-72 -110 -110 -249.5t-38 -291.5q0 -250 121 -399
t322 -149q161 0 268 108.5t107 274.5q0 33 -14.5 52t-46.5 29q-13 4 -35 9q-56 12 -56 39q0 38 72 56.5t219 18.5q117 0 167 -13t50 -44q0 -35 -71 -57q-17 -6 -26 -9q-51 -15 -74 -82l-1 -3q-2 -7 -7 -22q-59 -181 -114 -257q-72 -103 -188.5 -156t-270.5 -53
q-287 0 -454.5 181.5t-167.5 492.5q0 166 50 314t146 268q116 145 281.5 223t357.5 78z" />
    <glyph glyph-name="H" unicode="H" horiz-adv-x="1507" 
d="M760 854q236 0 311 10t84 35q5 15 10 43t13 87q11 89 17.5 166t6.5 97v19q0 24 -7 36t-24 21q-12 7 -39 15q-51 15 -51 40q0 39 65 58.5t193 19.5q111 0 157 -14t46 -47q0 -18 -9 -28.5t-42 -22.5q-53 -19 -70.5 -32.5t-23.5 -32.5q-10 -32 -31.5 -165.5t-56.5 -394.5
q-29 -213 -48.5 -380t-19.5 -194q0 -29 10.5 -47t34.5 -28q10 -4 27 -11q49 -17 49 -45q0 -37 -58 -53t-196 -16q-109 0 -161 15t-52 46q0 38 61 57.5t76 38.5q11 13 19.5 44.5t25.5 134.5q21 124 34 229.5t13 124.5q0 35 -43.5 47t-206.5 12h-110h-164q-128 0 -169 -10.5
t-50 -38.5q-6 -18 -14.5 -67.5t-16.5 -114.5q-16 -120 -25.5 -207.5t-9.5 -110.5q0 -29 11.5 -46.5t35.5 -28.5q9 -4 26 -10q48 -18 48 -46q0 -37 -57.5 -53t-194.5 -16q-109 0 -161 15t-52 46q0 19 10.5 31.5t34.5 21.5q10 4 28 9q62 17 75 53q16 44 45 219t59 412
q23 179 37 330t14 180q0 30 -9.5 44.5t-35.5 22.5q-9 4 -26 9q-49 16 -49 40q0 39 65.5 58.5t196.5 19.5q103 0 148.5 -14t45.5 -45q0 -36 -58.5 -57.5t-74.5 -45.5q-7 -9 -13.5 -37t-19.5 -108q-17 -103 -27.5 -182.5t-10.5 -96.5q0 -35 43.5 -48t205.5 -13h105z" />
    <glyph glyph-name="I" unicode="I" horiz-adv-x="627" 
d="M625 1442q0 -20 -10 -31.5t-37 -21.5q-9 -4 -25 -10q-56 -20 -68 -54q-10 -33 -33.5 -176.5t-52.5 -355.5q-29 -222 -49 -399.5t-20 -203.5q0 -29 11 -46.5t35 -28.5q10 -4 26 -10q49 -18 49 -46q0 -37 -57.5 -53t-194.5 -16q-109 0 -161 15t-52 46q0 19 10 31.5t34 21.5
q10 4 29 9q62 17 74 53q15 40 42.5 208t60.5 423q22 184 37.5 334.5t15.5 175.5q0 30 -10 44.5t-35 22.5q-10 4 -29 10q-49 16 -49 39q0 39 66.5 58.5t197.5 19.5q103 0 149 -14t46 -45z" />
    <glyph glyph-name="J" unicode="J" horiz-adv-x="1006" 
d="M672 1038q12 96 20 175t8 94q0 28 -10 42.5t-36 24.5l-24 8q-55 18 -55 41q0 39 68 58.5t201 19.5q105 0 151.5 -14t46.5 -45q0 -35 -52 -54t-68 -32q-33 -27 -74 -302v-3l-66 -453l-5 -33q-51 -349 -118 -438q-59 -79 -153.5 -124.5t-202.5 -45.5q-150 0 -249 87
t-99 216q0 84 38.5 134t102.5 50q39 0 64.5 -25t25.5 -65q0 -32 -30.5 -89t-30.5 -85q0 -54 48 -86.5t128 -32.5q65 0 121.5 30.5t95.5 86.5q28 41 47.5 115.5t44.5 269.5z" />
    <glyph glyph-name="K" unicode="K" horiz-adv-x="1229" 
d="M383 737q-34 -245 -51 -382t-17 -165q0 -29 11.5 -46.5t35.5 -28.5q9 -4 26 -10q48 -18 48 -46q0 -37 -57.5 -53t-194.5 -16q-109 0 -161 15t-52 46q0 19 10.5 31.5t34.5 21.5q10 4 28 9q62 17 75 53q16 44 45 219t59 412q23 179 37 330t14 180q0 30 -9.5 44.5
t-35.5 22.5q-9 4 -26 9q-49 16 -49 40q0 39 65.5 58.5t196.5 19.5q103 0 148.5 -14t45.5 -45q0 -35 -50.5 -54t-65.5 -32q-35 -28 -80 -374q-14 -111 -23 -175l481 459q35 33 48.5 53t13.5 37q0 23 -30 40.5t-30 37.5q0 31 53.5 49t147.5 18q101 0 153 -17t52 -50
q0 -30 -61 -46q-14 -4 -20 -5q-80 -21 -184 -119q-11 -11 -18 -17l-467 -428q269 -383 391.5 -530t186.5 -170q18 -7 57 -11q70 -8 70 -47q0 -34 -55 -52.5t-158 -18.5q-107 0 -218 157q-11 16 -18 25q-61 85 -198 283.5t-205 281.5z" />
    <glyph glyph-name="L" unicode="L" horiz-adv-x="1096" 
d="M641 119q72 0 128 20.5t93 61.5q34 37 72.5 117.5t73.5 80.5q23 0 36 -19t13 -54q0 -50 -25.5 -129t-66.5 -152q-21 -34 -40.5 -52t-37.5 -18q-10 0 -54.5 12.5t-78.5 12.5h-666q-59 0 -88 12.5t-29 38.5q0 19 10.5 31.5t34.5 21.5q11 5 32 11q59 16 71 51q16 44 45 219
t59 412q23 179 37 330t14 180q0 30 -9.5 44.5t-35.5 22.5q-9 4 -26 9q-49 16 -49 40q0 39 65.5 58.5t196.5 19.5q103 0 148.5 -14t45.5 -45q0 -20 -10 -31.5t-36 -21.5q-9 -4 -24 -9q-58 -21 -69 -55q-8 -27 -21 -100t-26 -166q-46 -333 -74 -569.5t-28 -282.5
q0 -53 28 -70.5t117 -17.5h174z" />
    <glyph glyph-name="M" unicode="M" horiz-adv-x="1788" 
d="M451 1237q-90 -375 -145.5 -666.5t-55.5 -371.5q0 -30 11.5 -51.5t32.5 -32.5q8 -3 21 -7q52 -16 52 -47q0 -37 -50.5 -53t-173.5 -16q-96 0 -147 18.5t-51 52.5q0 35 55 52t78 32q46 33 109 352l8 38l116 591l4 18q21 112 21 142q0 33 -12.5 55t-36.5 31q-10 4 -27 9
q-51 16 -51 40q0 36 59.5 57t159.5 21q35 0 65 -5t54 -15q32 -15 51 -133q4 -23 6 -35q45 -251 101.5 -487t123.5 -453q104 168 221 379.5t244 461.5q22 42 58 121t55 103q29 36 59 49.5t82 13.5q127 0 176.5 -13.5t49.5 -45.5q0 -37 -61.5 -59t-74.5 -38q-8 -11 -15 -44.5
t-13 -97.5q-43 -376 -67.5 -647.5t-24.5 -350.5q0 -39 10 -61t30 -29q11 -4 27 -9q51 -16 51 -45q0 -37 -59 -53t-201 -16q-110 0 -157.5 15t-47.5 48q0 16 11.5 28t33.5 21q10 4 26 8q63 18 77 56q23 61 57.5 372.5t59.5 721.5l-596 -1102q-14 -26 -32.5 -40t-39.5 -14
q-30 0 -49 24t-37 91q-74 281 -132 537t-99 479z" />
    <glyph glyph-name="N" unicode="N" horiz-adv-x="1526" 
d="M375 1221q-60 -398 -96.5 -687t-36.5 -350q0 -29 10 -43.5t36 -23.5q10 -4 27 -9q50 -16 50 -40q0 -39 -62 -57.5t-188 -18.5q-88 0 -128 13.5t-40 43.5q0 25 32.5 47.5t63.5 22.5q29 0 52 45t38 131q58 349 90.5 614t32.5 381q0 31 -9.5 48.5t-31.5 25.5q-9 3 -26 8
q-66 21 -66 51q0 35 54 54.5t151 19.5q41 0 63 -9.5t45 -35.5q19 -21 87 -146q38 -69 61 -110q189 -335 343 -582t228 -335q57 407 92 691t35 337q0 30 -10 44.5t-35 22.5q-10 4 -26 9q-50 16 -50 40q0 38 61.5 56t188.5 18q89 0 127.5 -13t38.5 -42q0 -36 -56 -55
q-26 -8 -38 -15q-40 -22 -57 -50.5t-31 -123.5l-78 -506q-41 -270 -77 -556q-9 -72 -11 -82q-8 -41 -19.5 -54.5t-33.5 -13.5q-52 0 -234 287q-8 13 -12 20q-226 352 -372 596.5t-183 331.5z" />
    <glyph glyph-name="O" unicode="O" horiz-adv-x="1593" 
d="M856 1407q-132 0 -246 -64.5t-188 -181.5q-73 -113 -111.5 -252.5t-38.5 -292.5q0 -250 122.5 -398t328.5 -148q110 0 206.5 46t186.5 140q91 96 146 252.5t55 325.5q0 268 -122.5 420.5t-338.5 152.5zM1520 846q0 -194 -67 -357.5t-202 -302.5q-104 -105 -247 -165
t-291 -60q-139 0 -253 46t-202 136q-86 88 -136 223.5t-50 282.5q0 206 82 384t237 306q106 88 237.5 133.5t278.5 45.5q275 0 444 -185t169 -487z" />
    <glyph glyph-name="P" unicode="P" horiz-adv-x="1135" 
d="M406 943q-5 -34 -8 -64.5t-3 -51.5q0 -39 18.5 -50t116.5 -11q215 0 325 92.5t110 274.5q0 134 -77 201t-231 67q-76 0 -117 -5.5t-55 -17.5q-11 -10 -21 -47t-20 -108zM457 676q-36 0 -54 -5.5t-22 -17.5q-7 -19 -19 -95t-32 -228q-7 -46 -11 -83.5t-4 -56.5
q0 -29 11.5 -46.5t35.5 -28.5q9 -4 26 -10q48 -18 48 -46q0 -37 -57.5 -53t-194.5 -16q-109 0 -161 15t-52 46q0 19 10.5 31.5t34.5 21.5q10 4 28 9q62 17 75 53q15 40 41 197.5t63 433.5q24 180 37.5 313.5t13.5 189.5q0 33 -10 49t-34 25q-9 3 -26 9q-50 16 -50 40
q0 37 49 52.5t172 15.5q102 0 220 6t134 6q214 0 325 -88.5t111 -259.5q0 -229 -163.5 -355t-462.5 -126q-9 0 -36 1t-46 1z" />
    <glyph glyph-name="Q" unicode="Q" horiz-adv-x="1593" 
d="M584 -27q69 -31 190 -95q240 -128 354 -128q52 0 84 16t56 54q6 9 15 28q20 43 42 43q20 0 30.5 -12.5t10.5 -36.5q0 -85 -83 -147t-206 -62q-109 0 -223 42t-311 165q-17 11 -48 31q-153 98 -223 98q-16 0 -57 -44t-82 -44q-20 0 -31.5 11t-11.5 30q0 54 67.5 95.5
t161.5 41.5q15 0 25 -0.5t18 -0.5q-140 97 -215 251.5t-75 347.5q0 200 83.5 378t235.5 304q106 88 237.5 133.5t278.5 45.5q274 0 443.5 -185.5t169.5 -486.5q0 -235 -98 -429.5t-279 -318.5q-98 -66 -207 -100.5t-223 -34.5q-24 0 -55 2.5t-74 7.5zM856 1407
q-132 0 -246 -64.5t-188 -181.5q-73 -113 -111.5 -252.5t-38.5 -292.5q0 -250 122.5 -398t328.5 -148q110 0 206.5 46t186.5 140q91 96 146 252.5t55 325.5q0 268 -122.5 420.5t-338.5 152.5z" />
    <glyph glyph-name="R" unicode="R" horiz-adv-x="1294" 
d="M406 961q-5 -34 -8 -65t-3 -50q0 -34 16.5 -43.5t96.5 -9.5h22q211 0 325 88t114 252q0 134 -78 201t-234 67q-72 0 -115.5 -6t-56.5 -17q-11 -9 -20 -41t-21 -108zM418 690q-19 0 -29 -6t-14 -18q-5 -16 -14 -79.5t-33 -262.5q-6 -50 -9.5 -84t-3.5 -50
q0 -29 11.5 -46.5t35.5 -28.5q9 -4 26 -10q48 -18 48 -46q0 -37 -57.5 -53t-194.5 -16q-109 0 -161 15t-52 46q0 19 10.5 31.5t34.5 21.5q10 4 28 9q62 17 75 53q16 44 45 219t59 412q23 179 37 330t14 180q0 30 -9.5 44.5t-35.5 22.5q-9 4 -26 9q-49 16 -49 40
q0 46 101.5 63t463.5 17q218 0 333 -86.5t115 -251.5q0 -91 -38 -169.5t-117 -149.5q-71 -64 -187 -98q-28 -9 -28 -13t25 -13.5t43 -19.5q57 -33 91 -76t48 -102q16 -73 28.5 -188t22.5 -152q13 -50 33 -73t51 -23q11 0 31.5 5t29.5 5q13 0 23 -11t10 -26q0 -35 -44 -57
t-116 -22q-199 0 -241 403q0 5 -1 8q-16 157 -84.5 227t-203.5 70h-125z" />
    <glyph glyph-name="S" unicode="S" horiz-adv-x="1186" 
d="M485 74q151 0 258 92.5t107 220.5q0 51 -18.5 94.5t-53.5 75.5q-59 56 -204 115q-45 18 -68 28q-171 76 -239 158.5t-68 206.5q0 190 147 320.5t367 130.5q58 0 130.5 -15.5t86.5 -15.5q21 0 54.5 11t43.5 11q36 0 62 -69.5t26 -171.5q0 -46 -15 -73.5t-40 -27.5
q-38 0 -77 70q-17 29 -28 45q-42 63 -113.5 98t-158.5 35q-131 0 -218 -81t-87 -199q0 -92 57 -152t236 -135l42 -18q147 -60 216 -123q52 -49 79 -114t27 -140q0 -96 -38 -181t-109 -149q-88 -78 -196.5 -119t-227.5 -41q-99 0 -191.5 23.5t-156.5 64.5q-44 27 -61 65
t-17 115q0 121 16 175.5t51 54.5q48 0 63 -96q7 -51 15 -80q30 -110 101.5 -159.5t199.5 -49.5z" />
    <glyph glyph-name="T" unicode="T" horiz-adv-x="1186" 
d="M1001 1493q82 0 144 14q8 2 10 2q43 0 65.5 -59.5t22.5 -175.5q0 -79 -16 -117.5t-49 -38.5q-24 0 -41.5 17t-26.5 46q-4 15 -12 43q-42 152 -150 152h-112q-41 0 -59.5 -23.5t-35.5 -117.5q-16 -99 -39 -268.5t-53 -411.5q-22 -183 -31.5 -265t-9.5 -102q0 -28 12 -45.5
t37 -27.5q11 -4 28 -10q48 -16 48 -44q0 -37 -61 -54t-201 -17q-118 0 -169.5 15t-51.5 48q0 17 11.5 29.5t34.5 21.5q10 4 28 9q66 19 84 57q16 36 37.5 161.5t68.5 465.5q28 205 43.5 341t15.5 171q0 36 -11 51.5t-38 15.5h-108q-61 0 -103.5 -31.5t-85.5 -109.5
q-5 -10 -15 -29q-48 -88 -91 -88q-20 0 -31.5 13.5t-11.5 37.5q0 26 15.5 84.5t41.5 120.5q29 76 53.5 105.5t55.5 29.5q2 0 12 -2q65 -14 141 -14h604z" />
    <glyph glyph-name="U" unicode="U" horiz-adv-x="1470" 
d="M610 1442q0 -35 -55 -55.5t-72 -45.5q-8 -14 -17.5 -52.5t-23.5 -114.5q-52 -293 -78 -481.5t-26 -278.5q0 -172 79 -257t238 -85q172 0 282.5 90.5t156.5 269.5q32 122 80 521q11 98 18 151q10 76 15 129.5t5 73.5q0 28 -10.5 42.5t-37.5 24.5q-11 4 -27 9
q-52 16 -52 40q0 38 64.5 57t193.5 19q91 0 133 -13.5t42 -43.5q0 -38 -78 -63l-15 -5q-35 -12 -55.5 -38t-30.5 -72q-9 -49 -24.5 -149t-32.5 -226q-7 -51 -19 -140q-40 -305 -63 -372q-77 -221 -217.5 -318.5t-380.5 -97.5q-212 0 -321 104.5t-109 307.5q0 87 40 390
q21 158 32 249q16 139 23 209t7 86q0 30 -9.5 44.5t-35.5 22.5q-9 4 -26 9q-49 16 -49 40q0 39 65.5 58.5t196.5 19.5q103 0 148.5 -14t45.5 -45z" />
    <glyph glyph-name="V" unicode="V" horiz-adv-x="1380" 
d="M586 -23q-14 0 -25.5 10.5t-19.5 30.5q-19 51 -98 356t-169 687q-8 35 -21 98q-40 181 -69 207q-8 7 -46 20.5t-38 36.5q0 39 66 58.5t196 19.5q103 0 149 -14t46 -45q0 -37 -72 -62q-11 -4 -16 -6q-28 -11 -41.5 -33t-13.5 -57q0 -47 24.5 -173t73.5 -327
q62 -255 95.5 -355.5t54.5 -100.5q19 0 91 118.5t187 339.5q137 263 196.5 388t59.5 151q0 16 -12 28.5t-35 20.5q-10 4 -26 9q-50 16 -50 40q0 38 62 58t180 20q97 0 140.5 -14t43.5 -45q0 -36 -55 -54q-24 -8 -35 -14q-59 -34 -145 -197l-11 -20q-129 -239 -322 -613
q-295 -567 -345 -567z" />
    <glyph glyph-name="W" unicode="W" horiz-adv-x="1919" 
d="M911 940q-37 215 -56.5 301t-35.5 111q-10 16 -53 32.5t-43 38.5q0 39 64.5 58.5t191.5 19.5q105 0 147.5 -14t42.5 -47q0 -34 -69 -59q-11 -4 -19 -7q-27 -10 -39 -32t-12 -60q0 -60 22.5 -183t67.5 -315q62 -260 93.5 -358t52.5 -98q18 0 86.5 116t183.5 342
q127 248 187.5 379.5t60.5 159.5q0 15 -12.5 28.5t-32.5 20.5q-10 4 -27 10q-47 16 -47 39q0 38 60.5 58t175.5 20q94 0 135 -14t41 -47t-53 -51q-23 -9 -33 -15q-58 -35 -138 -190q-9 -18 -14 -27q-123 -237 -310 -607q-287 -573 -337 -573q-19 0 -33.5 24.5t-34.5 92.5
q-60 206 -109.5 430t-60.5 224q-10 0 -118 -212t-199 -380l-3 -6q-94 -173 -130 -173q-58 0 -259 897q-28 121 -42 187q-10 42 -25 115q-35 165 -61 190q-8 7 -45 21t-37 36q0 39 63.5 58.5t190.5 19.5q105 0 147.5 -14t42.5 -47q0 -34 -69 -59q-12 -4 -19 -7
q-25 -9 -37 -30t-12 -56q0 -58 23 -187t67 -317q57 -239 92 -347.5t56 -108.5q24 0 126 181.5t205 430.5z" />
    <glyph glyph-name="X" unicode="X" horiz-adv-x="1233" 
d="M881 405q7 -16 22 -48q94 -208 123 -230q11 -9 52.5 -22t41.5 -37q0 -39 -65.5 -58.5t-196.5 -19.5q-103 0 -148.5 14t-45.5 45q0 20 10 31.5t36 21.5q9 4 24 10q57 22 57 50q0 24 -9.5 54t-29.5 73l-177 385l-282 -387q-40 -57 -54 -84.5t-14 -48.5q0 -20 38 -42.5
t38 -45.5q0 -38 -50.5 -57t-148.5 -19q-104 0 -148 15.5t-44 51.5q0 17 10 28.5t30 18.5q7 2 18 6q83 27 128 87l436 577l-137 311q-73 163 -100 214t-45 65q-11 9 -53.5 22t-42.5 37q0 39 66.5 58.5t197.5 19.5q103 0 148.5 -14t45.5 -45q0 -20 -10 -31.5t-36 -21.5
q-9 -4 -24 -10q-57 -22 -57 -50q0 -21 7.5 -46.5t31.5 -80.5l140 -305l221 307q42 60 54.5 86t12.5 47q0 20 -37.5 42.5t-37.5 45.5q0 38 50.5 57t147.5 19q106 0 150.5 -15.5t44.5 -51.5q0 -32 -69 -57q-8 -3 -13 -5q-72 -28 -139 -121q-12 -17 -19 -26l-321 -434z" />
    <glyph glyph-name="Y" unicode="Y" horiz-adv-x="1079" 
d="M446 711l-168 375q-7 16 -22 48q-94 208 -123 230q-11 9 -53.5 22t-42.5 37q0 39 66.5 58.5t197.5 19.5q103 0 149 -14t46 -45q0 -20 -10 -31.5t-37 -21.5q-9 -4 -24 -10q-56 -22 -56 -50q0 -23 8 -51t29 -76l165 -366l273 368q37 50 52 80t15 53q0 20 -37.5 42.5
t-37.5 45.5q0 38 51 57t149 19q100 0 147.5 -16t47.5 -49q0 -29 -67 -55q-10 -4 -17 -7q-70 -28 -136 -119l-18 -24l-377 -500l-49 -408q-1 -12 -4 -35q-10 -81 -10 -98q0 -29 11.5 -47t37.5 -28q9 -4 24 -9q52 -18 52 -47q0 -37 -59.5 -53t-202.5 -16q-116 0 -168.5 15.5
t-52.5 49.5q0 35 55.5 51.5t70.5 26.5q42 29 99 401q16 113 26 177z" />
    <glyph glyph-name="Z" unicode="Z" horiz-adv-x="1290" 
d="M215 0h-20q-130 0 -164.5 17t-34.5 61q0 22 24.5 62t69.5 91l864 994q38 43 59 74t21 42q0 16 -23 23.5t-69 7.5h-350q-85 0 -137 -24t-93 -80q-17 -23 -43 -65q-53 -85 -94 -85q-23 0 -36 17t-13 47q0 25 12 72.5t33 97.5q35 85 67.5 123t67.5 38q5 0 66.5 -10
t118.5 -10h594q74 0 106.5 -16.5t32.5 -53.5q0 -33 -40 -93t-134 -169l-739 -853l-10 -12q-109 -127 -109 -144t35 -24t124 -7h283q124 0 178 21.5t99 74.5q27 34 67.5 110t77.5 76q23 0 35 -17t12 -50q0 -44 -21.5 -119.5t-56.5 -144.5q-25 -51 -46.5 -68.5t-53.5 -17.5
q-2 0 -14 1q-77 13 -173 13h-573z" />
    <glyph glyph-name="bracketleft" unicode="[" horiz-adv-x="717" 
d="M336 1346q13 90 47.5 118.5t136.5 28.5h148q62 0 90 -14t28 -43q0 -33 -20.5 -45.5t-79.5 -12.5h-121q-47 0 -66 -20t-28 -88l-186 -1349q-1 -6 -1.5 -11.5t-0.5 -15.5q0 -38 20 -55t64 -17h90q59 0 79.5 -12.5t20.5 -45.5q0 -30 -27.5 -43.5t-89.5 -13.5h-149
q-95 0 -131.5 23t-36.5 80q0 7 0.5 14.5t3.5 25.5z" />
    <glyph glyph-name="backslash" unicode="\" horiz-adv-x="494" 
d="M428 -133v-10q0 -23 -16.5 -35t-46.5 -12q-25 0 -30 38q-1 4 -1 7l-238 1605v10q0 23 16.5 35.5t47.5 12.5q26 0 32 -45h1z" />
    <glyph glyph-name="bracketright" unicode="]" horiz-adv-x="717" 
d="M334 -145q-14 -92 -47.5 -120t-134.5 -28h-150q-61 0 -89 13.5t-28 43.5q0 33 21 45.5t80 12.5h120q48 0 67 20t28 89l186 1349q1 5 1.5 10.5t0.5 16.5q0 37 -20 54t-64 17h-92q-59 0 -79.5 12.5t-20.5 45.5q0 29 28 43t90 14h148q95 0 132.5 -23t37.5 -79q0 -6 -1 -15
t-3 -26z" />
    <glyph glyph-name="asciicircum" unicode="^" horiz-adv-x="2048" 
d="M934 1462h178l520 -565h-92l-518 436l-520 -436h-90z" />
    <glyph glyph-name="underscore" unicode="_" 
d="M0 -365h1024v-118h-1024v118z" />
    <glyph glyph-name="grave" unicode="`" 
d="M608 1204l-293 160q-26 15 -37.5 28t-11.5 27q0 30 27.5 58t54.5 28q17 0 41 -18l12 -8l313 -223q12 -9 17.5 -17.5t5.5 -17.5q0 -16 -15 -34t-32 -18q-16 0 -78 33q-3 2 -4 2z" />
    <glyph glyph-name="a" unicode="a" horiz-adv-x="1100" 
d="M408 106q65 0 132 37t119 101q66 80 104 201t38 253q0 118 -54 185t-147 67q-65 0 -126.5 -37.5t-113.5 -109.5q-66 -92 -104.5 -212t-38.5 -239q0 -120 49 -183t142 -63zM741 198q-114 -119 -208 -173t-187 -54q-141 0 -222 97t-81 268q0 118 33 229.5t96 208.5
q82 126 200 200.5t236 74.5q95 0 198 -66q28 -18 36 -18q11 0 18.5 3t16.5 11l67 65q22 20 31.5 25.5t17.5 5.5q12 0 20.5 -9t8.5 -24q0 -20 -23.5 -136t-37.5 -212q-25 -162 -39.5 -299t-14.5 -196q0 -39 9.5 -51.5t35.5 -12.5q10 0 27 2t25 2q20 0 30 -7.5t10 -22.5
q0 -35 -71.5 -81t-132.5 -46q-53 0 -74 42.5t-25 173.5z" />
    <glyph glyph-name="b" unicode="b" horiz-adv-x="1100" 
d="M326 871q-1 -3 -1.5 -7t-0.5 -12q0 -9 2.5 -15t7.5 -6q4 0 44 41t81 74q64 53 130.5 80t131.5 27q135 0 219 -105t84 -276q0 -138 -52 -274.5t-143 -237.5q-84 -94 -182.5 -140.5t-212.5 -46.5q-160 0 -250 72t-90 201q0 42 28 229.5t44 308.5q25 201 39 336.5t14 184.5
q0 22 -8 33t-25 14q-10 2 -29 5q-55 8 -55 40q0 23 25 41t94 43q41 15 81 23.5t73 8.5q24 0 34.5 -9t10.5 -27q0 -14 -14 -89t-23 -133zM643 918q-171 0 -282 -183t-111 -475q0 -86 58.5 -137t156.5 -51q76 0 136.5 35.5t113.5 111.5q62 88 96.5 200.5t34.5 225.5
q0 128 -54 200.5t-149 72.5z" />
    <glyph glyph-name="c" unicode="c" horiz-adv-x="924" 
d="M569 961q-151 0 -259.5 -156t-108.5 -383q0 -152 76 -247t196 -95q56 0 107.5 21.5t123.5 80.5q4 3 9 8q45 39 69 39q16 0 26.5 -12t10.5 -31t-14.5 -40t-42.5 -44q-83 -66 -162 -97.5t-166 -31.5q-181 0 -291 114.5t-110 303.5q0 150 56 279.5t165 232.5
q77 73 166 111.5t180 38.5q120 0 196 -61t76 -154q0 -58 -28 -91.5t-76 -33.5q-46 0 -70 28.5t-24 83.5q0 3 1 17t1 24q0 47 -27 71t-80 24z" />
    <glyph glyph-name="d" unicode="d" horiz-adv-x="1110" 
d="M741 198q-108 -116 -205 -171.5t-192 -55.5q-141 0 -225 104t-84 277q0 138 51.5 275t140.5 237q82 91 177.5 140t189.5 49q131 0 229 -85q10 -9 13 -10q5 0 8.5 8t5.5 26l20 204q3 29 5 57.5t2 57.5q0 26 -6 34t-30 13l-18 3q-57 10 -57 36q0 39 87.5 79t180.5 40
q19 0 29 -11t10 -30q0 -7 -22.5 -142.5t-40.5 -271.5q-59 -422 -81 -608t-22 -254q0 -39 9.5 -51.5t35.5 -12.5q10 0 27 2t25 2q20 0 30 -7.5t10 -22.5q0 -35 -71.5 -81t-132.5 -46q-52 0 -72.5 41t-26.5 175zM412 106q64 0 131.5 38t120.5 104q61 79 97 195t36 237
q0 134 -55 205t-158 71q-67 0 -127 -36.5t-113 -110.5q-65 -93 -100 -204t-35 -224q0 -130 53.5 -202.5t149.5 -72.5z" />
    <glyph glyph-name="e" unicode="e" horiz-adv-x="924" 
d="M205 420q0 -153 74 -246.5t194 -93.5q56 0 107.5 21.5t123.5 80.5q4 3 9 8q45 39 69 39q16 0 26.5 -12t10.5 -31t-14.5 -40t-42.5 -44q-83 -66 -162 -97.5t-166 -31.5q-181 0 -291 114.5t-110 303.5q0 151 58 283t171 237q73 69 164 105.5t188 36.5q116 0 184 -63
t68 -169q0 -163 -181.5 -275t-479.5 -126zM207 510q228 10 357.5 93t129.5 216q0 65 -33.5 104.5t-87.5 39.5q-134 0 -238.5 -127t-127.5 -326z" />
    <glyph glyph-name="f" unicode="f" horiz-adv-x="512" 
d="M190 889h-133q-16 0 -22 4.5t-6 15.5v6l4 41v2q2 35 30 35h135q4 254 106.5 391.5t287.5 137.5q83 0 135.5 -40t52.5 -102q0 -37 -23.5 -58.5t-64.5 -21.5q-28 0 -52 12.5t-44 37.5q-5 6 -13 17q-34 48 -77 48q-123 0 -146 -396q-1 -17 -2 -26h150q17 0 22.5 -4t6.5 -16
v-6l-5 -39v-2q-2 -37 -30 -37h-158l-102 -940q-9 -81 -13 -125t-4 -68q0 -17 4 -41.5t4 -31.5q0 -37 -55 -61.5t-139 -24.5q-37 0 -54.5 10t-17.5 31q0 28 33.5 47t34.5 20q20 26 43.5 176.5t54.5 452.5z" />
    <glyph glyph-name="g" unicode="g" horiz-adv-x="1100" 
d="M158 25q-48 25 -73.5 68t-25.5 100q0 74 48.5 136.5t144.5 112.5q-49 50 -72.5 108t-23.5 126q0 164 116 272.5t295 108.5q46 0 95.5 -8t101.5 -23q49 25 89 51.5t73 55.5q20 -26 30.5 -45.5t10.5 -34.5q0 -36 -21.5 -63.5t-66.5 -51.5q38 -44 56.5 -94t18.5 -107
q0 -167 -123 -275t-319 -108q-54 0 -113.5 13.5t-66.5 13.5q-46 0 -88.5 -45.5t-42.5 -97.5q0 -55 43 -78t151 -23q54 0 167.5 9.5t172.5 9.5q124 0 190 -54.5t66 -154.5q0 -154 -163 -262.5t-406 -108.5q-167 0 -269 71t-102 183q0 57 26.5 105.5t80.5 89.5zM246 6
q-24 -33 -35.5 -65.5t-11.5 -65.5q0 -93 73.5 -148t200.5 -55q159 0 265 66t106 160q0 56 -36 86t-103 30q-42 0 -140 -9t-153 -9q-22 0 -57.5 2t-108.5 8zM522 444q110 0 189.5 91t79.5 219q0 96 -55 154.5t-146 58.5q-112 0 -191.5 -91.5t-79.5 -222.5q0 -93 56.5 -151
t146.5 -58z" />
    <glyph glyph-name="h" unicode="h" horiz-adv-x="1124" 
d="M330 928l-11 -82v-10q0 -10 2.5 -15.5t6.5 -5.5q1 0 47 45t102 90q61 48 130 75.5t128 27.5q119 0 180.5 -67.5t61.5 -199.5q0 -127 -31 -330t-31 -274q0 -34 6 -44.5t23 -10.5q10 0 31 3t33 3q21 0 33 -8t12 -23q0 -40 -80.5 -76t-179.5 -36q-32 0 -47 12.5t-15 40.5
q0 38 45 279t45 428q0 82 -33.5 123.5t-99.5 41.5q-60 0 -118 -25.5t-119 -78.5q-86 -74 -128.5 -163t-66.5 -290q-8 -62 -18 -162q-15 -154 -33 -173q-10 -10 -51 -21.5t-78 -11.5q-19 0 -26 5.5t-7 18.5q0 7 11.5 60t19.5 100q15 87 31.5 202.5t50.5 381.5
q38 300 50.5 407t12.5 131q0 29 -7 40t-28 16q-10 2 -30 5q-54 8 -54 40q0 22 24.5 40t92.5 44q46 17 86 26t72 9q18 0 28.5 -11t10.5 -30q0 -17 -32.5 -197.5t-51.5 -349.5z" />
    <glyph glyph-name="i" unicode="i" horiz-adv-x="498" 
d="M170 1384q0 48 31.5 80.5t79.5 32.5q46 0 76 -28t30 -72q0 -45 -33 -77t-80 -32q-44 0 -74 27.5t-30 68.5zM80 43q0 12 16.5 108.5t28.5 178.5q27 179 40 295t13 178v16q0 39 -7 50.5t-26 15.5q-10 2 -27 5q-59 9 -59 42q0 22 23 39.5t82 38.5q51 18 97.5 28.5t74.5 10.5
q17 0 26 -12.5t9 -35.5q0 -12 -15.5 -98t-25.5 -155q-29 -196 -48.5 -359t-19.5 -190q0 -43 10 -57.5t37 -14.5q8 0 27 3t31 3q13 0 22.5 -9.5t9.5 -23.5q0 -39 -79.5 -74.5t-176.5 -35.5q-32 0 -47.5 13t-15.5 40z" />
    <glyph glyph-name="j" unicode="j" horiz-adv-x="461" 
d="M350 1006q0 -16 -9 -70.5t-13 -89.5q-15 -101 -42.5 -345.5t-47.5 -387.5q-31 -218 -51 -302.5t-46 -125.5q-33 -55 -88 -83t-129 -28q-58 0 -89.5 14t-31.5 39q0 17 11.5 25t35.5 8q15 0 30 -1t16 -1q64 0 97 48.5t60 193.5q52 275 81.5 527t29.5 388q0 52 -14.5 65
t-73.5 13q-13 0 -23 10t-10 25q0 22 21.5 39.5t76.5 38.5q57 21 103.5 33t70.5 12q16 0 25.5 -12.5t9.5 -32.5zM158 1384q0 48 32.5 80.5t79.5 32.5t77 -28t30 -72q0 -45 -33.5 -77t-79.5 -32q-45 0 -75.5 27.5t-30.5 68.5z" />
    <glyph glyph-name="k" unicode="k" horiz-adv-x="963" 
d="M545 492q48 -78 117 -200q99 -177 139 -177q14 0 39.5 8t36.5 8q15 0 23.5 -8.5t8.5 -22.5q0 -31 -73 -77t-125 -46q-22 0 -42 20t-53 77l-153 270q-1 1 -3 5q-45 79 -77 79q-132 0 -144 -226q-2 -40 -3 -62q-1 -6 -1 -15q-8 -133 -165 -133q-15 0 -21 5t-6 17
q0 8 10.5 62.5t18.5 96.5q26 146 71 487q8 65 13 98q30 237 45.5 373t15.5 165q0 31 -6.5 41t-26.5 15q-10 2 -30 5q-56 8 -56 40q0 22 21.5 38.5t87.5 41.5q52 18 100 29.5t72 11.5q12 0 19.5 -13.5t7.5 -38.5q0 -15 -1.5 -25.5t-3.5 -21.5l-94 -610q89 109 188 169t189 60
q84 0 133 -52t49 -140q0 -118 -85.5 -212.5t-235.5 -141.5zM274 489q209 45 325 128t116 188q0 54 -29.5 83.5t-83.5 29.5q-108 0 -204.5 -122.5t-123.5 -306.5z" />
    <glyph glyph-name="l" unicode="l" horiz-adv-x="498" 
d="M78 43q0 16 18.5 112.5t30.5 174.5q51 326 83 606t32 350q0 37 -7.5 49.5t-28.5 16.5q-10 2 -30 5q-55 8 -55 40q0 22 24 40t93 44q45 17 86 26t73 9q19 0 29 -11t10 -30q0 -8 -22 -144.5t-41 -267.5q-50 -354 -80.5 -591t-30.5 -273q0 -43 10 -57.5t37 -14.5q8 0 27 3
t31 3q13 0 22.5 -9.5t9.5 -23.5q0 -39 -80 -74.5t-178 -35.5q-32 0 -47.5 13t-15.5 40z" />
    <glyph glyph-name="m" unicode="m" horiz-adv-x="1712" 
d="M338 938l2 -70q0 -10 -1 -22.5t-1 -14.5q0 -3 1 -5.5t3 -2.5q3 0 46.5 43t88.5 82q58 51 119.5 78t118.5 27q69 0 121.5 -33.5t76.5 -93.5q14 -34 21 -74.5t12 -40.5q4 0 41.5 40t77.5 77q67 62 133.5 93.5t132.5 31.5q111 0 171.5 -69t60.5 -198q0 -127 -31 -330
t-31 -274q0 -34 6 -44.5t23 -10.5q10 0 31 3t32 3q21 0 33 -8t12 -23q0 -40 -80.5 -76t-179.5 -36q-32 0 -47.5 13t-15.5 40q0 36 44 267.5t44 414.5q0 99 -28 141.5t-91 42.5q-56 0 -122 -39.5t-130 -111.5q-113 -127 -150 -497q-2 -19 -3 -29q-3 -27 -8 -75
q-10 -116 -27 -134q-10 -10 -51.5 -21.5t-81.5 -11.5q-15 0 -22 6t-7 18q0 8 10 58q9 44 15 74q36 190 53.5 332t17.5 241q0 102 -27 146t-87 44q-57 0 -123 -39t-133 -112q-114 -126 -151 -497l-3 -30q-3 -27 -7 -73q-11 -117 -28 -135q-10 -10 -51.5 -21.5t-81.5 -11.5
q-15 0 -23 6t-8 18q0 6 15 74.5t26 130.5q37 206 58.5 368t21.5 224q0 38 -6.5 57t-20.5 21q-15 2 -41 3q-61 4 -61 34q0 18 17.5 33t62.5 36q55 24 98 36.5t70 12.5q40 0 43 -93v-13z" />
    <glyph glyph-name="n" unicode="n" horiz-adv-x="1139" 
d="M340 930v-82q0 -12 1 -15t5 -4q7 0 50 40t79 69q70 55 141 85t132 30q119 0 181 -68t62 -199q0 -127 -31.5 -330t-31.5 -274q0 -32 6.5 -43.5t23.5 -11.5q10 0 31 3t33 3q20 0 31.5 -8t11.5 -23q0 -41 -79.5 -76.5t-178.5 -35.5q-33 0 -48.5 13t-15.5 40q0 38 45.5 279
t45.5 428q0 82 -33.5 123.5t-100.5 41.5q-59 0 -116 -25t-119 -79q-86 -75 -129.5 -165t-67.5 -288q-8 -66 -18 -171q-14 -146 -31 -164q-10 -10 -51.5 -21.5t-81.5 -11.5q-15 0 -23 6t-8 18q0 6 15 74.5t26 130.5q37 206 58.5 368t21.5 224q0 38 -6.5 57t-20.5 21
q-15 2 -41 3q-61 4 -61 34q0 19 19 35t61 34q54 24 98 36.5t70 12.5t35.5 -20t9.5 -94z" />
    <glyph glyph-name="o" unicode="o" horiz-adv-x="1081" 
d="M575 961q-152 0 -257 -159.5t-105 -400.5q0 -156 69 -245.5t189 -89.5q60 0 113.5 25t93.5 73q71 81 110 199.5t39 248.5q0 166 -66 257.5t-186 91.5zM39 422q0 124 43 241t123 207q79 90 176.5 137.5t204.5 47.5q187 0 300 -121t113 -322q0 -124 -42 -240t-121 -212
q-74 -91 -172.5 -140t-204.5 -49q-196 0 -308 120.5t-112 330.5z" />
    <glyph glyph-name="p" unicode="p" horiz-adv-x="1110" 
d="M659 918q-64 0 -130.5 -37.5t-118.5 -104.5q-63 -81 -99.5 -195.5t-36.5 -236.5q0 -134 55 -204t158 -70q68 0 129 36.5t113 108.5q65 92 100 204t35 224q0 129 -54 202t-151 73zM342 938l-2 -72v-30q0 -13 1 -16t3 -3q1 0 43.5 46t97.5 91q57 48 121 73.5t127 25.5
q137 0 220 -103.5t83 -275.5q0 -140 -51 -277.5t-139 -236.5q-81 -90 -178 -138.5t-195 -48.5q-124 0 -212 70q-11 8 -13 8q-10 0 -31.5 -100t-21.5 -199q0 -28 10 -41t51 -28q30 -11 39.5 -20t9.5 -23q0 -31 -40 -45.5t-124 -14.5q-123 0 -179 16t-56 52q0 16 12.5 27
t38.5 18q5 1 12 2q43 9 60 74q11 48 38.5 215.5t57.5 373.5q24 164 37.5 289.5t13.5 177.5q0 61 -55 64h-5q-36 2 -52.5 10t-16.5 25q0 15 9.5 27.5t29.5 23.5q55 32 114.5 52t94.5 20q27 0 37 -23.5t10 -85.5z" />
    <glyph glyph-name="q" unicode="q" horiz-adv-x="1085" 
d="M713 -4l24 172q1 5 2 14q2 20 2 27q0 4 -0.5 5t-1.5 1t-41 -46.5t-90 -90.5q-59 -53 -123.5 -80t-134.5 -27q-142 0 -227.5 101t-85.5 270q0 146 50 284t140 238q81 90 178.5 139.5t192.5 49.5q93 0 205 -69q31 -19 39 -19q11 0 18.5 3t16.5 11l68 66l10 10q26 24 38 24
t20.5 -11.5t8.5 -29.5q0 -8 -29 -174t-53 -332l-59 -397q-22 -148 -34.5 -250t-12.5 -131q0 -25 9.5 -40.5t33.5 -26.5q8 -4 22 -10q35 -14 35 -37q0 -31 -38 -45.5t-118 -14.5q-130 0 -185.5 16t-55.5 52q0 28 46 39.5t52 15.5q23 18 40 80t38 213zM412 106q64 0 131.5 38
t120.5 104q61 77 97 192.5t36 239.5q0 134 -55 205t-158 71q-67 0 -127 -36.5t-113 -110.5q-65 -91 -100 -201t-35 -225q0 -132 53 -204.5t150 -72.5z" />
    <glyph glyph-name="r" unicode="r" horiz-adv-x="758" 
d="M342 831q70 109 144.5 162.5t156.5 53.5q61 0 96 -39.5t35 -108.5q0 -52 -28.5 -83.5t-75.5 -31.5q-31 0 -48 9.5t-32 33.5q-8 12 -18 48t-27 36q-28 0 -66.5 -35.5t-77.5 -99.5q-33 -55 -55.5 -157.5t-48.5 -342.5q-3 -30 -8 -84q-13 -142 -29 -161q-14 -16 -57 -27.5
t-90 -11.5q-14 0 -20.5 5.5t-6.5 16.5q0 7 12.5 63.5t22.5 103.5q35 170 53.5 312t18.5 240q0 72 -10 114.5t-25 45.5q-14 3 -44 7q-63 8 -63 36q0 17 12.5 30t47.5 29l1 1q134 59 156 59q30 0 47 -50.5t27 -173.5z" />
    <glyph glyph-name="s" unicode="s" horiz-adv-x="801" 
d="M535 248q0 106 -178 206q-25 14 -37 21q-126 72 -175 133.5t-49 141.5q0 129 103 217t260 88q154 0 210 -41.5t56 -155.5q0 -36 -12 -50.5t-39 -14.5q-29 0 -56 43q-6 10 -10 16q-40 62 -79.5 88.5t-90.5 26.5q-72 0 -118 -44.5t-46 -113.5q0 -62 30.5 -105.5
t114.5 -92.5q20 -12 59 -33q117 -61 163 -119q26 -32 38.5 -70.5t12.5 -83.5q0 -141 -108 -237.5t-269 -96.5q-158 0 -245.5 53t-87.5 148q0 58 20 96.5t49 38.5q45 0 62 -79q9 -41 18 -64q19 -48 64 -74.5t110 -26.5q103 0 166.5 51.5t63.5 133.5z" />
    <glyph glyph-name="t" unicode="t" horiz-adv-x="569" 
d="M195 922h-78q-15 0 -21 3.5t-6 12.5v14q0 55 110 76q7 1 10 2l3 12q29 191 147 191q15 0 21 -5.5t6 -19.5l-1.5 -12.5t-2.5 -24.5l-21 -147h197q16 0 22.5 -5t6.5 -15v-11l-4 -38q-3 -19 -12 -26t-33 -7h-166q-27 0 -39 -81q-1 -10 -2 -16q-36 -234 -56 -398t-20 -222
q0 -51 23 -77t67 -26q30 0 71 15.5t52 15.5q14 0 20.5 -7.5t6.5 -23.5q0 -17 -20.5 -36t-63.5 -41q-51 -27 -91 -39.5t-73 -12.5q-73 0 -111.5 45.5t-38.5 131.5q0 76 25.5 280t71.5 492z" />
    <glyph glyph-name="u" unicode="u" horiz-adv-x="1139" 
d="M756 106v58q0 28 -2 34.5t-6 6.5q-8 0 -50.5 -40t-79.5 -69q-67 -53 -139 -82.5t-133 -29.5q-120 0 -181 67t-61 199q0 116 29 308.5t29 264.5q0 37 -14 52.5t-50 17.5q-44 2 -55.5 9t-11.5 24q0 18 19.5 34t66.5 37q49 23 98 36.5t80 13.5q29 0 41 -13.5t12 -44.5
q0 -54 -43 -286.5t-43 -403.5q0 -91 33 -134.5t102 -43.5q57 0 115.5 26t118.5 78q86 76 129.5 168t66.5 285q9 67 19 172q13 145 31 164q10 10 50.5 21.5t80.5 11.5q15 0 22.5 -6.5t7.5 -18.5q0 -8 -14 -79.5t-25 -127.5q-37 -211 -59 -372t-22 -220q0 -36 7 -55t22 -21
q13 -2 38 -3q64 -5 64 -35q0 -18 -19 -33.5t-72 -38.5q-45 -19 -86 -30t-67 -11q-28 0 -38.5 20.5t-10.5 89.5z" />
    <glyph glyph-name="v" unicode="v" horiz-adv-x="1049" 
d="M100 258q0 88 36 287t36 307q0 23 -6.5 33t-24.5 14q-9 2 -27 5q-54 10 -55 34q0 16 11.5 28t38.5 23q55 24 114 38.5t84 14.5q24 0 35.5 -12t11.5 -39q0 -26 -16 -119q-7 -37 -10 -56q-39 -219 -54.5 -333.5t-15.5 -179.5q0 -111 43 -164t133 -53q80 0 144 34.5
t116 104.5q61 82 92 181.5t31 211.5q0 59 -10 115t-33 123q-9 25 -35 70.5t-26 64.5q0 25 27 38t79 13q68 0 105 -72.5t37 -209.5q0 -174 -51 -331t-142 -267q-83 -98 -175 -144.5t-206 -46.5q-134 0 -210.5 76.5t-76.5 210.5z" />
    <glyph glyph-name="w" unicode="w" horiz-adv-x="1630" 
d="M731 190q-84 -107 -178.5 -163t-190.5 -56q-116 0 -189 79.5t-73 207.5q0 84 36 283.5t36 310.5q0 23 -6 32.5t-25 14.5q-9 2 -27 5q-54 10 -55 34q0 16 11.5 28t38.5 23q54 23 114 38t84 15t35.5 -12t11.5 -39q0 -26 -16 -119q-4 -21 -6 -32q-40 -228 -57 -352.5
t-17 -184.5q0 -103 41.5 -160t116.5 -57q61 0 120.5 37.5t106.5 105.5q62 89 92.5 205.5t44.5 392.5q1 21 2 59q5 163 152 163q15 0 24 -13t9 -35q0 -12 -8.5 -60.5t-12.5 -76.5q-34 -225 -50.5 -364.5t-16.5 -196.5q0 -108 42.5 -162.5t127.5 -54.5q48 0 91.5 17t78.5 51
q90 84 139 204t49 258q0 60 -10 116.5t-33 123.5q-9 25 -35 70.5t-26 64.5q0 25 26.5 38t77.5 13q69 0 106 -73t37 -209q0 -134 -32.5 -262.5t-94.5 -239.5q-77 -140 -184 -213.5t-233 -73.5q-117 0 -183.5 53.5t-91.5 165.5z" />
    <glyph glyph-name="x" unicode="x" horiz-adv-x="967" 
d="M440 391q-134 -199 -222.5 -303t-121.5 -104q-41 0 -93 63t-52 117q0 20 10 28.5t33 8.5q13 0 44.5 -22.5t49.5 -22.5q32 0 117 94t192 252q-104 267 -145.5 330t-85.5 63q-10 0 -26.5 -2t-24.5 -2q-18 0 -28.5 6.5t-10.5 17.5q0 32 76 74q10 5 15 8q41 22 77.5 34.5
t54.5 12.5q60 0 158 -256q31 -80 49 -126q143 213 215.5 297.5t109.5 84.5t83.5 -63.5t46.5 -112.5q0 -15 -10 -26t-23 -11q-15 0 -45.5 25t-44.5 25q-28 0 -111 -98t-174 -246l5 -15q146 -407 218 -407q8 0 27 2t31 2q20 0 31.5 -7.5t11.5 -21.5q0 -32 -71.5 -69
t-143.5 -37q-68 0 -151 224q-42 113 -71 183z" />
    <glyph glyph-name="y" unicode="y" horiz-adv-x="985" 
d="M500 33q117 176 179 342.5t62 304.5q0 74 -31.5 169t-31.5 122q0 37 26 59.5t70 22.5q56 0 88.5 -54t32.5 -149q0 -166 -73.5 -378t-203.5 -409q-156 -236 -318.5 -361.5t-311.5 -125.5q-81 0 -127.5 36.5t-46.5 98.5q0 56 28.5 88.5t77.5 32.5q38 0 62 -23t24 -59v-20
q0 -25 10.5 -33t34.5 -8q112 0 211.5 87t99.5 189q0 113 -46 310t-123 395q-49 121 -77 169t-48 48q-13 0 -41 -12.5t-45 -12.5q-16 0 -23.5 6.5t-7.5 20.5q0 15 10.5 29.5t36.5 35.5q54 43 100 71t60 28q72 0 172 -289.5t170 -730.5z" />
    <glyph glyph-name="z" unicode="z" horiz-adv-x="915" 
d="M39 166l590 633q16 17 24.5 32t8.5 25q0 15 -26.5 23t-78.5 8h-168q-93 0 -127.5 -13t-54.5 -45q-10 -16 -24 -47q-25 -55 -54 -55q-15 0 -27 12t-12 27q0 105 38 190.5t79 85.5q8 0 28 -7t31 -9q13 -2 48 -3t151 -1q92 0 190.5 2t104.5 2q53 0 72.5 -14t19.5 -49
q0 -31 -24 -72t-72 -92l-535 -570q-15 -16 -23 -30.5t-8 -26.5q0 -15 25.5 -22t79.5 -7h233q75 0 110 17.5t64 70.5q10 18 23 50q22 57 49 57q19 0 29 -13.5t10 -37.5q0 -36 -12 -90.5t-33 -112.5q-17 -49 -38 -71.5t-48 -22.5q-4 0 -24 2q-134 14 -281 14q-79 0 -182 -5
t-127 -5q-48 0 -67 15.5t-19 51.5q0 21 14.5 47t42.5 56z" />
    <glyph glyph-name="braceleft" unicode="{" 
d="M846 1516v-51q-142 -2 -194 -55.5t-52 -209.5v-143q0 -226 -61 -308.5t-226 -113.5q165 -31 226 -113.5t61 -308.5v-143q0 -156 51.5 -208.5t194.5 -54.5v-51h-10q-217 0 -298 73.5t-81 272.5v213q0 158 -59 218t-222 73v60q165 15 223 74t58 216v213q0 200 81 273.5
t298 73.5h10z" />
    <glyph glyph-name="bar" unicode="|" 
d="M449 1565h126v-2048h-126v2048z" />
    <glyph glyph-name="braceright" unicode="}" 
d="M178 1516h10q216 0 297.5 -74t81.5 -273v-213q0 -157 58 -216t223 -74v-60q-163 -13 -222 -73t-59 -218v-213q0 -198 -81.5 -272t-297.5 -74h-10v51q143 2 194.5 54.5t51.5 208.5v143q0 226 61 308.5t226 113.5q-165 31 -226 113.5t-61 308.5v143q0 156 -52 209.5
t-194 55.5v51z" />
    <glyph glyph-name="asciitilde" unicode="~" horiz-adv-x="1706" 
d="M1530 758v-131q-101 -72 -197.5 -108t-189.5 -36q-43 0 -90.5 9t-100.5 26q-30 10 -87 31q-202 72 -302 72q-83 0 -173.5 -37.5t-211.5 -122.5v133q105 73 202 109t185 36q56 0 116.5 -12.5t174.5 -52.5q12 -4 35 -13q164 -59 254 -59q85 0 176 36.5t209 119.5z" />
    <glyph glyph-name="Adieresis" unicode="&#xc4;" horiz-adv-x="1313" 
d="M590 1233q40 76 60 124t30 89q9 42 22 57t39 15q43 0 69 -42.5t67 -215.5l213 -920q27 -119 44 -160.5t40 -58.5q10 -8 44.5 -21t34.5 -39q0 -38 -58.5 -54.5t-201.5 -16.5q-107 0 -162 16t-55 47q0 30 70 55q8 3 13 5q40 14 54.5 33t14.5 59q0 50 -8 105.5t-31 148.5
q-8 32 -18.5 40.5t-43.5 8.5h-415q-45 0 -63.5 -9t-33.5 -32q-55 -89 -86.5 -165.5t-31.5 -115.5q0 -30 15 -47t58 -33q33 -12 42.5 -21.5t9.5 -25.5q0 -35 -54 -51t-174 -16q-98 0 -149 16t-51 47q0 25 45 44q10 4 13 5q70 27 131 150q16 32 26 49zM422 670q-2 -4 -4 -9
q-10 -23 -10 -28q0 -8 9.5 -12t26.5 -5h369q19 0 26 4t7 15q0 4 -2 13q-2 7 -2 9l-82 381l-6 27q-34 158 -45 158q-8 0 -61.5 -96t-117.5 -228zM512 1774q0 45 30 75.5t74 30.5t73.5 -27.5t29.5 -68.5q0 -40 -32 -71t-75 -31q-42 0 -71 27t-29 65zM833 1774q0 45 30.5 75.5
t74.5 30.5q43 0 72.5 -27.5t29.5 -68.5q0 -40 -32 -71t-74 -31t-71.5 27t-29.5 65z" />
    <glyph glyph-name="Aring" unicode="&#xc5;" horiz-adv-x="1313" 
d="M422 670q-2 -4 -4 -9q-10 -23 -10 -28q0 -8 9.5 -12t26.5 -5h369q19 0 26 4t7 15q0 4 -2 13q-2 7 -2 9l-82 381l-6 27q-34 158 -45 158q-8 0 -61.5 -96t-117.5 -228zM590 1196q2 4 6 11q48 83 78 175q13 39 27.5 47.5t48.5 8.5q74 0 122 -198q3 -13 5 -20l213 -890
q27 -113 44 -153t40 -58q8 -7 43.5 -21.5t35.5 -40.5q0 -36 -55 -50.5t-203 -14.5q-113 0 -166 15t-53 46q0 27 57 48q14 5 22 8q44 16 58.5 34.5t14.5 55.5q0 45 -8 97.5t-31 147.5q-8 32 -19.5 41t-42.5 9h-415q-44 0 -62.5 -9t-34.5 -32q-54 -86 -86 -161t-32 -112
q0 -29 15 -45.5t58 -32.5q1 0 4 -1q47 -18 48 -44q0 -34 -52.5 -48.5t-179.5 -14.5q-98 0 -147 15.5t-49 45.5q0 26 57 47h2q70 28 132 148q15 29 24 45zM639 1737q0 -58 38.5 -96.5t96.5 -38.5t96.5 38.5t38.5 96.5q0 57 -39 96t-96 39t-96 -39t-39 -96zM539 1737
q0 99 68 167t167 68q98 0 167 -68.5t69 -166.5q0 -100 -68 -168t-168 -68t-167.5 68t-67.5 168z" />
    <glyph glyph-name="Ccedilla" unicode="&#xc7;" horiz-adv-x="1341" 
d="M1296 1135q-42 0 -83 73q-3 5 -5 9q-59 100 -141.5 145t-206.5 45q-134 0 -249 -65t-191 -183q-72 -110 -110 -249.5t-38 -291.5q0 -250 121 -399t320 -149q108 0 203.5 36.5t154.5 100.5q26 28 63 90.5t68 62.5q18 0 28.5 -15t10.5 -40q0 -89 -40.5 -168.5t-82.5 -79.5
q-6 0 -17.5 3t-19.5 3q-5 0 -32 -13q-168 -89 -359 -89q-284 0 -451 182.5t-167 491.5q0 166 50 314t146 268q118 145 282.5 223t356.5 78q78 0 165 -19.5t97 -19.5q24 0 58.5 11t44.5 11q37 0 61.5 -71.5t24.5 -186.5q0 -55 -15 -81.5t-47 -26.5zM688 0q-12 -35 -20.5 -61
t-13.5 -45h18q112 0 163.5 -40.5t51.5 -127.5q0 -91 -66.5 -143t-185.5 -52q-122 0 -190 22t-68 62q0 19 13 32t34 13q9 0 78 -16.5t129 -16.5q59 0 91 27.5t32 77.5q0 38 -23 55t-103 27q-15 2 -35 2q-27 1 -28 16q0 14 14 61t38 107h71z" />
    <glyph glyph-name="Eacute" unicode="&#xc9;" horiz-adv-x="1229" 
d="M137 0q-99 0 -134.5 11.5t-35.5 39.5q0 17 13 31t36 22q11 5 32 11q59 16 71 51q16 44 45 219t59 412q23 179 37 330t14 180q0 28 -10 42.5t-36 24.5q-9 3 -25 8q-49 16 -49 45q0 31 45.5 48.5t126.5 17.5h651q108 0 181 18q8 2 9 2q33 0 54.5 -62t21.5 -163
q0 -48 -13 -69t-42 -21q-35 0 -70 63q-17 31 -28 47q-23 34 -71 52t-114 18h-268q-94 0 -124 -15.5t-46 -70.5q-8 -33 -17.5 -85.5t-17.5 -112.5q-12 -93 -18 -143t-6 -62q0 -27 14 -36t61 -9h181q83 0 116 13.5t54 45.5q10 16 30.5 88t63.5 72q25 0 36 -18.5t11 -61.5
q0 -103 -16.5 -208.5t-47.5 -201.5q-11 -35 -25.5 -49t-39.5 -14q-23 0 -34 16t-11 49v62q0 47 -27.5 69.5t-85.5 22.5h-239q-41 0 -54.5 -9t-21.5 -42q-4 -20 -20 -155l-1 -7q-3 -34 -10 -95q-20 -185 -20 -214q0 -53 28 -70.5t117 -17.5h268q72 0 128 20.5t93 61.5
q35 37 73 117.5t73 80.5q24 0 37.5 -19.5t13.5 -53.5q0 -48 -26 -127.5t-68 -153.5q-20 -34 -40 -52t-38 -18q-10 0 -54 12.5t-79 12.5h-711zM631 1663l-4 -2q-62 -33 -78 -33t-31.5 18t-15.5 34q0 9 6 18t16 16l314 224q5 3 12 8q24 18 41 18q27 0 54.5 -28t27.5 -58
q0 -14 -11.5 -27t-37.5 -28z" />
    <glyph glyph-name="Ntilde" unicode="&#xd1;" horiz-adv-x="1526" 
d="M375 1221q-60 -398 -96.5 -687t-36.5 -350q0 -29 10 -43.5t36 -23.5q10 -4 27 -9q50 -16 50 -40q0 -39 -62 -57.5t-188 -18.5q-88 0 -128 13.5t-40 43.5q0 25 32.5 47.5t63.5 22.5q29 0 52 45t38 131q58 349 90.5 614t32.5 381q0 31 -9.5 48.5t-31.5 25.5q-9 3 -26 8
q-66 21 -66 51q0 35 54 54.5t151 19.5q41 0 63 -9.5t45 -35.5q19 -21 87 -146q38 -69 61 -110q189 -335 343 -582t228 -335q57 407 92 691t35 337q0 30 -10 44.5t-35 22.5q-10 4 -26 9q-50 16 -50 40q0 38 61.5 56t188.5 18q89 0 127.5 -13t38.5 -42q0 -36 -56 -55
q-26 -8 -38 -15q-40 -22 -57 -50.5t-31 -123.5l-78 -506q-41 -270 -77 -556q-9 -72 -11 -82q-8 -41 -19.5 -54.5t-33.5 -13.5q-52 0 -234 287q-8 13 -12 20q-226 352 -372 596.5t-183 331.5zM968 1694q-42 0 -121.5 23.5t-113.5 23.5q-35 0 -57.5 -35t-41.5 -35q-16 0 -27 8
t-11 19q0 54 52.5 110t119.5 56q34 0 109 -23.5t116 -23.5q44 0 66.5 34.5t35.5 34.5q28 0 35.5 -5.5t7.5 -20.5q0 -60 -51 -113t-119 -53z" />
    <glyph glyph-name="Odieresis" unicode="&#xd6;" horiz-adv-x="1593" 
d="M856 1407q-132 0 -246 -64.5t-188 -181.5q-73 -113 -111.5 -252.5t-38.5 -292.5q0 -250 122.5 -398t328.5 -148q110 0 206.5 46t186.5 140q91 96 146 252.5t55 325.5q0 268 -122.5 420.5t-338.5 152.5zM1520 846q0 -194 -67 -357.5t-202 -302.5q-104 -105 -247 -165
t-291 -60q-139 0 -253 46t-202 136q-86 88 -136 223.5t-50 282.5q0 206 82 384t237 306q106 88 237.5 133.5t278.5 45.5q275 0 444 -185t169 -487zM654 1774q0 45 30 75.5t74 30.5t73.5 -27.5t29.5 -68.5q0 -40 -32 -71t-75 -31q-42 0 -71 27t-29 65zM975 1774
q0 45 30.5 75.5t74.5 30.5q43 0 72.5 -27.5t29.5 -68.5q0 -40 -32 -71t-74 -31t-71.5 27t-29.5 65z" />
    <glyph glyph-name="Udieresis" unicode="&#xdc;" horiz-adv-x="1470" 
d="M610 1442q0 -35 -55 -55.5t-72 -45.5q-8 -14 -17.5 -52.5t-23.5 -114.5q-52 -293 -78 -481.5t-26 -278.5q0 -172 79 -257t238 -85q172 0 282.5 90.5t156.5 269.5q32 122 80 521q11 98 18 151q10 76 15 129.5t5 73.5q0 28 -10.5 42.5t-37.5 24.5q-11 4 -27 9
q-52 16 -52 40q0 38 64.5 57t193.5 19q91 0 133 -13.5t42 -43.5q0 -38 -78 -63l-15 -5q-35 -12 -55.5 -38t-30.5 -72q-9 -49 -24.5 -149t-32.5 -226q-7 -51 -19 -140q-40 -305 -63 -372q-77 -221 -217.5 -318.5t-380.5 -97.5q-212 0 -321 104.5t-109 307.5q0 87 40 390
q21 158 32 249q16 139 23 209t7 86q0 30 -9.5 44.5t-35.5 22.5q-9 4 -26 9q-49 16 -49 40q0 39 65.5 58.5t196.5 19.5q103 0 148.5 -14t45.5 -45zM623 1774q0 45 30 75.5t74 30.5t73.5 -27.5t29.5 -68.5q0 -40 -32 -71t-75 -31q-42 0 -71 27t-29 65zM944 1774
q0 45 30.5 75.5t74.5 30.5q43 0 72.5 -27.5t29.5 -68.5q0 -40 -32 -71t-74 -31t-71.5 27t-29.5 65z" />
    <glyph glyph-name="aacute" unicode="&#xe1;" horiz-adv-x="1100" 
d="M408 106q65 0 132 37t119 101q66 80 104 201t38 253q0 118 -54 185t-147 67q-65 0 -126.5 -37.5t-113.5 -109.5q-66 -92 -104.5 -212t-38.5 -239q0 -120 49 -183t142 -63zM741 198q-114 -119 -208 -173t-187 -54q-141 0 -222 97t-81 268q0 118 33 229.5t96 208.5
q82 126 200 200.5t236 74.5q95 0 198 -66q28 -18 36 -18q11 0 18.5 3t16.5 11l67 65q22 20 31.5 25.5t17.5 5.5q12 0 20.5 -9t8.5 -24q0 -20 -23.5 -136t-37.5 -212q-25 -162 -39.5 -299t-14.5 -196q0 -39 9.5 -51.5t35.5 -12.5q10 0 27 2t25 2q20 0 30 -7.5t10 -22.5
q0 -35 -71.5 -81t-132.5 -46q-53 0 -74 42.5t-25 173.5zM549 1204l-4 -2q-62 -33 -78 -33t-31.5 18t-15.5 34q0 9 6 18t16 16l314 224q5 3 12 8q24 18 41 18q27 0 54.5 -28t27.5 -58q0 -14 -11.5 -27t-37.5 -28z" />
    <glyph glyph-name="agrave" unicode="&#xe0;" horiz-adv-x="1100" 
d="M408 106q65 0 132 37t119 101q66 80 104 201t38 253q0 118 -54 185t-147 67q-65 0 -126.5 -37.5t-113.5 -109.5q-66 -92 -104.5 -212t-38.5 -239q0 -120 49 -183t142 -63zM741 198q-114 -119 -208 -173t-187 -54q-141 0 -222 97t-81 268q0 118 33 229.5t96 208.5
q82 126 200 200.5t236 74.5q95 0 198 -66q28 -18 36 -18q11 0 18.5 3t16.5 11l67 65q22 20 31.5 25.5t17.5 5.5q12 0 20.5 -9t8.5 -24q0 -20 -23.5 -136t-37.5 -212q-25 -162 -39.5 -299t-14.5 -196q0 -39 9.5 -51.5t35.5 -12.5q10 0 27 2t25 2q20 0 30 -7.5t10 -22.5
q0 -35 -71.5 -81t-132.5 -46q-53 0 -74 42.5t-25 173.5zM680 1204l-293 160q-26 15 -37.5 28t-11.5 27q0 30 27.5 58t54.5 28q17 0 41 -18l12 -8l313 -223q12 -9 17.5 -17.5t5.5 -17.5q0 -16 -15 -34t-32 -18q-16 0 -78 33q-3 2 -4 2z" />
    <glyph glyph-name="acircumflex" unicode="&#xe2;" horiz-adv-x="1100" 
d="M408 106q65 0 132 37t119 101q66 80 104 201t38 253q0 118 -54 185t-147 67q-65 0 -126.5 -37.5t-113.5 -109.5q-66 -92 -104.5 -212t-38.5 -239q0 -120 49 -183t142 -63zM741 198q-114 -119 -208 -173t-187 -54q-141 0 -222 97t-81 268q0 118 33 229.5t96 208.5
q82 126 200 200.5t236 74.5q95 0 198 -66q28 -18 36 -18q11 0 18.5 3t16.5 11l67 65q22 20 31.5 25.5t17.5 5.5q12 0 20.5 -9t8.5 -24q0 -20 -23.5 -136t-37.5 -212q-25 -162 -39.5 -299t-14.5 -196q0 -39 9.5 -51.5t35.5 -12.5q10 0 27 2t25 2q20 0 30 -7.5t10 -22.5
q0 -35 -71.5 -81t-132.5 -46q-53 0 -74 42.5t-25 173.5zM674 1393q-45 -45 -110 -118q-97 -110 -142 -110q-20 0 -31.5 6.5t-11.5 16.5t54.5 91t132.5 180l4 5q39 49 112 49q48 0 66 -7t35 -42l104 -229q4 -10 11 -25q10 -21 10 -24q0 -12 -12 -16.5t-50 -4.5q-31 0 -90 99
q-46 78 -82 129z" />
    <glyph glyph-name="adieresis" unicode="&#xe4;" horiz-adv-x="1100" 
d="M408 106q65 0 132 37t119 101q66 80 104 201t38 253q0 118 -54 185t-147 67q-65 0 -126.5 -37.5t-113.5 -109.5q-66 -92 -104.5 -212t-38.5 -239q0 -120 49 -183t142 -63zM741 198q-114 -119 -208 -173t-187 -54q-141 0 -222 97t-81 268q0 118 33 229.5t96 208.5
q82 126 200 200.5t236 74.5q95 0 198 -66q28 -18 36 -18q11 0 18.5 3t16.5 11l67 65q22 20 31.5 25.5t17.5 5.5q12 0 20.5 -9t8.5 -24q0 -20 -23.5 -136t-37.5 -212q-25 -162 -39.5 -299t-14.5 -196q0 -39 9.5 -51.5t35.5 -12.5q10 0 27 2t25 2q20 0 30 -7.5t10 -22.5
q0 -35 -71.5 -81t-132.5 -46q-53 0 -74 42.5t-25 173.5zM402 1315q0 45 30 75.5t74 30.5t73.5 -27.5t29.5 -68.5q0 -40 -32 -71t-75 -31q-42 0 -71 27t-29 65zM723 1315q0 45 30.5 75.5t74.5 30.5q43 0 72.5 -27.5t29.5 -68.5q0 -40 -32 -71t-74 -31t-71.5 27t-29.5 65z" />
    <glyph glyph-name="atilde" unicode="&#xe3;" horiz-adv-x="1100" 
d="M408 106q65 0 132 37t119 101q66 80 104 201t38 253q0 118 -54 185t-147 67q-65 0 -126.5 -37.5t-113.5 -109.5q-66 -92 -104.5 -212t-38.5 -239q0 -120 49 -183t142 -63zM741 198q-114 -119 -208 -173t-187 -54q-141 0 -222 97t-81 268q0 118 33 229.5t96 208.5
q82 126 200 200.5t236 74.5q95 0 198 -66q28 -18 36 -18q11 0 18.5 3t16.5 11l67 65q22 20 31.5 25.5t17.5 5.5q12 0 20.5 -9t8.5 -24q0 -20 -23.5 -136t-37.5 -212q-25 -162 -39.5 -299t-14.5 -196q0 -39 9.5 -51.5t35.5 -12.5q10 0 27 2t25 2q20 0 30 -7.5t10 -22.5
q0 -35 -71.5 -81t-132.5 -46q-53 0 -74 42.5t-25 173.5zM766 1235q-42 0 -121.5 23.5t-113.5 23.5q-35 0 -57.5 -35t-41.5 -35q-16 0 -27 8t-11 19q0 54 52.5 110t119.5 56q34 0 109 -23.5t116 -23.5q44 0 66.5 34.5t35.5 34.5q28 0 35.5 -5.5t7.5 -20.5q0 -60 -51 -113
t-119 -53z" />
    <glyph glyph-name="aring" unicode="&#xe5;" horiz-adv-x="1100" 
d="M543 1364q0 -63 43 -106.5t106 -43.5q62 0 106 44t44 106t-44 105.5t-106 43.5q-63 0 -106 -43t-43 -106zM444 1366q0 104 71.5 175t176.5 71t176.5 -71t71.5 -175q0 -105 -72 -177.5t-176 -72.5t-176 72.5t-72 177.5zM741 198q-114 -119 -208 -173t-187 -54
q-141 0 -222 97t-81 268q0 118 33 229.5t96 208.5q82 126 200 200.5t236 74.5q95 0 198 -66q28 -18 36 -18q11 0 18.5 3t16.5 11l67 65q22 20 31.5 25.5t17.5 5.5q12 0 20.5 -9t8.5 -24q0 -20 -23.5 -136t-37.5 -212q-25 -162 -39.5 -299t-14.5 -196q0 -39 9.5 -51.5
t35.5 -12.5q10 0 27 2t25 2q20 0 30 -7.5t10 -22.5q0 -35 -71.5 -81t-132.5 -46q-53 0 -74 42.5t-25 173.5zM408 106q65 0 132 37t119 101q66 80 104 201t38 253q0 118 -54 185t-147 67q-65 0 -126.5 -37.5t-113.5 -109.5q-66 -92 -104.5 -212t-38.5 -239q0 -120 49 -183
t142 -63z" />
    <glyph glyph-name="ccedilla" unicode="&#xe7;" horiz-adv-x="924" 
d="M569 961q-151 0 -259.5 -156t-108.5 -383q0 -152 76 -247t196 -95q56 0 107.5 21.5t123.5 80.5q4 3 9 8q45 39 69 39q16 0 26.5 -12t10.5 -31t-14.5 -40t-42.5 -44q-83 -66 -162 -97.5t-166 -31.5q-181 0 -291 114.5t-110 303.5q0 150 56 279.5t165 232.5
q77 73 166 111.5t180 38.5q120 0 196 -61t76 -154q0 -58 -28 -91.5t-76 -33.5q-46 0 -70 28.5t-24 83.5q0 3 1 17t1 24q0 47 -27 71t-80 24zM432 0q-12 -35 -20.5 -61t-13.5 -45h18q112 0 163.5 -40.5t51.5 -127.5q0 -91 -66.5 -143t-185.5 -52q-122 0 -190 22t-68 62
q0 19 13 32t34 13q9 0 78 -16.5t129 -16.5q59 0 91 27.5t32 77.5q0 38 -23 55t-103 27q-15 2 -35 2q-27 1 -28 16q0 14 14 61t38 107h71z" />
    <glyph glyph-name="eacute" unicode="&#xe9;" horiz-adv-x="924" 
d="M205 420q0 -153 74 -246.5t194 -93.5q56 0 107.5 21.5t123.5 80.5q4 3 9 8q45 39 69 39q16 0 26.5 -12t10.5 -31t-14.5 -40t-42.5 -44q-83 -66 -162 -97.5t-166 -31.5q-181 0 -291 114.5t-110 303.5q0 151 58 283t171 237q73 69 164 105.5t188 36.5q116 0 184 -63
t68 -169q0 -163 -181.5 -275t-479.5 -126zM207 510q228 10 357.5 93t129.5 216q0 65 -33.5 104.5t-87.5 39.5q-134 0 -238.5 -127t-127.5 -326zM497 1204l-4 -2q-62 -33 -78 -33t-31.5 18t-15.5 34q0 9 6 18t16 16l314 224q5 3 12 8q24 18 41 18q27 0 54.5 -28t27.5 -58
q0 -14 -11.5 -27t-37.5 -28z" />
    <glyph glyph-name="egrave" unicode="&#xe8;" horiz-adv-x="924" 
d="M205 420q0 -153 74 -246.5t194 -93.5q56 0 107.5 21.5t123.5 80.5q4 3 9 8q45 39 69 39q16 0 26.5 -12t10.5 -31t-14.5 -40t-42.5 -44q-83 -66 -162 -97.5t-166 -31.5q-181 0 -291 114.5t-110 303.5q0 151 58 283t171 237q73 69 164 105.5t188 36.5q116 0 184 -63
t68 -169q0 -163 -181.5 -275t-479.5 -126zM207 510q228 10 357.5 93t129.5 216q0 65 -33.5 104.5t-87.5 39.5q-134 0 -238.5 -127t-127.5 -326zM628 1204l-293 160q-26 15 -37.5 28t-11.5 27q0 30 27.5 58t54.5 28q17 0 41 -18l12 -8l313 -223q12 -9 17.5 -17.5t5.5 -17.5
q0 -16 -15 -34t-32 -18q-16 0 -78 33q-3 2 -4 2z" />
    <glyph glyph-name="ecircumflex" unicode="&#xea;" horiz-adv-x="924" 
d="M205 420q0 -153 74 -246.5t194 -93.5q56 0 107.5 21.5t123.5 80.5q4 3 9 8q45 39 69 39q16 0 26.5 -12t10.5 -31t-14.5 -40t-42.5 -44q-83 -66 -162 -97.5t-166 -31.5q-181 0 -291 114.5t-110 303.5q0 151 58 283t171 237q73 69 164 105.5t188 36.5q116 0 184 -63
t68 -169q0 -163 -181.5 -275t-479.5 -126zM207 510q228 10 357.5 93t129.5 216q0 65 -33.5 104.5t-87.5 39.5q-134 0 -238.5 -127t-127.5 -326zM622 1393q-45 -45 -110 -118q-97 -110 -142 -110q-20 0 -31.5 6.5t-11.5 16.5t54.5 91t132.5 180l4 5q39 49 112 49q48 0 66 -7
t35 -42l104 -229q4 -10 11 -25q10 -21 10 -24q0 -12 -12 -16.5t-50 -4.5q-31 0 -90 99q-46 78 -82 129z" />
    <glyph glyph-name="edieresis" unicode="&#xeb;" horiz-adv-x="924" 
d="M205 420q0 -153 74 -246.5t194 -93.5q56 0 107.5 21.5t123.5 80.5q4 3 9 8q45 39 69 39q16 0 26.5 -12t10.5 -31t-14.5 -40t-42.5 -44q-83 -66 -162 -97.5t-166 -31.5q-181 0 -291 114.5t-110 303.5q0 151 58 283t171 237q73 69 164 105.5t188 36.5q116 0 184 -63
t68 -169q0 -163 -181.5 -275t-479.5 -126zM207 510q228 10 357.5 93t129.5 216q0 65 -33.5 104.5t-87.5 39.5q-134 0 -238.5 -127t-127.5 -326zM350 1315q0 45 30 75.5t74 30.5t73.5 -27.5t29.5 -68.5q0 -40 -32 -71t-75 -31q-42 0 -71 27t-29 65zM671 1315q0 45 30.5 75.5
t74.5 30.5q43 0 72.5 -27.5t29.5 -68.5q0 -40 -32 -71t-74 -31t-71.5 27t-29.5 65z" />
    <glyph glyph-name="iacute" unicode="&#xed;" horiz-adv-x="498" 
d="M80 43q0 12 16.5 108.5t28.5 178.5q27 179 40 295t13 178v16q0 39 -7 50.5t-26 15.5q-10 2 -27 5q-59 9 -59 42q0 22 23 39.5t82 38.5q51 18 97.5 28.5t74.5 10.5q17 0 26 -12.5t9 -35.5q0 -12 -15.5 -98t-25.5 -155q-29 -196 -48.5 -359t-19.5 -190q0 -43 10 -57.5
t37 -14.5q8 0 27 3t31 3q13 0 22.5 -9.5t9.5 -23.5q0 -39 -79.5 -74.5t-176.5 -35.5q-32 0 -47.5 13t-15.5 40zM215 1204l-4 -2q-62 -33 -78 -33t-31.5 18t-15.5 34q0 9 6 18t16 16l314 224q5 3 12 8q24 18 41 18q27 0 54.5 -28t27.5 -58q0 -14 -11.5 -27t-37.5 -28z" />
    <glyph glyph-name="igrave" unicode="&#xec;" horiz-adv-x="498" 
d="M80 43q0 12 16.5 108.5t28.5 178.5q27 179 40 295t13 178v16q0 39 -7 50.5t-26 15.5q-10 2 -27 5q-59 9 -59 42q0 22 23 39.5t82 38.5q51 18 97.5 28.5t74.5 10.5q17 0 26 -12.5t9 -35.5q0 -12 -15.5 -98t-25.5 -155q-29 -196 -48.5 -359t-19.5 -190q0 -43 10 -57.5
t37 -14.5q8 0 27 3t31 3q13 0 22.5 -9.5t9.5 -23.5q0 -39 -79.5 -74.5t-176.5 -35.5q-32 0 -47.5 13t-15.5 40zM346 1204l-293 160q-26 15 -37.5 28t-11.5 27q0 30 27.5 58t54.5 28q17 0 41 -18l12 -8l313 -223q12 -9 17.5 -17.5t5.5 -17.5q0 -16 -15 -34t-32 -18
q-16 0 -78 33q-3 2 -4 2z" />
    <glyph glyph-name="icircumflex" unicode="&#xee;" horiz-adv-x="498" 
d="M80 43q0 12 16.5 108.5t28.5 178.5q27 179 40 295t13 178v16q0 39 -7 50.5t-26 15.5q-10 2 -27 5q-59 9 -59 42q0 22 23 39.5t82 38.5q51 18 97.5 28.5t74.5 10.5q17 0 26 -12.5t9 -35.5q0 -12 -15.5 -98t-25.5 -155q-29 -196 -48.5 -359t-19.5 -190q0 -43 10 -57.5
t37 -14.5q8 0 27 3t31 3q13 0 22.5 -9.5t9.5 -23.5q0 -39 -79.5 -74.5t-176.5 -35.5q-32 0 -47.5 13t-15.5 40zM340 1393q-45 -45 -110 -118q-97 -110 -142 -110q-20 0 -31.5 6.5t-11.5 16.5t54.5 91t132.5 180l4 5q39 49 112 49q48 0 66 -7t35 -42l104 -229q4 -10 11 -25
q10 -21 10 -24q0 -12 -12 -16.5t-50 -4.5q-31 0 -90 99q-46 78 -82 129z" />
    <glyph glyph-name="idieresis" unicode="&#xef;" horiz-adv-x="498" 
d="M80 43q0 12 16.5 108.5t28.5 178.5q27 179 40 295t13 178v16q0 39 -7 50.5t-26 15.5q-10 2 -27 5q-59 9 -59 42q0 22 23 39.5t82 38.5q51 18 97.5 28.5t74.5 10.5q17 0 26 -12.5t9 -35.5q0 -12 -15.5 -98t-25.5 -155q-29 -196 -48.5 -359t-19.5 -190q0 -43 10 -57.5
t37 -14.5q8 0 27 3t31 3q13 0 22.5 -9.5t9.5 -23.5q0 -39 -79.5 -74.5t-176.5 -35.5q-32 0 -47.5 13t-15.5 40zM68 1315q0 45 30 75.5t74 30.5t73.5 -27.5t29.5 -68.5q0 -40 -32 -71t-75 -31q-42 0 -71 27t-29 65zM389 1315q0 45 30.5 75.5t74.5 30.5q43 0 72.5 -27.5
t29.5 -68.5q0 -40 -32 -71t-74 -31t-71.5 27t-29.5 65z" />
    <glyph glyph-name="ntilde" unicode="&#xf1;" horiz-adv-x="1139" 
d="M340 930v-82q0 -12 1 -15t5 -4q7 0 50 40t79 69q70 55 141 85t132 30q119 0 181 -68t62 -199q0 -127 -31.5 -330t-31.5 -274q0 -32 6.5 -43.5t23.5 -11.5q10 0 31 3t33 3q20 0 31.5 -8t11.5 -23q0 -41 -79.5 -76.5t-178.5 -35.5q-33 0 -48.5 13t-15.5 40q0 38 45.5 279
t45.5 428q0 82 -33.5 123.5t-100.5 41.5q-59 0 -116 -25t-119 -79q-86 -75 -129.5 -165t-67.5 -288q-8 -66 -18 -171q-14 -146 -31 -164q-10 -10 -51.5 -21.5t-81.5 -11.5q-15 0 -23 6t-8 18q0 6 15 74.5t26 130.5q37 206 58.5 368t21.5 224q0 38 -6.5 57t-20.5 21
q-15 2 -41 3q-61 4 -61 34q0 19 19 35t61 34q54 24 98 36.5t70 12.5t35.5 -20t9.5 -94zM751 1235q-42 0 -121.5 23.5t-113.5 23.5q-35 0 -57.5 -35t-41.5 -35q-16 0 -27 8t-11 19q0 54 52.5 110t119.5 56q34 0 109 -23.5t116 -23.5q44 0 66.5 34.5t35.5 34.5q28 0 35.5 -5.5
t7.5 -20.5q0 -60 -51 -113t-119 -53z" />
    <glyph glyph-name="oacute" unicode="&#xf3;" horiz-adv-x="1081" 
d="M575 961q-152 0 -257 -159.5t-105 -400.5q0 -156 69 -245.5t189 -89.5q60 0 113.5 25t93.5 73q71 81 110 199.5t39 248.5q0 166 -66 257.5t-186 91.5zM39 422q0 124 43 241t123 207q79 90 176.5 137.5t204.5 47.5q187 0 300 -121t113 -322q0 -124 -42 -240t-121 -212
q-74 -91 -172.5 -140t-204.5 -49q-196 0 -308 120.5t-112 330.5zM506 1204l-4 -2q-62 -33 -78 -33t-31.5 18t-15.5 34q0 9 6 18t16 16l314 224q5 3 12 8q24 18 41 18q27 0 54.5 -28t27.5 -58q0 -14 -11.5 -27t-37.5 -28z" />
    <glyph glyph-name="ograve" unicode="&#xf2;" horiz-adv-x="1081" 
d="M575 961q-152 0 -257 -159.5t-105 -400.5q0 -156 69 -245.5t189 -89.5q60 0 113.5 25t93.5 73q71 81 110 199.5t39 248.5q0 166 -66 257.5t-186 91.5zM39 422q0 124 43 241t123 207q79 90 176.5 137.5t204.5 47.5q187 0 300 -121t113 -322q0 -124 -42 -240t-121 -212
q-74 -91 -172.5 -140t-204.5 -49q-196 0 -308 120.5t-112 330.5zM637 1204l-293 160q-26 15 -37.5 28t-11.5 27q0 30 27.5 58t54.5 28q17 0 41 -18l12 -8l313 -223q12 -9 17.5 -17.5t5.5 -17.5q0 -16 -15 -34t-32 -18q-16 0 -78 33q-3 2 -4 2z" />
    <glyph glyph-name="ocircumflex" unicode="&#xf4;" horiz-adv-x="1081" 
d="M575 961q-152 0 -257 -159.5t-105 -400.5q0 -156 69 -245.5t189 -89.5q60 0 113.5 25t93.5 73q71 81 110 199.5t39 248.5q0 166 -66 257.5t-186 91.5zM39 422q0 124 43 241t123 207q79 90 176.5 137.5t204.5 47.5q187 0 300 -121t113 -322q0 -124 -42 -240t-121 -212
q-74 -91 -172.5 -140t-204.5 -49q-196 0 -308 120.5t-112 330.5zM631 1393q-45 -45 -110 -118q-97 -110 -142 -110q-20 0 -31.5 6.5t-11.5 16.5t54.5 91t132.5 180l4 5q39 49 112 49q48 0 66 -7t35 -42l104 -229q4 -10 11 -25q10 -21 10 -24q0 -12 -12 -16.5t-50 -4.5
q-31 0 -90 99q-46 78 -82 129z" />
    <glyph glyph-name="odieresis" unicode="&#xf6;" horiz-adv-x="1081" 
d="M575 961q-152 0 -257 -159.5t-105 -400.5q0 -156 69 -245.5t189 -89.5q60 0 113.5 25t93.5 73q71 81 110 199.5t39 248.5q0 166 -66 257.5t-186 91.5zM39 422q0 124 43 241t123 207q79 90 176.5 137.5t204.5 47.5q187 0 300 -121t113 -322q0 -124 -42 -240t-121 -212
q-74 -91 -172.5 -140t-204.5 -49q-196 0 -308 120.5t-112 330.5zM359 1315q0 45 30 75.5t74 30.5t73.5 -27.5t29.5 -68.5q0 -40 -32 -71t-75 -31q-42 0 -71 27t-29 65zM680 1315q0 45 30.5 75.5t74.5 30.5q43 0 72.5 -27.5t29.5 -68.5q0 -40 -32 -71t-74 -31t-71.5 27
t-29.5 65z" />
    <glyph glyph-name="otilde" unicode="&#xf5;" horiz-adv-x="1081" 
d="M575 961q-152 0 -257 -159.5t-105 -400.5q0 -156 69 -245.5t189 -89.5q60 0 113.5 25t93.5 73q71 81 110 199.5t39 248.5q0 166 -66 257.5t-186 91.5zM39 422q0 124 43 241t123 207q79 90 176.5 137.5t204.5 47.5q187 0 300 -121t113 -322q0 -124 -42 -240t-121 -212
q-74 -91 -172.5 -140t-204.5 -49q-196 0 -308 120.5t-112 330.5zM723 1235q-42 0 -121.5 23.5t-113.5 23.5q-35 0 -57.5 -35t-41.5 -35q-16 0 -27 8t-11 19q0 54 52.5 110t119.5 56q34 0 109 -23.5t116 -23.5q44 0 66.5 34.5t35.5 34.5q28 0 35.5 -5.5t7.5 -20.5
q0 -60 -51 -113t-119 -53z" />
    <glyph glyph-name="uacute" unicode="&#xfa;" horiz-adv-x="1139" 
d="M756 106v58q0 28 -2 34.5t-6 6.5q-8 0 -50.5 -40t-79.5 -69q-67 -53 -139 -82.5t-133 -29.5q-120 0 -181 67t-61 199q0 116 29 308.5t29 264.5q0 37 -14 52.5t-50 17.5q-44 2 -55.5 9t-11.5 24q0 18 19.5 34t66.5 37q49 23 98 36.5t80 13.5q29 0 41 -13.5t12 -44.5
q0 -54 -43 -286.5t-43 -403.5q0 -91 33 -134.5t102 -43.5q57 0 115.5 26t118.5 78q86 76 129.5 168t66.5 285q9 67 19 172q13 145 31 164q10 10 50.5 21.5t80.5 11.5q15 0 22.5 -6.5t7.5 -18.5q0 -8 -14 -79.5t-25 -127.5q-37 -211 -59 -372t-22 -220q0 -36 7 -55t22 -21
q13 -2 38 -3q64 -5 64 -35q0 -18 -19 -33.5t-72 -38.5q-45 -19 -86 -30t-67 -11q-28 0 -38.5 20.5t-10.5 89.5zM534 1204l-4 -2q-62 -33 -78 -33t-31.5 18t-15.5 34q0 9 6 18t16 16l314 224q5 3 12 8q24 18 41 18q27 0 54.5 -28t27.5 -58q0 -14 -11.5 -27t-37.5 -28z" />
    <glyph glyph-name="ugrave" unicode="&#xf9;" horiz-adv-x="1139" 
d="M756 106v58q0 28 -2 34.5t-6 6.5q-8 0 -50.5 -40t-79.5 -69q-67 -53 -139 -82.5t-133 -29.5q-120 0 -181 67t-61 199q0 116 29 308.5t29 264.5q0 37 -14 52.5t-50 17.5q-44 2 -55.5 9t-11.5 24q0 18 19.5 34t66.5 37q49 23 98 36.5t80 13.5q29 0 41 -13.5t12 -44.5
q0 -54 -43 -286.5t-43 -403.5q0 -91 33 -134.5t102 -43.5q57 0 115.5 26t118.5 78q86 76 129.5 168t66.5 285q9 67 19 172q13 145 31 164q10 10 50.5 21.5t80.5 11.5q15 0 22.5 -6.5t7.5 -18.5q0 -8 -14 -79.5t-25 -127.5q-37 -211 -59 -372t-22 -220q0 -36 7 -55t22 -21
q13 -2 38 -3q64 -5 64 -35q0 -18 -19 -33.5t-72 -38.5q-45 -19 -86 -30t-67 -11q-28 0 -38.5 20.5t-10.5 89.5zM665 1204l-293 160q-26 15 -37.5 28t-11.5 27q0 30 27.5 58t54.5 28q17 0 41 -18l12 -8l313 -223q12 -9 17.5 -17.5t5.5 -17.5q0 -16 -15 -34t-32 -18
q-16 0 -78 33q-3 2 -4 2z" />
    <glyph glyph-name="ucircumflex" unicode="&#xfb;" horiz-adv-x="1139" 
d="M756 106v58q0 28 -2 34.5t-6 6.5q-8 0 -50.5 -40t-79.5 -69q-67 -53 -139 -82.5t-133 -29.5q-120 0 -181 67t-61 199q0 116 29 308.5t29 264.5q0 37 -14 52.5t-50 17.5q-44 2 -55.5 9t-11.5 24q0 18 19.5 34t66.5 37q49 23 98 36.5t80 13.5q29 0 41 -13.5t12 -44.5
q0 -54 -43 -286.5t-43 -403.5q0 -91 33 -134.5t102 -43.5q57 0 115.5 26t118.5 78q86 76 129.5 168t66.5 285q9 67 19 172q13 145 31 164q10 10 50.5 21.5t80.5 11.5q15 0 22.5 -6.5t7.5 -18.5q0 -8 -14 -79.5t-25 -127.5q-37 -211 -59 -372t-22 -220q0 -36 7 -55t22 -21
q13 -2 38 -3q64 -5 64 -35q0 -18 -19 -33.5t-72 -38.5q-45 -19 -86 -30t-67 -11q-28 0 -38.5 20.5t-10.5 89.5zM659 1393q-45 -45 -110 -118q-97 -110 -142 -110q-20 0 -31.5 6.5t-11.5 16.5t54.5 91t132.5 180l4 5q39 49 112 49q48 0 66 -7t35 -42l104 -229q4 -10 11 -25
q10 -21 10 -24q0 -12 -12 -16.5t-50 -4.5q-31 0 -90 99q-46 78 -82 129z" />
    <glyph glyph-name="udieresis" unicode="&#xfc;" horiz-adv-x="1139" 
d="M756 106v58q0 28 -2 34.5t-6 6.5q-8 0 -50.5 -40t-79.5 -69q-67 -53 -139 -82.5t-133 -29.5q-120 0 -181 67t-61 199q0 116 29 308.5t29 264.5q0 37 -14 52.5t-50 17.5q-44 2 -55.5 9t-11.5 24q0 18 19.5 34t66.5 37q49 23 98 36.5t80 13.5q29 0 41 -13.5t12 -44.5
q0 -54 -43 -286.5t-43 -403.5q0 -91 33 -134.5t102 -43.5q57 0 115.5 26t118.5 78q86 76 129.5 168t66.5 285q9 67 19 172q13 145 31 164q10 10 50.5 21.5t80.5 11.5q15 0 22.5 -6.5t7.5 -18.5q0 -8 -14 -79.5t-25 -127.5q-37 -211 -59 -372t-22 -220q0 -36 7 -55t22 -21
q13 -2 38 -3q64 -5 64 -35q0 -18 -19 -33.5t-72 -38.5q-45 -19 -86 -30t-67 -11q-28 0 -38.5 20.5t-10.5 89.5zM387 1315q0 45 30 75.5t74 30.5t73.5 -27.5t29.5 -68.5q0 -40 -32 -71t-75 -31q-42 0 -71 27t-29 65zM708 1315q0 45 30.5 75.5t74.5 30.5q43 0 72.5 -27.5
t29.5 -68.5q0 -40 -32 -71t-74 -31t-71.5 27t-29.5 65z" />
    <glyph glyph-name="dagger" unicode="&#x2020;" 
d="M342 -346q29 217 43 386t14 284q0 46 -5 104t-15 131q55 81 90.5 184.5t52.5 237.5q-70 -5 -179 -36.5t-155 -31.5t-69 18.5t-23 55.5q0 58 31.5 87.5t93.5 29.5q36 0 129 -28.5t156 -28.5h22q5 22 7 44.5t2 47.5q0 50 -12.5 133.5t-12.5 116.5q0 62 30 95.5t87 33.5
q39 0 62.5 -25.5t23.5 -69.5q0 -42 -51.5 -162t-67.5 -210h8q71 0 171.5 26.5t135.5 26.5q49 0 75 -23t26 -65q0 -49 -29.5 -76t-83.5 -27q-45 0 -146.5 36t-164.5 36q-7 -54 -11 -102.5t-4 -89.5q0 -57 11 -114t32 -118q-50 -100 -97.5 -299t-115.5 -608h-61z" />
    <glyph glyph-name="degree" unicode="&#xb0;" horiz-adv-x="674" 
d="M338 1372q-84 0 -143.5 -58.5t-59.5 -142.5t59.5 -143t143.5 -59t142.5 59t58.5 143t-58.5 142.5t-142.5 58.5zM338 1454q117 0 200 -83t83 -200q0 -116 -83.5 -199t-201.5 -83t-199.5 82t-81.5 200q0 119 82.5 201t200.5 82z" />
    <glyph glyph-name="cent" unicode="&#xa2;" horiz-adv-x="1090" 
d="M479 113l123 866q-151 -75 -235 -215t-84 -315q0 -134 50.5 -220.5t145.5 -115.5zM565 106q82 6 164 63.5t100 57.5q19 0 30 -11.5t11 -31.5q0 -57 -92 -114t-227 -74l-21 -143q0 -3 -1 -8q-4 -33 -42 -33q-25 0 -35 6.5t-10 23.5q0 2 1 8t1 11l19 139
q-161 18 -252.5 128t-91.5 284q0 225 134.5 403t358.5 248l17 111q4 27 15 38t34 11q22 0 30.5 -6t8.5 -21v-14l-17 -107h7q119 0 194.5 -63.5t75.5 -163.5q0 -50 -28.5 -81.5t-74.5 -31.5q-52 0 -74 34t-22 118q0 54 -18.5 74.5t-68.5 27.5z" />
    <glyph glyph-name="sterling" unicode="&#xa3;" horiz-adv-x="1090" 
d="M270 178q-29 37 -64.5 56.5t-74.5 19.5q-44 0 -75 -29.5t-31 -70.5q0 -43 21.5 -65.5t62.5 -22.5q42 0 83 28t78 84zM338 115q-53 -65 -114 -98t-128 -33q-74 0 -116.5 42t-42.5 115q0 84 65 144.5t158 60.5q40 0 84 -14.5t92 -42.5q22 42 33.5 90.5t11.5 103.5
q0 34 -3.5 68.5t-10.5 70.5l-185 1q-17 0 -26 6t-9 18v4l4 26q2 16 10.5 24t22.5 8h166q-16 59 -24.5 112.5t-8.5 100.5q0 181 110 290t290 109q143 0 225 -70t82 -192q0 -37 -10.5 -53.5t-34.5 -16.5q-32 0 -48 68q-6 25 -9 39q-14 51 -59.5 79.5t-112.5 28.5
q-125 0 -195 -75.5t-70 -210.5q0 -35 5.5 -88.5t15.5 -120.5h244q16 0 24 -6t8 -19v-4l-4 -29q-1 -14 -8.5 -21t-21.5 -7h-234v-15q0 -112 -24 -201t-74 -161q99 -71 188 -108.5t160 -37.5q70 0 117 36t71 108q1 2 3 7q19 56 46 56q20 0 27.5 -8.5t7.5 -34.5
q0 -116 -102 -204.5t-248 -88.5q-85 0 -163 31.5t-185 112.5z" />
    <glyph glyph-name="section" unicode="&#xa7;" 
d="M365 897q-75 53 -111.5 116t-36.5 142q0 148 123 255.5t297 107.5q160 0 259 -67t99 -173q0 -52 -31 -82.5t-85 -30.5q-47 0 -69 22t-34 97q-12 76 -50.5 108.5t-113.5 32.5q-103 0 -166 -56t-63 -148q0 -74 36.5 -126.5t115.5 -93.5l86 -43q149 -74 192 -106
q87 -66 121.5 -123.5t34.5 -130.5q0 -109 -75 -196t-222 -148q94 -63 137 -132.5t43 -158.5q0 -77 -39.5 -150.5t-110.5 -127.5q-72 -56 -160 -85.5t-182 -29.5q-144 0 -240.5 69.5t-96.5 167.5q0 53 30 84t82 31q47 0 70.5 -22.5t40.5 -104.5q15 -75 52 -104t114 -29
q118 0 195 69t77 175q0 140 -262 269l-64 32q-177 90 -243 166t-66 178q0 114 81.5 203.5t234.5 142.5zM576 299q112 31 169.5 93t57.5 153q0 80 -59 137t-304 168q-112 -31 -170.5 -94t-58.5 -154q0 -138 356 -299q6 -3 9 -4z" />
    <glyph glyph-name="bullet" unicode="&#x2022;" horiz-adv-x="1208" 
d="M307 762q0 123 87 209t210 86q122 0 208.5 -86.5t86.5 -208.5t-87.5 -209.5t-209.5 -87.5q-123 0 -209 87t-86 210z" />
    <glyph glyph-name="paragraph" unicode="&#xb6;" 
d="M948 1479v-78h-125v-1401h-94v1401h-182v-1401h-96v782q-173 8 -274 102.5t-101 245.5q0 157 107.5 253t285.5 96h479z" />
    <glyph glyph-name="germandbls" unicode="&#xdf;" horiz-adv-x="1020" 
d="M627 827q154 -30 224.5 -110t70.5 -223q0 -225 -133 -374t-328 -149q-58 0 -92.5 17.5t-34.5 46.5q0 22 14.5 34.5t42.5 12.5q3 0 24 -1t38 -1q137 0 221 113t84 299q0 97 -34.5 165t-96.5 95q-29 12 -83 22q-77 14 -77 49q0 37 75 51q57 11 87 25q86 40 128 116.5
t42 194.5q0 113 -45.5 175.5t-126.5 62.5q-55 0 -103 -36t-88 -105q-42 -74 -69 -195t-60 -424l-78 -740q-1 -11 -4 -33q-14 -123 -14 -159q0 -17 4 -41.5t4 -31.5q0 -37 -54.5 -61.5t-137.5 -24.5q-38 0 -55 9.5t-17 31.5q0 28 33.5 47t34.5 20q21 26 45.5 183t52.5 446
l39 393q28 298 66.5 425.5t109.5 215.5q58 72 137.5 111t167.5 39q151 0 236.5 -77t85.5 -212q0 -146 -89 -252.5t-247 -149.5z" />
    <glyph glyph-name="registered" unicode="&#xae;" horiz-adv-x="1683" 
d="M729 719q16 -1 32 -1.5t34 -0.5q112 0 173.5 45.5t61.5 128.5q0 73 -53 117.5t-143 44.5q-52 0 -78.5 -18.5t-26.5 -53.5v-262zM469 1092h393q147 0 232.5 -54.5t85.5 -146.5q0 -76 -69.5 -124t-217.5 -75q93 -29 142 -77.5t71 -133.5q6 -22 11 -63q13 -88 59 -88
q32 0 49.5 34t17.5 99h43v-12q0 -88 -40.5 -133.5t-119.5 -45.5q-46 0 -78.5 17t-48.5 49q-18 40 -21 113.5t-9 95.5q-20 68 -70.5 100.5t-136.5 32.5h-33v-248q0 -54 26.5 -75.5t98.5 -25.5v-40h-385v40q72 3 99.5 24.5t27.5 76.5v516q0 55 -26 76t-101 25v43zM844 1303
q-122 0 -236 -48t-202 -137t-134.5 -202.5t-46.5 -237.5q0 -127 46.5 -239t136.5 -201q88 -89 198.5 -135t235.5 -46q126 0 236.5 46t197.5 135q88 90 135 203t47 237t-47.5 241.5t-132.5 200.5q-86 87 -200.5 135t-233.5 48zM844 1382q138 0 268.5 -54t228.5 -152
q97 -97 150 -228t53 -272q0 -137 -55.5 -267.5t-157.5 -232.5q-99 -99 -224.5 -150t-270.5 -51q-137 0 -263 52.5t-227 152.5t-154 227t-53 271q0 140 53 268.5t152 229.5q98 99 228 152.5t272 53.5z" />
    <glyph glyph-name="copyright" unicode="&#xa9;" horiz-adv-x="1683" 
d="M1120 1096h35l2 -314h-41q-34 137 -104 206t-176 69q-123 0 -185.5 -94.5t-62.5 -278.5q0 -189 67 -285t199 -96q86 0 156 43t127 131l34 -24q-58 -105 -143 -157t-199 -52q-167 0 -285 123t-118 297q0 186 116 312t285 126q74 0 148 -34t82 -34q27 0 42 14.5t21 47.5z
M844 1303q-123 0 -237.5 -48.5t-200.5 -136.5q-88 -89 -134.5 -202.5t-46.5 -237.5q0 -125 47 -238.5t136 -201.5q88 -89 198.5 -135t235.5 -46q126 0 236.5 46t197.5 135q88 90 135 203t47 237t-47.5 240.5t-132.5 201.5q-86 87 -200.5 135t-233.5 48zM844 1382
q137 0 266.5 -53.5t226.5 -150.5q98 -97 152.5 -228.5t54.5 -271.5t-53 -268t-154 -230q-98 -100 -225 -152.5t-270 -52.5t-269 52.5t-227 152.5t-154 227t-53 271q0 140 53 268.5t152 229.5q98 99 228 152.5t272 53.5z" />
    <glyph glyph-name="trademark" unicode="&#x2122;" horiz-adv-x="1683" 
d="M788 1438h183l141 -400l148 400h174v-25l-30 -2q-22 -2 -34 -15.5t-12 -37.5v-373q0 -24 12 -37.5t34 -15.5l30 -2v-27h-236v27l31 2q21 2 33 16t12 37v395l-178 -479h-15l-174 479v-395q0 -23 12.5 -37t34.5 -16l31 -2v-27h-197v27l34 2q21 2 32.5 16t11.5 37v371
q0 23 -12.5 37t-34.5 16l-31 2v27zM256 1438h440l11 -178h-25q-8 79 -40.5 115t-96.5 36h-21v-426q0 -23 12 -37t33 -16l31 -2v-27h-248v27l31 2q21 1 33 15.5t12 37.5v426h-20q-64 0 -97 -36t-41 -115h-26z" />
    <glyph glyph-name="acute" unicode="&#xb4;" 
d="M477 1204l-4 -2q-62 -33 -78 -33t-31.5 18t-15.5 34q0 9 6 18t16 16l314 224q5 3 12 8q24 18 41 18q27 0 54.5 -28t27.5 -58q0 -14 -11.5 -27t-37.5 -28z" />
    <glyph glyph-name="dieresis" unicode="&#xa8;" 
d="M330 1315q0 45 30 75.5t74 30.5t73.5 -27.5t29.5 -68.5q0 -40 -32 -71t-75 -31q-42 0 -71 27t-29 65zM651 1315q0 45 30.5 75.5t74.5 30.5q43 0 72.5 -27.5t29.5 -68.5q0 -40 -32 -71t-74 -31t-71.5 27t-29.5 65z" />
    <glyph glyph-name="notequal" unicode="&#x2260;" horiz-adv-x="1706" 
d="M1210 1180l88 -70l-196 -250h350v-115h-424l-211 -270h635v-115h-709l-251 -319l-89 70l197 249h-346v115h420l211 270h-631v115h704z" />
    <glyph glyph-name="AE" unicode="&#xc6;" horiz-adv-x="2015" 
d="M897 0q-79 0 -111 12t-32 41q0 36 65 55q21 6 33 11q34 13 51 49.5t33 157.5l16 114q1 4 1.5 9t0.5 14q0 28 -20 37.5t-98 9.5h-306q-74 0 -112 -7t-53 -22q-93 -92 -142 -167t-49 -124q0 -26 13 -46t36 -29q9 -4 26 -10q48 -18 48 -46q0 -37 -57.5 -53t-194.5 -16
q-114 0 -163.5 15t-49.5 48q0 29 61 57q15 7 23 11q27 13 57.5 41t61.5 69l663 885q55 75 89 136.5t34 82.5q0 13 -11 24t-29 17q-9 3 -23 6q-60 16 -60 45q0 30 47 48t127 18h893q109 0 179 18q8 2 10 2q33 0 55.5 -62.5t22.5 -162.5q0 -47 -14 -68.5t-44 -21.5
q-34 0 -66 60q-18 33 -30 51q-22 33 -71 51t-115 18h-267q-95 0 -125.5 -16t-46.5 -70q-8 -33 -17 -85.5t-17 -112.5q-13 -93 -19 -143t-6 -62q0 -27 14.5 -36t61.5 -9h180q84 0 116.5 13.5t53.5 45.5q10 16 31 88t63 72q25 0 36 -18.5t11 -61.5q0 -103 -16 -208.5
t-47 -201.5q-12 -36 -26.5 -50.5t-39.5 -14.5q-23 0 -34 16.5t-11 50.5v62q0 47 -27.5 69.5t-84.5 22.5h-240q-40 0 -54 -9t-22 -42q-4 -20 -20 -155v-6q-4 -35 -11 -96q-20 -185 -20 -214q0 -53 28 -70.5t117 -17.5h271q71 0 126 20.5t93 61.5q34 37 72.5 117.5t72.5 80.5
q24 0 37.5 -19.5t13.5 -53.5q0 -48 -26 -127.5t-68 -153.5q-20 -34 -39.5 -52t-38.5 -18q-10 0 -53 12.5t-78 12.5h-739zM459 617q39 1 87.5 1h153.5h167t110 -1q37 229 58.5 413.5t21.5 269.5q0 30 -10 46t-29 16q-25 0 -67 -57l-5 -7z" />
    <glyph glyph-name="Oslash" unicode="&#xd8;" horiz-adv-x="1593" 
d="M102 -164q-24 -28 -41.5 -39.5t-33.5 -11.5q-19 0 -31 9.5t-12 23.5q0 11 7.5 26t22.5 33l232 279q-85 105 -129.5 231t-44.5 262q0 206 82 384t237 306q106 88 237.5 133.5t278.5 45.5q104 0 193.5 -28.5t173.5 -88.5l190 231q23 27 41 38t35 11q18 0 30.5 -9t12.5 -23
q0 -13 -7 -27.5t-22 -32.5l-208 -254q86 -89 130 -212.5t44 -276.5q0 -195 -66.5 -358t-202.5 -302q-104 -106 -246.5 -165.5t-291.5 -59.5q-117 0 -217 33t-181 98zM1231 1200l-823 -995q63 -68 141.5 -101.5t173.5 -33.5q110 0 206.5 46t186.5 140q91 96 146 250.5
t55 320.5q0 120 -22 214.5t-64 158.5zM350 285l821 995q-61 64 -138.5 95.5t-174.5 31.5q-255 0 -420.5 -221.5t-165.5 -567.5q0 -94 19.5 -176.5t58.5 -156.5z" />
    <glyph glyph-name="infinity" unicode="&#x221e;" horiz-adv-x="1706" 
d="M905 559q51 -95 119 -141.5t156 -46.5q102 0 168.5 71t66.5 181q0 108 -61 179.5t-152 71.5q-85 0 -153.5 -72.5t-143.5 -242.5zM803 666q-51 95 -119 142.5t-154 47.5q-105 0 -171 -71t-66 -183q0 -108 61 -179t152 -71q85 0 152 69t145 245zM866 494
q-71 -138 -148 -201.5t-173 -63.5q-134 0 -226 109t-92 272q0 172 82.5 277.5t214.5 105.5q97 0 172 -63t144 -203q67 138 146 204t175 66q134 0 226 -108.5t92 -272.5q0 -171 -82 -277t-213 -106q-96 0 -169 60t-149 201z" />
    <glyph glyph-name="plusminus" unicode="&#xb1;" horiz-adv-x="1706" 
d="M254 158h1198v-117h-1198v117zM795 1180h118v-344h539v-117h-539v-344h-118v344h-541v117h541v344z" />
    <glyph glyph-name="lessequal" unicode="&#x2264;" horiz-adv-x="1706" 
d="M262 150h1182v-117h-1182v117zM1444 1192v-125l-977 -324l977 -323v-125l-1182 399v101z" />
    <glyph glyph-name="greaterequal" unicode="&#x2265;" horiz-adv-x="1706" 
d="M262 150h1182v-117h-1182v117zM262 1192l1182 -397v-101l-1182 -399v125l979 323l-979 324v125z" />
    <glyph glyph-name="yen" unicode="&#xa5;" horiz-adv-x="1090" 
d="M807 1047q30 40 43.5 67.5t13.5 48.5q0 17 -32.5 35.5t-32.5 38.5q0 32 52 49t155 17q76 0 119.5 -16t43.5 -44q0 -29 -56 -46q-23 -7 -33 -11q-42 -17 -84 -58t-128 -159l-77 -107h182q28 0 42.5 -9.5t14.5 -27.5q0 -17 -15.5 -28t-41.5 -11h-238l-117 -151h322
q28 0 42.5 -9.5t14.5 -27.5t-15 -28.5t-42 -10.5h-332q-18 -137 -29.5 -244t-11.5 -143q0 -24 9 -36.5t30 -20.5q4 -2 12 -5q64 -25 64 -53q0 -32 -59.5 -48.5t-176.5 -16.5q-122 0 -171.5 13t-49.5 44q0 33 69 56q24 8 38 14q53 23 79 227q16 129 31 213h-323
q-28 0 -43 9.5t-15 27.5t15.5 28.5t42.5 10.5h325l-67 151h-223q-29 0 -43.5 9.5t-14.5 27.5t15.5 28.5t42.5 10.5h188l-35 80q-49 113 -82 168t-59 72q-10 6 -35 13q-53 14 -53 44q0 33 56 49.5t171 16.5q107 0 160 -15.5t53 -46.5q0 -15 -10.5 -26t-36.5 -21q-2 -1 -6 -2
q-66 -25 -66 -68q0 -8 6.5 -26t22.5 -56l143 -319z" />
    <glyph glyph-name="mu" unicode="&#xb5;" horiz-adv-x="1120" 
d="M164 193q-27 -136 -52 -339q-34 -272 -112 -272q-37 0 -58.5 23.5t-21.5 64.5q0 40 64.5 273.5t105.5 427.5l109 514h147l-104 -492q-6 -30 -9.5 -58.5t-3.5 -53.5q0 -83 42 -129t118 -46q98 0 163.5 68.5t94.5 200.5l111 510h149l-114 -531q-13 -59 -17 -87.5t-4 -49.5
q0 -48 26 -78t66 -30q35 0 65.5 18t51.5 51t41 93.5t39 60.5q12 0 19 -10t7 -27q0 -25 -11 -66.5t-29 -83.5q-38 -82 -95 -122.5t-135 -40.5q-68 0 -108.5 51t-40.5 139v23q-46 -110 -116 -164t-165 -54q-96 0 -152.5 54.5t-70.5 161.5z" />
    <glyph glyph-name="partialdiff" unicode="&#x2202;" horiz-adv-x="1044" 
d="M754 604q13 81 19.5 161.5t6.5 158.5q0 140 -39.5 216.5t-111.5 76.5q-53 0 -117 -63.5t-109 -63.5q-29 0 -51 21.5t-22 51.5q0 59 68 105.5t163 46.5q171 0 273 -152.5t102 -412.5q0 -335 -139 -555t-344 -220q-147 0 -241.5 106.5t-94.5 272.5q0 189 108.5 316
t266.5 127q99 0 162.5 -47t99.5 -146zM709 483q0 117 -45 180.5t-127 63.5q-113 0 -184.5 -127.5t-71.5 -333.5q0 -117 44 -178t128 -61q111 0 183.5 128t72.5 328z" />
    <glyph glyph-name="summation" unicode="&#x2211;" horiz-adv-x="1434" 
d="M12 1473h1135l98 -340h-74l-67 219q-8 27 -32 39t-73 12h-741l864 -850v-37l-858 -756h893q60 0 77.5 13t29.5 51l71 229h74l-135 -446h-1260v28l959 838l-961 950v50z" />
    <glyph glyph-name="product" unicode="&#x220f;" horiz-adv-x="1595" 
d="M57 1473h1479v-70h-186v-1727h186v-69h-555v69h197v1727h-762v-1727h196v-69h-555v69h187v1727h-187v70z" />
    <glyph glyph-name="pi" unicode="&#x3c0;" horiz-adv-x="1354" 
d="M1329 885l-35 -162h-329q-34 -179 -54 -452q-23 -314 -120 -314q-38 0 -58 24.5t-20 69.5q0 58 77 280.5t117 391.5h-375q-33 -177 -53 -448q-25 -318 -123 -318q-37 0 -57 25t-20 71q0 56 77.5 277t118.5 393h-133q-136 0 -180 -43.5t-72 -171.5h-59q37 207 117.5 292
t238.5 85h942z" />
    <glyph glyph-name="integral" unicode="&#x222b;" horiz-adv-x="1020" 
d="M301 -268q103 0 116 664q3 141 5 216q12 503 102 719.5t281 216.5q76 0 122 -39t46 -104q0 -48 -31 -77.5t-82 -29.5q-53 0 -85 35t-32 92q0 8 -6 15.5t-14 7.5q-105 0 -119 -634q-3 -157 -6 -245q-10 -308 -31.5 -461t-62.5 -247q-49 -114 -123 -173t-168 -59
q-73 0 -119.5 38t-46.5 97q0 53 31.5 84t83.5 31q47 0 79.5 -29t32.5 -67q0 -24 7.5 -37.5t19.5 -13.5z" />
    <glyph glyph-name="ordfeminine" unicode="&#xaa;" horiz-adv-x="825" 
d="M305 844q49 0 99.5 25.5t91.5 70.5q48 57 76 142t28 178q0 81 -40.5 128.5t-108.5 47.5q-49 0 -94.5 -26.5t-86.5 -78.5q-49 -63 -77.5 -147.5t-28.5 -167.5q0 -85 36 -128.5t105 -43.5zM557 909q-88 -84 -158 -121.5t-139 -37.5q-106 0 -166.5 68t-60.5 188
q0 83 24.5 161.5t71.5 145.5q61 87 150 138.5t178 51.5q70 0 147 -45q21 -12 27 -12q9 0 15 2t11 8l52 45q16 14 23 18.5t13 4.5q9 0 15 -7.5t6 -17.5q0 -13 -17.5 -94.5t-27.5 -149.5q-19 -113 -30 -209t-11 -137q0 -27 7 -36t28 -9q7 0 20 2t19 2q15 0 22.5 -5.5
t7.5 -16.5q0 -24 -54 -56t-99 -32q-41 0 -56.5 29.5t-17.5 121.5z" />
    <glyph glyph-name="ordmasculine" unicode="&#xba;" horiz-adv-x="811" 
d="M432 1442q-115 0 -193.5 -111.5t-78.5 -279.5q0 -110 52 -173t142 -63q45 0 85 18t69 52q53 56 83 138.5t30 174.5q0 117 -49.5 180.5t-139.5 63.5zM29 1065q0 87 32.5 169t92.5 146q59 63 132.5 96t153.5 33q140 0 225 -85t85 -226q0 -87 -32 -168.5t-91 -146.5
q-57 -64 -130.5 -98.5t-152.5 -34.5q-146 0 -230.5 84.5t-84.5 230.5z" />
    <glyph glyph-name="Omega" unicode="&#x3a9;" horiz-adv-x="1567" 
d="M1100 188v-26h313l66 203h61l-108 -365h-500q134 233 202 451t68 413q0 271 -107.5 416t-308.5 145t-309 -145t-108 -416q0 -195 68 -411t204 -453h-500l-110 365h61l68 -203h311v26q-165 203 -234 361.5t-69 327.5q0 272 174.5 446t443.5 174t443 -174.5t174 -445.5
q0 -169 -69 -327.5t-234 -361.5z" />
    <glyph glyph-name="ae" unicode="&#xe6;" horiz-adv-x="1645" 
d="M778 244q-98 -128 -217 -200.5t-227 -72.5q-132 0 -214.5 102.5t-82.5 268.5q0 146 49 284t137 238q80 90 175 139.5t188 49.5q91 0 201 -69q31 -19 38 -19q12 0 19.5 3t15.5 11l66 65q22 23 31.5 29t17.5 6q12 0 19 -12t7 -33q0 -9 -0.5 -15t-1.5 -10l-20 -100
q76 71 167 107.5t189 36.5q116 0 184 -63t68 -169q0 -162 -182 -274.5t-481 -126.5q0 -153 75 -246.5t195 -93.5q55 0 105 21t124 81l4 3q51 44 76 44q16 0 26.5 -12t10.5 -31t-14.5 -40t-42.5 -44q-84 -67 -164.5 -99t-167.5 -32q-137 0 -234 71t-139 202zM928 510
q227 10 357 93t130 216q0 63 -33 100t-88 37q-135 0 -239 -124t-127 -322zM403 109q63 0 130 36t124 101q58 64 91.5 178.5t33.5 251.5t-53 208.5t-156 71.5q-65 0 -124.5 -37t-110.5 -110q-64 -92 -98.5 -203t-34.5 -225q0 -129 52.5 -200.5t145.5 -71.5z" />
    <glyph glyph-name="oslash" unicode="&#xf8;" horiz-adv-x="1081" 
d="M827 981l82 110q3 4 9 13q20 29 40 29q14 0 23.5 -8t9.5 -19q0 -9 -5.5 -21.5t-16.5 -27.5l-88 -119q60 -62 89 -141.5t29 -182.5q0 -126 -41.5 -241.5t-121.5 -212.5q-76 -93 -175 -141t-212 -48q-60 0 -114.5 14.5t-109.5 45.5l-92 -125q-3 -4 -9 -13q-20 -28 -40 -28
q-14 0 -23.5 8t-9.5 18q0 9 6 21.5t17 28.5l98 131q-69 65 -101 149.5t-32 200.5q0 124 43 241t123 207q79 90 178 137.5t209 47.5q63 0 121 -18.5t114 -55.5zM791 813l-490 -678q35 -35 76.5 -52t91.5 -17q62 0 116 24.5t93 71.5q71 83 111 205t40 254q0 44 -9.5 92
t-28.5 100zM258 197l496 684q-38 40 -81.5 60t-94.5 20q-153 0 -259 -160t-106 -398q0 -52 11 -103.5t34 -102.5z" />
    <glyph glyph-name="questiondown" unicode="&#xbf;" horiz-adv-x="854" 
d="M635 1405q0 -48 -32 -81.5t-79 -33.5t-80.5 33.5t-33.5 81.5q0 47 33 80t81 33t79.5 -32.5t31.5 -80.5zM545 995q0 -113 -36.5 -210t-123.5 -207l-15 -20q-161 -205 -161 -331q0 -82 42.5 -126t121.5 -44q76 0 135.5 47.5t93.5 135.5q6 14 15 39q31 90 83 90
q33 0 50.5 -20t17.5 -56q0 -41 -28 -94t-74 -99q-67 -65 -143 -97t-165 -32q-145 0 -231 77.5t-86 207.5q0 53 17 105t55 112q27 44 120 134l17 16q16 16 45 43q61 59 76 84q41 67 64 196q5 28 7 41q9 40 21.5 55t34.5 15q23 0 35 -15.5t12 -46.5z" />
    <glyph glyph-name="exclamdown" unicode="&#xa1;" horiz-adv-x="616" 
d="M512 1403q0 -48 -32.5 -80.5t-80.5 -32.5q-47 0 -79.5 32.5t-32.5 80.5q0 47 32.5 80t79.5 33q48 0 80.5 -33t32.5 -80zM358 1057q19 0 26 -29t7 -119q0 -70 -27 -454l-4 -56q-5 -81 -15.5 -158t-25.5 -151q-13 -60 -37 -89.5t-59 -29.5q-42 0 -64 32t-22 93
q0 70 36 273.5t95 455.5q34 141 52.5 186.5t37.5 45.5z" />
    <glyph glyph-name="logicalnot" unicode="&#xac;" horiz-adv-x="1706" 
d="M254 858h1198v-502h-115v385h-1083v117z" />
    <glyph glyph-name="radical" unicode="&#x221a;" horiz-adv-x="1288" 
d="M1106 1647h182v-82h-119l-594 -1606h-53l-323 893l-119 -43l-23 68l262 92l265 -729z" />
    <glyph glyph-name="florin" unicode="&#x192;" horiz-adv-x="1090" 
d="M471 817h-158q-16 0 -22 4.5t-6 16.5v10l6 39q3 19 12 26t33 7h153q17 289 119 440t279 151q75 0 126.5 -41.5t51.5 -99.5q0 -35 -20 -59.5t-50 -24.5q-23 0 -40 13t-33 42q-4 7 -9 18q-28 62 -82 62q-78 0 -121 -114t-65 -387h170q18 -1 23 -5t6 -18v-8l-4 -39
q-2 -19 -11 -26t-34 -7h-164q-68 -777 -187.5 -1060t-351.5 -283q-74 0 -126 42.5t-52 100.5q0 35 20 57.5t50 22.5q23 0 40 -12.5t33 -40.5q3 -5 9 -17q32 -63 86 -63q194 0 312 1180z" />
    <glyph glyph-name="approxequal" unicode="&#x2248;" horiz-adv-x="1706" 
d="M1530 584v-131q-107 -75 -202 -110.5t-187 -35.5q-98 0 -288 69.5t-290 69.5q-82 0 -169.5 -35.5t-215.5 -123.5v131q108 74 203.5 110.5t183.5 36.5q111 0 301.5 -69.5t276.5 -69.5q85 0 173.5 35.5t213.5 122.5zM1530 934v-131q-104 -73 -200 -108.5t-187 -35.5
q-100 0 -290 69t-290 69q-83 0 -171.5 -36t-213.5 -122v131q106 73 202 109t185 36q111 0 300.5 -68.5t277.5 -68.5q87 0 175 35t212 121z" />
    <glyph glyph-name="Delta" unicode="&#x2206;" horiz-adv-x="1208" 
d="M555 1212l-389 -1042h768zM596 1497h29l555 -1497h-1151z" />
    <glyph glyph-name="guillemotleft" unicode="&#xab;" horiz-adv-x="844" 
d="M545 522q67 -112 110 -211t43 -131q0 -13 -10 -23t-24 -10q-21 0 -57 47q-1 0 -1 1l-182 233q-25 32 -36 53.5t-11 38.5q0 13 11 28.5t42 45.5l256 242q34 32 51 42.5t31 10.5q11 0 18 -7.5t7 -19.5q0 -35 -67 -127.5t-181 -212.5zM211 522q68 -113 112 -212t44 -130
q0 -13 -10.5 -23t-24.5 -10q-21 0 -57 47l-1 1l-182 233q-25 32 -36 53.5t-11 38.5q0 13 11 28.5t42 45.5l256 242q34 32 51 42.5t31 10.5q11 0 18 -7.5t7 -19.5q0 -35 -67.5 -127t-182.5 -213z" />
    <glyph glyph-name="guillemotright" unicode="&#xbb;" horiz-adv-x="844" 
d="M266 516q-67 112 -110 210.5t-43 129.5q0 14 10 23.5t24 9.5q21 0 57 -47h1l180 -234q29 -37 39 -56t10 -34q0 -13 -11.5 -29t-43.5 -47l-254 -241q-32 -30 -50.5 -42t-33.5 -12q-11 0 -17 7.5t-6 19.5q0 36 67.5 129.5t180.5 212.5zM598 516q-68 112 -111 210.5
t-43 129.5q0 14 10.5 23.5t24.5 9.5q21 0 57 -47h1l180 -234q29 -37 39 -56t10 -34q0 -13 -11.5 -29t-43.5 -47l-254 -241q-32 -30 -50.5 -42t-33.5 -12q-11 0 -17 7.5t-6 19.5q0 35 68 130t180 212z" />
    <glyph glyph-name="ellipsis" unicode="&#x2026;" horiz-adv-x="2048" 
d="M201 92q0 52 34 86.5t85 34.5q52 0 87.5 -34.5t35.5 -86.5q0 -50 -36 -85.5t-87 -35.5t-85 35t-34 86zM883 92q0 52 34 86.5t85 34.5q52 0 87.5 -34.5t35.5 -86.5q0 -50 -36 -85.5t-87 -35.5t-85 35t-34 86zM1567 92q0 52 34 86.5t85 34.5q52 0 87.5 -34.5t35.5 -86.5
q0 -50 -36 -85.5t-87 -35.5t-85 35t-34 86z" />
    <glyph glyph-name="nonbreakingspace" unicode="&#xa0;" horiz-adv-x="1090" 
 />
    <glyph glyph-name="Agrave" unicode="&#xc0;" horiz-adv-x="1313" 
d="M590 1233q40 76 60 124t30 89q9 42 22 57t39 15q43 0 69 -42.5t67 -215.5l213 -920q27 -119 44 -160.5t40 -58.5q10 -8 44.5 -21t34.5 -39q0 -38 -58.5 -54.5t-201.5 -16.5q-107 0 -162 16t-55 47q0 30 70 55q8 3 13 5q40 14 54.5 33t14.5 59q0 50 -8 105.5t-31 148.5
q-8 32 -18.5 40.5t-43.5 8.5h-415q-45 0 -63.5 -9t-33.5 -32q-55 -89 -86.5 -165.5t-31.5 -115.5q0 -30 15 -47t58 -33q33 -12 42.5 -21.5t9.5 -25.5q0 -35 -54 -51t-174 -16q-98 0 -149 16t-51 47q0 25 45 44q10 4 13 5q70 27 131 150q16 32 26 49zM422 670q-2 -4 -4 -9
q-10 -23 -10 -28q0 -8 9.5 -12t26.5 -5h369q19 0 26 4t7 15q0 4 -2 13q-2 7 -2 9l-82 381l-6 27q-34 158 -45 158q-8 0 -61.5 -96t-117.5 -228zM790 1663l-293 160q-26 15 -37.5 28t-11.5 27q0 30 27.5 58t54.5 28q17 0 41 -18l12 -8l313 -223q12 -9 17.5 -17.5t5.5 -17.5
q0 -16 -15 -34t-32 -18q-16 0 -78 33q-3 2 -4 2z" />
    <glyph glyph-name="Atilde" unicode="&#xc3;" horiz-adv-x="1313" 
d="M590 1233q40 76 60 124t30 89q9 42 22 57t39 15q43 0 69 -42.5t67 -215.5l213 -920q27 -119 44 -160.5t40 -58.5q10 -8 44.5 -21t34.5 -39q0 -38 -58.5 -54.5t-201.5 -16.5q-107 0 -162 16t-55 47q0 30 70 55q8 3 13 5q40 14 54.5 33t14.5 59q0 50 -8 105.5t-31 148.5
q-8 32 -18.5 40.5t-43.5 8.5h-415q-45 0 -63.5 -9t-33.5 -32q-55 -89 -86.5 -165.5t-31.5 -115.5q0 -30 15 -47t58 -33q33 -12 42.5 -21.5t9.5 -25.5q0 -35 -54 -51t-174 -16q-98 0 -149 16t-51 47q0 25 45 44q10 4 13 5q70 27 131 150q16 32 26 49zM422 670q-2 -4 -4 -9
q-10 -23 -10 -28q0 -8 9.5 -12t26.5 -5h369q19 0 26 4t7 15q0 4 -2 13q-2 7 -2 9l-82 381l-6 27q-34 158 -45 158q-8 0 -61.5 -96t-117.5 -228zM876 1694q-42 0 -121.5 23.5t-113.5 23.5q-35 0 -57.5 -35t-41.5 -35q-16 0 -27 8t-11 19q0 54 52.5 110t119.5 56
q34 0 109 -23.5t116 -23.5q44 0 66.5 34.5t35.5 34.5q28 0 35.5 -5.5t7.5 -20.5q0 -60 -51 -113t-119 -53z" />
    <glyph glyph-name="Otilde" unicode="&#xd5;" horiz-adv-x="1593" 
d="M856 1407q-132 0 -246 -64.5t-188 -181.5q-73 -113 -111.5 -252.5t-38.5 -292.5q0 -250 122.5 -398t328.5 -148q110 0 206.5 46t186.5 140q91 96 146 252.5t55 325.5q0 268 -122.5 420.5t-338.5 152.5zM1520 846q0 -194 -67 -357.5t-202 -302.5q-104 -105 -247 -165
t-291 -60q-139 0 -253 46t-202 136q-86 88 -136 223.5t-50 282.5q0 206 82 384t237 306q106 88 237.5 133.5t278.5 45.5q275 0 444 -185t169 -487zM1018 1694q-42 0 -121.5 23.5t-113.5 23.5q-35 0 -57.5 -35t-41.5 -35q-16 0 -27 8t-11 19q0 54 52.5 110t119.5 56
q34 0 109 -23.5t116 -23.5q44 0 66.5 34.5t35.5 34.5q28 0 35.5 -5.5t7.5 -20.5q0 -60 -51 -113t-119 -53z" />
    <glyph glyph-name="OE" unicode="&#x152;" horiz-adv-x="2195" 
d="M1139 0q-109 0 -251 -14.5t-175 -14.5q-140 0 -254 45.5t-201 135.5q-87 88 -136.5 221t-49.5 278q0 204 82.5 380t236.5 302q106 88 239 132t290 44q64 0 188.5 -8t183.5 -8h654q108 0 179 13q7 1 9 1q34 0 56 -60t22 -159q0 -47 -14 -68.5t-44 -21.5q-34 0 -66 60
q-17 33 -30 51q-22 33 -71 51t-115 18h-266q-96 0 -126 -16t-46 -70q-9 -33 -18 -85.5t-17 -112.5q-13 -93 -19 -143t-6 -62q0 -27 14.5 -36t61.5 -9h180q84 0 116.5 13.5t53.5 45.5q11 16 31.5 88t62.5 72q26 0 37 -18.5t11 -61.5q0 -103 -16.5 -208.5t-47.5 -200.5
q-11 -36 -26 -50t-40 -14q-23 0 -34 16t-11 49v62q0 47 -27.5 69.5t-84.5 22.5h-240q-40 0 -54 -9t-22 -42q-4 -20 -19 -155l-1 -7q-4 -35 -10 -95q-21 -185 -21 -214q0 -53 28 -70.5t118 -17.5h268q71 0 127.5 20.5t93.5 61.5q34 37 72.5 117.5t72.5 80.5q24 0 38 -19.5
t14 -53.5q0 -48 -26 -127.5t-69 -153.5q-20 -34 -39.5 -52t-37.5 -18q-11 0 -54 12.5t-77 12.5h-678zM905 1411q-160 0 -280.5 -62.5t-202.5 -189.5q-73 -113 -111.5 -252t-38.5 -291q0 -250 122 -398t327 -148q135 0 227 40.5t135 118.5q34 62 75 362q5 33 7 50
q35 255 46.5 361.5t11.5 162.5q0 143 -66 194.5t-252 51.5z" />
    <glyph glyph-name="oe" unicode="&#x153;" horiz-adv-x="1669" 
d="M952 510q227 10 356.5 93t129.5 216q0 65 -33.5 104.5t-87.5 39.5q-134 0 -237.5 -127t-127.5 -326zM924 823q98 116 206.5 173t229.5 57q115 0 183.5 -63t68.5 -169q0 -162 -182.5 -274.5t-481.5 -126.5q0 -153 75 -246.5t196 -93.5q54 0 104.5 21t124.5 81q2 2 9 8
q45 39 69 39q16 0 27.5 -12.5t11.5 -30.5q0 -19 -14.5 -40t-43.5 -44q-81 -65 -162.5 -97t-168.5 -32q-118 0 -207.5 52.5t-149.5 154.5q-79 -103 -174 -156t-203 -53q-187 0 -294 119.5t-107 331.5q0 128 40.5 244.5t115.5 203.5q76 90 172 136.5t206 46.5q120 0 206 -57
t143 -173zM557 961q-145 0 -244.5 -159.5t-99.5 -400.5q0 -155 66 -245t180 -90q56 0 106.5 24.5t87.5 71.5q68 83 106 201.5t38 246.5q0 168 -63 259.5t-177 91.5z" />
    <glyph glyph-name="endash" unicode="&#x2013;" 
d="M16 481q-17 0 -25.5 5.5t-8.5 15.5v6l10 39q3 12 12 18t23 6h942q16 0 26.5 -5.5t10.5 -14.5v-6l-13 -40q-3 -11 -11.5 -17.5t-23.5 -6.5h-942z" />
    <glyph glyph-name="emdash" unicode="&#x2014;" horiz-adv-x="2048" 
d="M1991 571q16 0 26.5 -5.5t10.5 -14.5v-6l-13 -40q-3 -11 -12 -17.5t-23 -6.5h-1966q-17 0 -25.5 5.5t-8.5 15.5v6l10 39q3 12 12 18t23 6h1966z" />
    <glyph glyph-name="quotedblleft" unicode="&#x201c;" horiz-adv-x="854" 
d="M215 1186q0 48 17.5 101.5t54.5 117.5q30 54 59.5 83.5t52.5 29.5q14 0 23.5 -8t9.5 -19q0 -6 -40 -67.5t-40 -98.5q0 -10 42 -41.5t42 -81.5q0 -58 -34.5 -98.5t-84.5 -40.5q-48 0 -75 32t-27 91zM512 1186q0 47 17.5 99.5t56.5 119.5q30 54 59.5 83.5t52.5 29.5
q13 0 23 -8.5t10 -18.5q0 -7 -41 -68t-41 -98q0 -10 42 -41.5t42 -81.5q0 -58 -33.5 -98.5t-83.5 -40.5q-49 0 -76.5 32.5t-27.5 90.5z" />
    <glyph glyph-name="quotedblright" unicode="&#x201d;" horiz-adv-x="854" 
d="M477 1395q0 -49 -17.5 -102t-53.5 -117q-31 -54 -60.5 -83.5t-52.5 -29.5q-14 0 -23.5 8t-9.5 19q0 5 40 65t40 98q0 10 -42 42t-42 81q0 59 35 100.5t84 41.5t75.5 -32.5t26.5 -90.5zM776 1393q0 -46 -17.5 -99t-53.5 -118q-30 -53 -60.5 -83t-52.5 -30q-15 0 -25 7.5
t-10 19.5q0 4 41 65t41 98q0 13 -20 27l-15 10q-33 23 -41 40t-8 46q0 59 34 100.5t83 41.5q50 0 77 -32.5t27 -92.5z" />
    <glyph glyph-name="quoteleft" unicode="&#x2018;" horiz-adv-x="545" 
d="M215 1186q0 48 17.5 101.5t54.5 117.5q30 54 59.5 83.5t52.5 29.5q14 0 23.5 -8t9.5 -19q0 -6 -40 -67.5t-40 -98.5q0 -10 42 -41.5t42 -81.5q0 -58 -34.5 -98.5t-84.5 -40.5q-48 0 -75 32t-27 91z" />
    <glyph glyph-name="quoteright" unicode="&#x2019;" horiz-adv-x="545" 
d="M461 1395q0 -47 -17.5 -101t-54.5 -118q-30 -54 -60 -83.5t-53 -29.5q-13 0 -22.5 8t-9.5 19q0 6 40 67.5t40 97.5q0 14 -25 31q-7 4 -10 6q-33 23 -41 40t-8 46q0 59 33.5 99.5t82.5 40.5q51 0 78 -31.5t27 -91.5z" />
    <glyph glyph-name="divide" unicode="&#xf7;" horiz-adv-x="1706" 
d="M854 365q47 0 81 -34t34 -81t-33.5 -81t-81.5 -34t-81.5 33.5t-33.5 81.5t34 81.5t81 33.5zM254 670h1198v-117h-1198v117zM854 1085q48 0 81.5 -33.5t33.5 -80.5q0 -48 -33.5 -81.5t-81.5 -33.5q-49 0 -82 33.5t-33 81.5q0 47 34 80.5t81 33.5z" />
    <glyph glyph-name="lozenge" unicode="&#x25ca;" horiz-adv-x="1012" 
d="M506 1409l-385 -817l385 -825l385 825zM506 1653l500 -1061l-500 -1069l-500 1069z" />
    <glyph glyph-name="ydieresis" unicode="&#xff;" horiz-adv-x="985" 
d="M500 33q117 176 179 342.5t62 304.5q0 74 -31.5 169t-31.5 122q0 37 26 59.5t70 22.5q56 0 88.5 -54t32.5 -149q0 -166 -73.5 -378t-203.5 -409q-156 -236 -318.5 -361.5t-311.5 -125.5q-81 0 -127.5 36.5t-46.5 98.5q0 56 28.5 88.5t77.5 32.5q38 0 62 -23t24 -59v-20
q0 -25 10.5 -33t34.5 -8q112 0 211.5 87t99.5 189q0 113 -46 310t-123 395q-49 121 -77 169t-48 48q-13 0 -41 -12.5t-45 -12.5q-16 0 -23.5 6.5t-7.5 20.5q0 15 10.5 29.5t36.5 35.5q54 43 100 71t60 28q72 0 172 -289.5t170 -730.5zM312 1315q0 45 30 75.5t74 30.5
t73.5 -27.5t29.5 -68.5q0 -40 -32 -71t-75 -31q-42 0 -71 27t-29 65zM633 1315q0 45 30.5 75.5t74.5 30.5q43 0 72.5 -27.5t29.5 -68.5q0 -40 -32 -71t-74 -31t-71.5 27t-29.5 65z" />
    <glyph glyph-name="Ydieresis" unicode="&#x178;" horiz-adv-x="1079" 
d="M446 711l-168 375q-7 16 -22 48q-94 208 -123 230q-11 9 -53.5 22t-42.5 37q0 39 66.5 58.5t197.5 19.5q103 0 149 -14t46 -45q0 -20 -10 -31.5t-37 -21.5q-9 -4 -24 -10q-56 -22 -56 -50q0 -23 8 -51t29 -76l165 -366l273 368q37 50 52 80t15 53q0 20 -37.5 42.5
t-37.5 45.5q0 38 51 57t149 19q100 0 147.5 -16t47.5 -49q0 -29 -67 -55q-10 -4 -17 -7q-70 -28 -136 -119l-18 -24l-377 -500l-49 -408q-1 -12 -4 -35q-10 -81 -10 -98q0 -29 11.5 -47t37.5 -28q9 -4 24 -9q52 -18 52 -47q0 -37 -59.5 -53t-202.5 -16q-116 0 -168.5 15.5
t-52.5 49.5q0 35 55.5 51.5t70.5 26.5q42 29 99 401q16 113 26 177zM398 1774q0 45 30 75.5t74 30.5t73.5 -27.5t29.5 -68.5q0 -40 -32 -71t-75 -31q-42 0 -71 27t-29 65zM719 1774q0 45 30.5 75.5t74.5 30.5q43 0 72.5 -27.5t29.5 -68.5q0 -40 -32 -71t-74 -31t-71.5 27
t-29.5 65z" />
    <glyph glyph-name="fraction" unicode="&#x2215;" horiz-adv-x="342" 
d="M-66 238q-45 -64 -106 -167q-73 -122 -107 -122q-22 0 -42.5 17t-20.5 34q0 22 85 131q74 94 120 158l545 768q45 63 105 166q72 123 108 123q22 0 41.5 -17t19.5 -35q0 -22 -82 -127q-74 -95 -121 -161z" />
    <glyph glyph-name="currency" unicode="&#xa4;" horiz-adv-x="1241" 
d="M623 1200q-130 0 -222 -92t-92 -221q0 -131 91.5 -223.5t222.5 -92.5q129 0 221 93t92 223q0 129 -91.5 221t-221.5 92zM158 1419l207 -207q60 46 122.5 68.5t133.5 22.5t135.5 -22.5t124.5 -68.5l204 207l72 -73l-205 -205q43 -57 64.5 -121t21.5 -135t-21.5 -135.5
t-64.5 -120.5l205 -205l-72 -74l-204 207q-57 -44 -121.5 -66t-138.5 -22t-136.5 21.5t-119.5 66.5l-207 -207l-72 74l207 205q-44 58 -66 122t-22 134q0 69 22 133.5t66 122.5l-207 205z" />
    <glyph glyph-name="guilsinglleft" unicode="&#x2039;" horiz-adv-x="512" 
d="M211 522q68 -113 112 -212t44 -130q0 -13 -10.5 -23t-24.5 -10q-21 0 -57 47l-1 1l-182 233q-25 32 -36 53.5t-11 38.5q0 13 11 28.5t42 45.5l256 242q34 32 51 42.5t31 10.5q11 0 18 -7.5t7 -19.5q0 -35 -67.5 -127t-182.5 -213z" />
    <glyph glyph-name="guilsinglright" unicode="&#x203a;" horiz-adv-x="512" 
d="M268 516q-67 112 -110 210.5t-43 129.5q0 14 10 23.5t25 9.5q20 0 56 -47h1l180 -234q29 -37 39 -56t10 -34q0 -14 -11.5 -30.5t-41.5 -45.5l-256 -241q-32 -30 -50.5 -42t-33.5 -12q-11 0 -17 7.5t-6 19.5q0 36 67.5 129.5t180.5 212.5z" />
    <glyph glyph-name="fi" unicode="&#xf001;" horiz-adv-x="1028" 
d="M735 1411q-23 13 -48.5 19t-53.5 6q-122 0 -182.5 -93t-94.5 -350h279q68 0 143 12.5t82 12.5q20 0 29.5 -11.5t9.5 -35.5q0 -15 -15.5 -103.5t-25.5 -150.5q-28 -188 -46.5 -339t-18.5 -179q0 -43 9.5 -57.5t37.5 -14.5q7 0 26 3t31 3q14 0 23.5 -9.5t9.5 -23.5
q0 -39 -79.5 -74.5t-176.5 -35.5q-33 0 -48.5 13t-15.5 40q0 11 16.5 107.5t28.5 179.5q34 229 43 308.5t9 123.5q0 87 -19.5 107t-79.5 20h-266l-100 -940q-9 -78 -13 -123t-4 -70q0 -17 4 -41.5t4 -31.5q0 -37 -55 -61.5t-139 -24.5q-37 0 -54.5 10t-17.5 31q0 28 33.5 47
t34.5 20q19 25 40 154.5t58 474.5l60 555h-138q-16 0 -22 4.5t-6 15.5v6l4 42q1 25 7 30.5t25 5.5h140q37 273 144.5 400t299.5 127q118 0 189 -42.5t71 -111.5q0 -43 -26.5 -68.5t-71.5 -25.5q-37 0 -61.5 22.5t-24.5 55.5q0 15 3 30.5t9 30.5z" />
    <glyph glyph-name="fl" unicode="&#xf002;" horiz-adv-x="1028" 
d="M780 1389q-37 23 -73.5 34t-77.5 11q-117 0 -180 -100.5t-93 -340.5h140q16 0 22 -4.5t6 -15.5v-6l-4 -39v-2q-3 -37 -31 -37h-147l-100 -940q-9 -78 -13 -123t-4 -70q0 -17 4 -41.5t4 -31.5q0 -37 -55 -61.5t-139 -24.5q-37 0 -54.5 10t-17.5 31q0 28 33.5 47t34.5 20
q19 25 40 154.5t58 474.5l60 555h-138q-16 0 -22 4.5t-6 15.5v6l4 42q1 25 7 30.5t25 5.5h140q37 274 145 400.5t303 126.5q35 0 74 -7t80 -20q45 12 74.5 17.5t48.5 5.5q18 0 28.5 -11t10.5 -30q0 -9 -22.5 -146.5t-41.5 -267.5q-50 -356 -80 -591t-30 -271
q0 -43 9.5 -57.5t37.5 -14.5q7 0 26 3t31 3q14 0 23.5 -9.5t9.5 -23.5q0 -39 -80.5 -74.5t-177.5 -35.5q-33 0 -48.5 13t-15.5 40q0 12 17 107q104 595 155 1239z" />
    <glyph glyph-name="daggerdbl" unicode="&#x2021;" 
d="M614 592q-54 -79 -89.5 -183.5t-53.5 -240.5q71 5 179.5 37.5t154.5 32.5t69 -18.5t23 -55.5q0 -58 -31.5 -87.5t-93.5 -29.5q-35 0 -128.5 28.5t-156.5 28.5h-22q-4 -21 -6 -45t-2 -51q0 -48 11 -130t11 -116q0 -63 -29 -96t-85 -33q-40 0 -63 25t-23 68q0 42 51.5 163
t66.5 211h-8q-70 0 -171 -26.5t-136 -26.5q-49 0 -75.5 22.5t-26.5 63.5q0 49 30 77t84 28q45 0 145.5 -36t163.5 -36q9 61 13 108.5t4 83.5q0 56 -10.5 112.5t-32.5 117.5q53 68 89 165.5t56 227.5q-70 -5 -179 -36.5t-155 -31.5t-69 18.5t-23 55.5q0 58 31.5 87.5
t93.5 29.5q36 0 129 -28.5t156 -28.5h22q5 22 7 44.5t2 47.5q0 50 -12.5 133.5t-12.5 116.5q0 62 30 95.5t87 33.5q39 0 62.5 -25.5t23.5 -69.5q0 -42 -51.5 -162t-67.5 -210h8q71 0 171.5 26.5t135.5 26.5q49 0 75 -23t26 -65q0 -49 -29.5 -76t-83.5 -27q-45 0 -146.5 36
t-164.5 36q-6 -53 -9.5 -94.5t-3.5 -69.5q0 -53 10 -110t29 -119z" />
    <glyph glyph-name="periodcentered" unicode="&#xb7;" horiz-adv-x="545" 
d="M150 647q0 52 34.5 86.5t85.5 34.5q52 0 86.5 -34.5t34.5 -86.5q0 -50 -35.5 -85.5t-85.5 -35.5t-85 35.5t-35 85.5z" />
    <glyph glyph-name="quotesinglbase" unicode="&#x201a;" horiz-adv-x="545" 
d="M336 76q0 -48 -17.5 -99.5t-56.5 -119.5q-29 -53 -59.5 -83t-52.5 -30q-14 0 -23.5 8t-9.5 19q0 6 41 66.5t41 99.5q0 12 -22 26q-8 5 -14 9q-32 22 -40 39t-8 46q0 59 34 100.5t82 41.5q50 0 77.5 -32.5t27.5 -90.5z" />
    <glyph glyph-name="quotedblbase" unicode="&#x201e;" horiz-adv-x="854" 
d="M610 76q0 -45 -16.5 -95.5t-56.5 -123.5q-29 -52 -59 -82.5t-52 -30.5q-15 0 -24 7.5t-9 19.5q0 6 40 67.5t40 98.5q0 14 -22 28q-7 4 -10 6q-1 0 -1 1q-51 35 -51 85q0 60 34.5 101t84.5 41t76 -31.5t26 -91.5zM311 76q0 -48 -17.5 -100.5t-53.5 -116.5q-31 -55 -61 -85
t-52 -30q-14 0 -23.5 8t-9.5 19q0 7 40 67.5t40 98.5q0 9 -42 40t-42 80q0 59 35 100.5t84 41.5t75.5 -32.5t26.5 -90.5z" />
    <glyph glyph-name="perthousand" unicode="&#x2030;" horiz-adv-x="2181" 
d="M510 238q-42 -65 -99 -168q-67 -121 -98 -121q-21 0 -40 16.5t-19 34.5q0 20 77 128q68 96 111 161l506 768q42 63 97 164q67 122 100 122q23 0 41 -15t18 -34q0 -20 -73 -120.5t-117 -167.5zM1794 -29q-126 0 -209.5 90t-83.5 228q0 169 100.5 283t247.5 114
q124 0 202.5 -86t78.5 -223q0 -167 -99.5 -286.5t-236.5 -119.5zM1790 49q80 0 135 99t55 249q0 94 -38.5 151.5t-100.5 57.5q-80 0 -135 -97.5t-55 -242.5q0 -101 37.5 -159t101.5 -58zM334 608q-126 0 -208.5 89.5t-82.5 228.5q0 169 99.5 283t246.5 114q124 0 203.5 -86
t79.5 -223q0 -166 -100 -286t-238 -120zM332 688q80 0 135 99t55 249q0 94 -38.5 151.5t-100.5 57.5q-80 0 -135 -98t-55 -244q0 -100 37 -157.5t102 -57.5zM1075 -29q-126 0 -209.5 90t-83.5 228q0 169 99.5 283t246.5 114q125 0 204 -86t79 -223q0 -167 -99 -286.5
t-237 -119.5zM1071 49q81 0 136 99t55 249q0 94 -39.5 151.5t-102.5 57.5q-79 0 -133.5 -97t-54.5 -243q0 -101 37.5 -159t101.5 -58z" />
    <glyph glyph-name="Acircumflex" unicode="&#xc2;" horiz-adv-x="1313" 
d="M590 1233q40 76 60 124t30 89q9 42 22 57t39 15q43 0 69 -42.5t67 -215.5l213 -920q27 -119 44 -160.5t40 -58.5q10 -8 44.5 -21t34.5 -39q0 -38 -58.5 -54.5t-201.5 -16.5q-107 0 -162 16t-55 47q0 30 70 55q8 3 13 5q40 14 54.5 33t14.5 59q0 50 -8 105.5t-31 148.5
q-8 32 -18.5 40.5t-43.5 8.5h-415q-45 0 -63.5 -9t-33.5 -32q-55 -89 -86.5 -165.5t-31.5 -115.5q0 -30 15 -47t58 -33q33 -12 42.5 -21.5t9.5 -25.5q0 -35 -54 -51t-174 -16q-98 0 -149 16t-51 47q0 25 45 44q10 4 13 5q70 27 131 150q16 32 26 49zM422 670q-2 -4 -4 -9
q-10 -23 -10 -28q0 -8 9.5 -12t26.5 -5h369q19 0 26 4t7 15q0 4 -2 13q-2 7 -2 9l-82 381l-6 27q-34 158 -45 158q-8 0 -61.5 -96t-117.5 -228zM784 1852q-45 -45 -110 -118q-97 -110 -142 -110q-20 0 -31.5 6.5t-11.5 16.5t54.5 91t132.5 180l4 5q39 49 112 49q48 0 66 -7
t35 -42l104 -229q4 -10 11 -25q10 -21 10 -24q0 -12 -12 -16.5t-50 -4.5q-31 0 -90 99q-46 78 -82 129z" />
    <glyph glyph-name="Ecircumflex" unicode="&#xca;" horiz-adv-x="1229" 
d="M137 0q-99 0 -134.5 11.5t-35.5 39.5q0 17 13 31t36 22q11 5 32 11q59 16 71 51q16 44 45 219t59 412q23 179 37 330t14 180q0 28 -10 42.5t-36 24.5q-9 3 -25 8q-49 16 -49 45q0 31 45.5 48.5t126.5 17.5h651q108 0 181 18q8 2 9 2q33 0 54.5 -62t21.5 -163
q0 -48 -13 -69t-42 -21q-35 0 -70 63q-17 31 -28 47q-23 34 -71 52t-114 18h-268q-94 0 -124 -15.5t-46 -70.5q-8 -33 -17.5 -85.5t-17.5 -112.5q-12 -93 -18 -143t-6 -62q0 -27 14 -36t61 -9h181q83 0 116 13.5t54 45.5q10 16 30.5 88t63.5 72q25 0 36 -18.5t11 -61.5
q0 -103 -16.5 -208.5t-47.5 -201.5q-11 -35 -25.5 -49t-39.5 -14q-23 0 -34 16t-11 49v62q0 47 -27.5 69.5t-85.5 22.5h-239q-41 0 -54.5 -9t-21.5 -42q-4 -20 -20 -155l-1 -7q-3 -34 -10 -95q-20 -185 -20 -214q0 -53 28 -70.5t117 -17.5h268q72 0 128 20.5t93 61.5
q35 37 73 117.5t73 80.5q24 0 37.5 -19.5t13.5 -53.5q0 -48 -26 -127.5t-68 -153.5q-20 -34 -40 -52t-38 -18q-10 0 -54 12.5t-79 12.5h-711zM756 1852q-45 -45 -110 -118q-97 -110 -142 -110q-20 0 -31.5 6.5t-11.5 16.5t54.5 91t132.5 180l4 5q39 49 112 49q48 0 66 -7
t35 -42l104 -229q4 -10 11 -25q10 -21 10 -24q0 -12 -12 -16.5t-50 -4.5q-31 0 -90 99q-46 78 -82 129z" />
    <glyph glyph-name="Aacute" unicode="&#xc1;" horiz-adv-x="1313" 
d="M590 1233q40 76 60 124t30 89q9 42 22 57t39 15q43 0 69 -42.5t67 -215.5l213 -920q27 -119 44 -160.5t40 -58.5q10 -8 44.5 -21t34.5 -39q0 -38 -58.5 -54.5t-201.5 -16.5q-107 0 -162 16t-55 47q0 30 70 55q8 3 13 5q40 14 54.5 33t14.5 59q0 50 -8 105.5t-31 148.5
q-8 32 -18.5 40.5t-43.5 8.5h-415q-45 0 -63.5 -9t-33.5 -32q-55 -89 -86.5 -165.5t-31.5 -115.5q0 -30 15 -47t58 -33q33 -12 42.5 -21.5t9.5 -25.5q0 -35 -54 -51t-174 -16q-98 0 -149 16t-51 47q0 25 45 44q10 4 13 5q70 27 131 150q16 32 26 49zM422 670q-2 -4 -4 -9
q-10 -23 -10 -28q0 -8 9.5 -12t26.5 -5h369q19 0 26 4t7 15q0 4 -2 13q-2 7 -2 9l-82 381l-6 27q-34 158 -45 158q-8 0 -61.5 -96t-117.5 -228zM659 1663l-4 -2q-62 -33 -78 -33t-31.5 18t-15.5 34q0 9 6 18t16 16l314 224q5 3 12 8q24 18 41 18q27 0 54.5 -28t27.5 -58
q0 -14 -11.5 -27t-37.5 -28z" />
    <glyph glyph-name="Edieresis" unicode="&#xcb;" horiz-adv-x="1229" 
d="M137 0q-99 0 -134.5 11.5t-35.5 39.5q0 17 13 31t36 22q11 5 32 11q59 16 71 51q16 44 45 219t59 412q23 179 37 330t14 180q0 28 -10 42.5t-36 24.5q-9 3 -25 8q-49 16 -49 45q0 31 45.5 48.5t126.5 17.5h651q108 0 181 18q8 2 9 2q33 0 54.5 -62t21.5 -163
q0 -48 -13 -69t-42 -21q-35 0 -70 63q-17 31 -28 47q-23 34 -71 52t-114 18h-268q-94 0 -124 -15.5t-46 -70.5q-8 -33 -17.5 -85.5t-17.5 -112.5q-12 -93 -18 -143t-6 -62q0 -27 14 -36t61 -9h181q83 0 116 13.5t54 45.5q10 16 30.5 88t63.5 72q25 0 36 -18.5t11 -61.5
q0 -103 -16.5 -208.5t-47.5 -201.5q-11 -35 -25.5 -49t-39.5 -14q-23 0 -34 16t-11 49v62q0 47 -27.5 69.5t-85.5 22.5h-239q-41 0 -54.5 -9t-21.5 -42q-4 -20 -20 -155l-1 -7q-3 -34 -10 -95q-20 -185 -20 -214q0 -53 28 -70.5t117 -17.5h268q72 0 128 20.5t93 61.5
q35 37 73 117.5t73 80.5q24 0 37.5 -19.5t13.5 -53.5q0 -48 -26 -127.5t-68 -153.5q-20 -34 -40 -52t-38 -18q-10 0 -54 12.5t-79 12.5h-711zM484 1774q0 45 30 75.5t74 30.5t73.5 -27.5t29.5 -68.5q0 -40 -32 -71t-75 -31q-42 0 -71 27t-29 65zM805 1774q0 45 30.5 75.5
t74.5 30.5q43 0 72.5 -27.5t29.5 -68.5q0 -40 -32 -71t-74 -31t-71.5 27t-29.5 65z" />
    <glyph glyph-name="Egrave" unicode="&#xc8;" horiz-adv-x="1229" 
d="M137 0q-99 0 -134.5 11.5t-35.5 39.5q0 17 13 31t36 22q11 5 32 11q59 16 71 51q16 44 45 219t59 412q23 179 37 330t14 180q0 28 -10 42.5t-36 24.5q-9 3 -25 8q-49 16 -49 45q0 31 45.5 48.5t126.5 17.5h651q108 0 181 18q8 2 9 2q33 0 54.5 -62t21.5 -163
q0 -48 -13 -69t-42 -21q-35 0 -70 63q-17 31 -28 47q-23 34 -71 52t-114 18h-268q-94 0 -124 -15.5t-46 -70.5q-8 -33 -17.5 -85.5t-17.5 -112.5q-12 -93 -18 -143t-6 -62q0 -27 14 -36t61 -9h181q83 0 116 13.5t54 45.5q10 16 30.5 88t63.5 72q25 0 36 -18.5t11 -61.5
q0 -103 -16.5 -208.5t-47.5 -201.5q-11 -35 -25.5 -49t-39.5 -14q-23 0 -34 16t-11 49v62q0 47 -27.5 69.5t-85.5 22.5h-239q-41 0 -54.5 -9t-21.5 -42q-4 -20 -20 -155l-1 -7q-3 -34 -10 -95q-20 -185 -20 -214q0 -53 28 -70.5t117 -17.5h268q72 0 128 20.5t93 61.5
q35 37 73 117.5t73 80.5q24 0 37.5 -19.5t13.5 -53.5q0 -48 -26 -127.5t-68 -153.5q-20 -34 -40 -52t-38 -18q-10 0 -54 12.5t-79 12.5h-711zM762 1663l-293 160q-26 15 -37.5 28t-11.5 27q0 30 27.5 58t54.5 28q17 0 41 -18l12 -8l313 -223q12 -9 17.5 -17.5t5.5 -17.5
q0 -16 -15 -34t-32 -18q-16 0 -78 33q-3 2 -4 2z" />
    <glyph glyph-name="Iacute" unicode="&#xcd;" horiz-adv-x="627" 
d="M625 1442q0 -20 -10 -31.5t-37 -21.5q-9 -4 -25 -10q-56 -20 -68 -54q-10 -33 -33.5 -176.5t-52.5 -355.5q-29 -222 -49 -399.5t-20 -203.5q0 -29 11 -46.5t35 -28.5q10 -4 26 -10q49 -18 49 -46q0 -37 -57.5 -53t-194.5 -16q-109 0 -161 15t-52 46q0 19 10 31.5t34 21.5
q10 4 29 9q62 17 74 53q15 40 42.5 208t60.5 423q22 184 37.5 334.5t15.5 175.5q0 30 -10 44.5t-35 22.5q-10 4 -29 10q-49 16 -49 39q0 39 66.5 58.5t197.5 19.5q103 0 149 -14t46 -45zM317 1663l-4 -2q-62 -33 -78 -33t-31.5 18t-15.5 34q0 9 6 18t16 16l314 224q5 3 12 8
q24 18 41 18q27 0 54.5 -28t27.5 -58q0 -14 -11.5 -27t-37.5 -28z" />
    <glyph glyph-name="Icircumflex" unicode="&#xce;" horiz-adv-x="627" 
d="M625 1442q0 -20 -10 -31.5t-37 -21.5q-9 -4 -25 -10q-56 -20 -68 -54q-10 -33 -33.5 -176.5t-52.5 -355.5q-29 -222 -49 -399.5t-20 -203.5q0 -29 11 -46.5t35 -28.5q10 -4 26 -10q49 -18 49 -46q0 -37 -57.5 -53t-194.5 -16q-109 0 -161 15t-52 46q0 19 10 31.5t34 21.5
q10 4 29 9q62 17 74 53q15 40 42.5 208t60.5 423q22 184 37.5 334.5t15.5 175.5q0 30 -10 44.5t-35 22.5q-10 4 -29 10q-49 16 -49 39q0 39 66.5 58.5t197.5 19.5q103 0 149 -14t46 -45zM442 1852q-45 -45 -110 -118q-97 -110 -142 -110q-20 0 -31.5 6.5t-11.5 16.5t54.5 91
t132.5 180l4 5q39 49 112 49q48 0 66 -7t35 -42l104 -229q4 -10 11 -25q10 -21 10 -24q0 -12 -12 -16.5t-50 -4.5q-31 0 -90 99q-46 78 -82 129z" />
    <glyph glyph-name="Idieresis" unicode="&#xcf;" horiz-adv-x="627" 
d="M625 1442q0 -20 -10 -31.5t-37 -21.5q-9 -4 -25 -10q-56 -20 -68 -54q-10 -33 -33.5 -176.5t-52.5 -355.5q-29 -222 -49 -399.5t-20 -203.5q0 -29 11 -46.5t35 -28.5q10 -4 26 -10q49 -18 49 -46q0 -37 -57.5 -53t-194.5 -16q-109 0 -161 15t-52 46q0 19 10 31.5t34 21.5
q10 4 29 9q62 17 74 53q15 40 42.5 208t60.5 423q22 184 37.5 334.5t15.5 175.5q0 30 -10 44.5t-35 22.5q-10 4 -29 10q-49 16 -49 39q0 39 66.5 58.5t197.5 19.5q103 0 149 -14t46 -45zM170 1774q0 45 30 75.5t74 30.5t73.5 -27.5t29.5 -68.5q0 -40 -32 -71t-75 -31
q-42 0 -71 27t-29 65zM491 1774q0 45 30.5 75.5t74.5 30.5q43 0 72.5 -27.5t29.5 -68.5q0 -40 -32 -71t-74 -31t-71.5 27t-29.5 65z" />
    <glyph glyph-name="Igrave" unicode="&#xcc;" horiz-adv-x="627" 
d="M625 1442q0 -20 -10 -31.5t-37 -21.5q-9 -4 -25 -10q-56 -20 -68 -54q-10 -33 -33.5 -176.5t-52.5 -355.5q-29 -222 -49 -399.5t-20 -203.5q0 -29 11 -46.5t35 -28.5q10 -4 26 -10q49 -18 49 -46q0 -37 -57.5 -53t-194.5 -16q-109 0 -161 15t-52 46q0 19 10 31.5t34 21.5
q10 4 29 9q62 17 74 53q15 40 42.5 208t60.5 423q22 184 37.5 334.5t15.5 175.5q0 30 -10 44.5t-35 22.5q-10 4 -29 10q-49 16 -49 39q0 39 66.5 58.5t197.5 19.5q103 0 149 -14t46 -45zM448 1663l-293 160q-26 15 -37.5 28t-11.5 27q0 30 27.5 58t54.5 28q17 0 41 -18
l12 -8l313 -223q12 -9 17.5 -17.5t5.5 -17.5q0 -16 -15 -34t-32 -18q-16 0 -78 33q-3 2 -4 2z" />
    <glyph glyph-name="Oacute" unicode="&#xd3;" horiz-adv-x="1593" 
d="M856 1407q-132 0 -246 -64.5t-188 -181.5q-73 -113 -111.5 -252.5t-38.5 -292.5q0 -250 122.5 -398t328.5 -148q110 0 206.5 46t186.5 140q91 96 146 252.5t55 325.5q0 268 -122.5 420.5t-338.5 152.5zM1520 846q0 -194 -67 -357.5t-202 -302.5q-104 -105 -247 -165
t-291 -60q-139 0 -253 46t-202 136q-86 88 -136 223.5t-50 282.5q0 206 82 384t237 306q106 88 237.5 133.5t278.5 45.5q275 0 444 -185t169 -487zM801 1663l-4 -2q-62 -33 -78 -33t-31.5 18t-15.5 34q0 9 6 18t16 16l314 224q5 3 12 8q24 18 41 18q27 0 54.5 -28t27.5 -58
q0 -14 -11.5 -27t-37.5 -28z" />
    <glyph glyph-name="Ocircumflex" unicode="&#xd4;" horiz-adv-x="1593" 
d="M856 1407q-132 0 -246 -64.5t-188 -181.5q-73 -113 -111.5 -252.5t-38.5 -292.5q0 -250 122.5 -398t328.5 -148q110 0 206.5 46t186.5 140q91 96 146 252.5t55 325.5q0 268 -122.5 420.5t-338.5 152.5zM1520 846q0 -194 -67 -357.5t-202 -302.5q-104 -105 -247 -165
t-291 -60q-139 0 -253 46t-202 136q-86 88 -136 223.5t-50 282.5q0 206 82 384t237 306q106 88 237.5 133.5t278.5 45.5q275 0 444 -185t169 -487zM926 1852q-45 -45 -110 -118q-97 -110 -142 -110q-20 0 -31.5 6.5t-11.5 16.5t54.5 91t132.5 180l4 5q39 49 112 49
q48 0 66 -7t35 -42l104 -229q4 -10 11 -25q10 -21 10 -24q0 -12 -12 -16.5t-50 -4.5q-31 0 -90 99q-46 78 -82 129z" />
    <glyph glyph-name="apple" unicode="&#xf000;" horiz-adv-x="1618" 
d="M836 1216q-1 6 -1.5 14t-0.5 23q0 124 95 229.5t236 131.5q1 -10 1.5 -23t0.5 -39q0 -131 -103.5 -234.5t-203.5 -103.5h-8q-3 0 -7.5 1t-8.5 1zM1505 403q-114 -247 -205 -342.5t-204 -95.5q-50 0 -131.5 33t-122.5 33q-45 0 -131 -33t-127 -33q-64 0 -128.5 44
t-129.5 132q-102 140 -157.5 295.5t-55.5 300.5q0 219 125 356.5t323 137.5q68 0 155 -34t124 -34q34 0 121.5 35t152.5 35q110 0 198 -40t161 -124q-102 -65 -151.5 -145.5t-49.5 -182.5q0 -113 60 -200t173 -138z" />
    <glyph glyph-name="Ograve" unicode="&#xd2;" horiz-adv-x="1593" 
d="M856 1407q-132 0 -246 -64.5t-188 -181.5q-73 -113 -111.5 -252.5t-38.5 -292.5q0 -250 122.5 -398t328.5 -148q110 0 206.5 46t186.5 140q91 96 146 252.5t55 325.5q0 268 -122.5 420.5t-338.5 152.5zM1520 846q0 -194 -67 -357.5t-202 -302.5q-104 -105 -247 -165
t-291 -60q-139 0 -253 46t-202 136q-86 88 -136 223.5t-50 282.5q0 206 82 384t237 306q106 88 237.5 133.5t278.5 45.5q275 0 444 -185t169 -487zM932 1663l-293 160q-26 15 -37.5 28t-11.5 27q0 30 27.5 58t54.5 28q17 0 41 -18l12 -8l313 -223q12 -9 17.5 -17.5
t5.5 -17.5q0 -16 -15 -34t-32 -18q-16 0 -78 33q-3 2 -4 2z" />
    <glyph glyph-name="Uacute" unicode="&#xda;" horiz-adv-x="1470" 
d="M610 1442q0 -35 -55 -55.5t-72 -45.5q-8 -14 -17.5 -52.5t-23.5 -114.5q-52 -293 -78 -481.5t-26 -278.5q0 -172 79 -257t238 -85q172 0 282.5 90.5t156.5 269.5q32 122 80 521q11 98 18 151q10 76 15 129.5t5 73.5q0 28 -10.5 42.5t-37.5 24.5q-11 4 -27 9
q-52 16 -52 40q0 38 64.5 57t193.5 19q91 0 133 -13.5t42 -43.5q0 -38 -78 -63l-15 -5q-35 -12 -55.5 -38t-30.5 -72q-9 -49 -24.5 -149t-32.5 -226q-7 -51 -19 -140q-40 -305 -63 -372q-77 -221 -217.5 -318.5t-380.5 -97.5q-212 0 -321 104.5t-109 307.5q0 87 40 390
q21 158 32 249q16 139 23 209t7 86q0 30 -9.5 44.5t-35.5 22.5q-9 4 -26 9q-49 16 -49 40q0 39 65.5 58.5t196.5 19.5q103 0 148.5 -14t45.5 -45zM770 1663l-4 -2q-62 -33 -78 -33t-31.5 18t-15.5 34q0 9 6 18t16 16l314 224q5 3 12 8q24 18 41 18q27 0 54.5 -28t27.5 -58
q0 -14 -11.5 -27t-37.5 -28z" />
    <glyph glyph-name="Ucircumflex" unicode="&#xdb;" horiz-adv-x="1470" 
d="M610 1442q0 -35 -55 -55.5t-72 -45.5q-8 -14 -17.5 -52.5t-23.5 -114.5q-52 -293 -78 -481.5t-26 -278.5q0 -172 79 -257t238 -85q172 0 282.5 90.5t156.5 269.5q32 122 80 521q11 98 18 151q10 76 15 129.5t5 73.5q0 28 -10.5 42.5t-37.5 24.5q-11 4 -27 9
q-52 16 -52 40q0 38 64.5 57t193.5 19q91 0 133 -13.5t42 -43.5q0 -38 -78 -63l-15 -5q-35 -12 -55.5 -38t-30.5 -72q-9 -49 -24.5 -149t-32.5 -226q-7 -51 -19 -140q-40 -305 -63 -372q-77 -221 -217.5 -318.5t-380.5 -97.5q-212 0 -321 104.5t-109 307.5q0 87 40 390
q21 158 32 249q16 139 23 209t7 86q0 30 -9.5 44.5t-35.5 22.5q-9 4 -26 9q-49 16 -49 40q0 39 65.5 58.5t196.5 19.5q103 0 148.5 -14t45.5 -45zM895 1852q-45 -45 -110 -118q-97 -110 -142 -110q-20 0 -31.5 6.5t-11.5 16.5t54.5 91t132.5 180l4 5q39 49 112 49
q48 0 66 -7t35 -42l104 -229q4 -10 11 -25q10 -21 10 -24q0 -12 -12 -16.5t-50 -4.5q-31 0 -90 99q-46 78 -82 129z" />
    <glyph glyph-name="Ugrave" unicode="&#xd9;" horiz-adv-x="1470" 
d="M610 1442q0 -35 -55 -55.5t-72 -45.5q-8 -14 -17.5 -52.5t-23.5 -114.5q-52 -293 -78 -481.5t-26 -278.5q0 -172 79 -257t238 -85q172 0 282.5 90.5t156.5 269.5q32 122 80 521q11 98 18 151q10 76 15 129.5t5 73.5q0 28 -10.5 42.5t-37.5 24.5q-11 4 -27 9
q-52 16 -52 40q0 38 64.5 57t193.5 19q91 0 133 -13.5t42 -43.5q0 -38 -78 -63l-15 -5q-35 -12 -55.5 -38t-30.5 -72q-9 -49 -24.5 -149t-32.5 -226q-7 -51 -19 -140q-40 -305 -63 -372q-77 -221 -217.5 -318.5t-380.5 -97.5q-212 0 -321 104.5t-109 307.5q0 87 40 390
q21 158 32 249q16 139 23 209t7 86q0 30 -9.5 44.5t-35.5 22.5q-9 4 -26 9q-49 16 -49 40q0 39 65.5 58.5t196.5 19.5q103 0 148.5 -14t45.5 -45zM901 1663l-293 160q-26 15 -37.5 28t-11.5 27q0 30 27.5 58t54.5 28q17 0 41 -18l12 -8l313 -223q12 -9 17.5 -17.5t5.5 -17.5
q0 -16 -15 -34t-32 -18q-16 0 -78 33q-3 2 -4 2z" />
    <glyph glyph-name="dotlessi" unicode="&#x131;" horiz-adv-x="498" 
d="M80 43q0 12 16.5 108.5t28.5 178.5q27 179 40 295t13 178v16q0 39 -7 50.5t-26 15.5q-10 2 -27 5q-59 9 -59 42q0 22 23 39.5t82 38.5q51 18 97.5 28.5t74.5 10.5q17 0 26 -12.5t9 -35.5q0 -12 -15.5 -98t-25.5 -155q-29 -196 -48.5 -359t-19.5 -190q0 -43 10 -57.5
t37 -14.5q8 0 27 3t31 3q13 0 22.5 -9.5t9.5 -23.5q0 -39 -79.5 -74.5t-176.5 -35.5q-32 0 -47.5 13t-15.5 40z" />
    <glyph glyph-name="circumflex" unicode="&#x2c6;" 
d="M602 1393q-45 -45 -110 -118q-97 -110 -142 -110q-20 0 -31.5 6.5t-11.5 16.5t54.5 91t132.5 180l4 5q39 49 112 49q48 0 66 -7t35 -42l104 -229q4 -10 11 -25q10 -21 10 -24q0 -12 -12 -16.5t-50 -4.5q-31 0 -90 99q-46 78 -82 129z" />
    <glyph glyph-name="tilde" unicode="&#x2dc;" 
d="M694 1235q-42 0 -121.5 23.5t-113.5 23.5q-35 0 -57.5 -35t-41.5 -35q-16 0 -27 8t-11 19q0 54 52.5 110t119.5 56q34 0 109 -23.5t116 -23.5q44 0 66.5 34.5t35.5 34.5q28 0 35.5 -5.5t7.5 -20.5q0 -60 -51 -113t-119 -53z" />
    <glyph glyph-name="macron" unicode="&#xaf;" 
d="M780 1386q56 0 68 -6t12 -24q0 -53 -18.5 -74.5t-69.5 -21.5h-385q-40 0 -50.5 6t-10.5 22q0 54 18.5 76t69.5 22h366z" />
    <glyph glyph-name="breve" unicode="&#x2d8;" 
d="M907 1452q0 -10 -22 -41.5t-58 -71.5q-62 -68 -133 -103.5t-145 -35.5q-88 0 -147.5 68t-59.5 166q0 18 10 29.5t27 11.5q19 0 33 -31q6 -15 10 -23q22 -43 56 -62.5t87 -19.5q57 0 108.5 19t126.5 71q3 2 10 7q56 39 79 39q8 0 13 -6.5t5 -16.5z" />
    <glyph glyph-name="dotaccent" unicode="&#x2d9;" 
d="M483 1315q0 47 32.5 79.5t80.5 32.5q46 0 76 -29t30 -73t-33 -75t-79 -31q-45 0 -76 27.5t-31 68.5z" />
    <glyph glyph-name="ring" unicode="&#x2da;" 
d="M463 1393q0 -63 43 -106.5t106 -43.5q62 0 106 43.5t44 106.5q0 62 -44 105.5t-106 43.5q-63 0 -106 -43t-43 -106zM365 1393q0 104 71.5 175.5t175.5 71.5q105 0 176.5 -71.5t71.5 -175.5q0 -105 -71.5 -176.5t-176.5 -71.5q-104 0 -175.5 71.5t-71.5 176.5z" />
    <glyph glyph-name="cedilla" unicode="&#xb8;" 
d="M481 0q-12 -35 -20.5 -61t-13.5 -45h18q112 0 163.5 -40.5t51.5 -127.5q0 -91 -66.5 -143t-185.5 -52q-122 0 -190 22t-68 62q0 19 13 32t34 13q9 0 78 -16.5t129 -16.5q59 0 91 27.5t32 77.5q0 38 -23 55t-103 27q-15 2 -35 2q-27 1 -28 16q0 14 14 61t38 107h71z" />
    <glyph glyph-name="hungarumlaut" unicode="&#x2dd;" 
d="M666 1460q0 -23 -51 -104q-28 -43 -44 -70q-8 -14 -22 -39q-48 -82 -68 -82q-22 0 -39.5 14t-17.5 33t45.5 107t73.5 147q11 27 20.5 36t22.5 9q21 0 50.5 -18.5t29.5 -32.5zM649 1212q0 23 90 168q30 50 48 79l2 4q25 44 45 44q23 0 52 -20.5t29 -38.5q0 -15 -88 -135
l-22 -31l-12 -16q-72 -97 -91 -97q-17 0 -35 14t-18 29z" />
    <glyph glyph-name="ogonek" unicode="&#x2db;" 
d="M582 31q-92 -71 -136.5 -136.5t-44.5 -127.5q0 -54 28 -87.5t71 -33.5q42 0 80.5 36.5t46.5 36.5q10 0 17 -6.5t7 -15.5q0 -43 -67.5 -93t-151.5 -50q-65 0 -108 41t-43 102q0 86 62 168.5t189 165.5h50z" />
    <glyph glyph-name="caron" unicode="&#x2c7;" 
d="M541 1284q46 46 112 121q96 108 140 108q20 0 31.5 -6.5t11.5 -17.5q0 -10 -55.5 -91t-133.5 -180l-4 -5q-39 -50 -113 -50q-73 0 -96 46q-1 2 -2 3l-106 229q-10 23 -14.5 35t-4.5 15q0 11 12 15.5t50 4.5q31 0 89 -98q47 -79 83 -129z" />
    <glyph glyph-name="Lslash" unicode="&#x141;" horiz-adv-x="1104" 
d="M651 119q71 0 126.5 20.5t92.5 61.5q34 36 73.5 117t74.5 81q23 0 36 -19t13 -54q0 -50 -25.5 -129t-66.5 -152q-20 -34 -40 -52t-38 -18q-10 0 -54 12.5t-79 12.5h-666q-59 0 -87.5 12.5t-28.5 38.5q0 38 53.5 55.5t66.5 26.5q40 27 88 362q14 103 23 162l-166 -116
q-12 -8 -22.5 -12.5t-16.5 -4.5q-20 0 -32.5 12t-12.5 31q0 14 7.5 26.5t23.5 22.5l237 172q31 272 42.5 384t11.5 135q0 29 -10.5 43.5t-36.5 23.5q-10 4 -26 9q-50 16 -50 40q0 39 66.5 58.5t197.5 19.5q103 0 149 -14t46 -45q0 -35 -52 -54t-67 -32q-32 -26 -68 -299
q-15 -110 -24 -174l232 166q14 9 22.5 12.5t15.5 3.5q21 0 34 -12t13 -31q0 -14 -7.5 -26t-22.5 -23l-302 -219q-36 -273 -49.5 -391t-13.5 -156q0 -53 28 -70.5t117 -17.5h174z" />
    <glyph glyph-name="lslash" unicode="&#x142;" horiz-adv-x="516" 
d="M80 586q-11 -8 -21 -12.5t-18 -4.5q-19 0 -30 9t-11 24t7 26.5t26 24.5l164 119l10 93q45 381 45 421q0 37 -7.5 49.5t-27.5 16.5q-10 2 -30 5q-56 8 -56 40q0 22 24 40t93 44q45 17 86 26t74 9q18 0 28 -11t10 -30q0 -3 -32.5 -201t-59.5 -408l101 68q10 8 20.5 12
t18.5 4q18 0 29.5 -9t11.5 -23q0 -16 -7.5 -28t-26.5 -26l-163 -116q-36 -274 -51 -398.5t-15 -150.5q0 -43 10 -57.5t37 -14.5q8 0 27 3t31 3q14 0 23.5 -9.5t9.5 -23.5q0 -39 -81.5 -74.5t-178.5 -35.5q-33 0 -47.5 12.5t-14.5 40.5q0 5 33 205t57 405z" />
    <glyph glyph-name="Scaron" unicode="&#x160;" horiz-adv-x="1186" 
d="M485 74q151 0 258 92.5t107 220.5q0 51 -18.5 94.5t-53.5 75.5q-59 56 -204 115q-45 18 -68 28q-171 76 -239 158.5t-68 206.5q0 190 147 320.5t367 130.5q58 0 130.5 -15.5t86.5 -15.5q21 0 54.5 11t43.5 11q36 0 62 -69.5t26 -171.5q0 -46 -15 -73.5t-40 -27.5
q-38 0 -77 70q-17 29 -28 45q-42 63 -113.5 98t-158.5 35q-131 0 -218 -81t-87 -199q0 -92 57 -152t236 -135l42 -18q147 -60 216 -123q52 -49 79 -114t27 -140q0 -96 -38 -181t-109 -149q-88 -78 -196.5 -119t-227.5 -41q-99 0 -191.5 23.5t-156.5 64.5q-44 27 -61 65
t-17 115q0 121 16 175.5t51 54.5q48 0 63 -96q7 -51 15 -80q30 -110 101.5 -159.5t199.5 -49.5zM662 1743q46 46 112 121q96 108 140 108q20 0 31.5 -6.5t11.5 -17.5q0 -10 -55.5 -91t-133.5 -180l-4 -5q-39 -50 -113 -50q-73 0 -96 46q-1 2 -2 3l-106 229q-10 23 -14.5 35
t-4.5 15q0 11 12 15.5t50 4.5q31 0 89 -98q47 -79 83 -129z" />
    <glyph glyph-name="scaron" unicode="&#x161;" horiz-adv-x="801" 
d="M535 248q0 106 -178 206q-25 14 -37 21q-126 72 -175 133.5t-49 141.5q0 129 103 217t260 88q154 0 210 -41.5t56 -155.5q0 -36 -12 -50.5t-39 -14.5q-29 0 -56 43q-6 10 -10 16q-40 62 -79.5 88.5t-90.5 26.5q-72 0 -118 -44.5t-46 -113.5q0 -62 30.5 -105.5
t114.5 -92.5q20 -12 59 -33q117 -61 163 -119q26 -32 38.5 -70.5t12.5 -83.5q0 -141 -108 -237.5t-269 -96.5q-158 0 -245.5 53t-87.5 148q0 58 20 96.5t49 38.5q45 0 62 -79q9 -41 18 -64q19 -48 64 -74.5t110 -26.5q103 0 166.5 51.5t63.5 133.5zM430 1284q46 46 112 121
q96 108 140 108q20 0 31.5 -6.5t11.5 -17.5q0 -10 -55.5 -91t-133.5 -180l-4 -5q-39 -50 -113 -50q-73 0 -96 46q-1 2 -2 3l-106 229q-10 23 -14.5 35t-4.5 15q0 11 12 15.5t50 4.5q31 0 89 -98q47 -79 83 -129z" />
    <glyph glyph-name="Zcaron" unicode="&#x17d;" horiz-adv-x="1290" 
d="M215 0h-20q-130 0 -164.5 17t-34.5 61q0 22 24.5 62t69.5 91l864 994q38 43 59 74t21 42q0 16 -23 23.5t-69 7.5h-350q-85 0 -137 -24t-93 -80q-17 -23 -43 -65q-53 -85 -94 -85q-23 0 -36 17t-13 47q0 25 12 72.5t33 97.5q35 85 67.5 123t67.5 38q5 0 66.5 -10
t118.5 -10h594q74 0 106.5 -16.5t32.5 -53.5q0 -33 -40 -93t-134 -169l-739 -853l-10 -12q-109 -127 -109 -144t35 -24t124 -7h283q124 0 178 21.5t99 74.5q27 34 67.5 110t77.5 76q23 0 35 -17t12 -50q0 -44 -21.5 -119.5t-56.5 -144.5q-25 -51 -46.5 -68.5t-53.5 -17.5
q-2 0 -14 1q-77 13 -173 13h-573zM713 1743q46 46 112 121q96 108 140 108q20 0 31.5 -6.5t11.5 -17.5q0 -10 -55.5 -91t-133.5 -180l-4 -5q-39 -50 -113 -50q-73 0 -96 46q-1 2 -2 3l-106 229q-10 23 -14.5 35t-4.5 15q0 11 12 15.5t50 4.5q31 0 89 -98q47 -79 83 -129z
" />
    <glyph glyph-name="zcaron" unicode="&#x17e;" horiz-adv-x="915" 
d="M39 166l590 633q16 17 24.5 32t8.5 25q0 15 -26.5 23t-78.5 8h-168q-93 0 -127.5 -13t-54.5 -45q-10 -16 -24 -47q-25 -55 -54 -55q-15 0 -27 12t-12 27q0 105 38 190.5t79 85.5q8 0 28 -7t31 -9q13 -2 48 -3t151 -1q92 0 190.5 2t104.5 2q53 0 72.5 -14t19.5 -49
q0 -31 -24 -72t-72 -92l-535 -570q-15 -16 -23 -30.5t-8 -26.5q0 -15 25.5 -22t79.5 -7h233q75 0 110 17.5t64 70.5q10 18 23 50q22 57 49 57q19 0 29 -13.5t10 -37.5q0 -36 -12 -90.5t-33 -112.5q-17 -49 -38 -71.5t-48 -22.5q-4 0 -24 2q-134 14 -281 14q-79 0 -182 -5
t-127 -5q-48 0 -67 15.5t-19 51.5q0 21 14.5 47t42.5 56zM488 1284q46 46 112 121q96 108 140 108q20 0 31.5 -6.5t11.5 -17.5q0 -10 -55.5 -91t-133.5 -180l-4 -5q-39 -50 -113 -50q-73 0 -96 46q-1 2 -2 3l-106 229q-10 23 -14.5 35t-4.5 15q0 11 12 15.5t50 4.5
q31 0 89 -98q47 -79 83 -129z" />
    <glyph glyph-name="brokenbar" unicode="&#xa6;" 
d="M449 408h126v-758h-126v758zM449 1432h126v-758h-126v758z" />
    <glyph glyph-name="Eth" unicode="&#xd0;" horiz-adv-x="1554" 
d="M760 737h-369q-37 -283 -48 -385t-11 -145q0 -59 54.5 -83t188.5 -24q333 0 516 204.5t183 576.5q0 263 -137 387.5t-426 124.5q-76 0 -135.5 -14.5t-77.5 -35.5q-26 -29 -86 -454l-6 -47h352q29 0 45 -13.5t16 -37.5q0 -26 -15.5 -40t-43.5 -14zM240 842q8 91 22 233
q21 211 21 232q0 30 -10 44.5t-35 22.5q-10 4 -26 9q-50 16 -50 40q0 31 38 49.5t103 18.5q95 0 244.5 6t204.5 6q359 0 542 -163.5t183 -487.5q0 -210 -81.5 -388t-230.5 -296q-103 -82 -232.5 -127t-260.5 -45q-8 0 -113 2t-201 2q-44 0 -113.5 -2t-94.5 -2
q-98 0 -135.5 12.5t-37.5 42.5q0 35 56 55t67 27q41 28 94 401q18 129 29 203h-153q-29 0 -44.5 14t-15.5 40q0 24 16 37.5t46 13.5h168z" />
    <glyph glyph-name="eth" unicode="&#xf0;" horiz-adv-x="981" 
d="M676 1186q109 -144 163 -297.5t54 -323.5q0 -257 -136.5 -425.5t-338.5 -168.5q-178 0 -278.5 107.5t-100.5 298.5q0 111 39 217t110 186t154.5 120t177.5 40q42 0 80 -9t74 -28q-27 73 -57 134t-66 114l-291 -80q-2 0 -6 -1q-14 -3 -18 -3q-21 0 -33.5 10.5t-12.5 28.5
q0 16 12 27.5t38 19.5l258 74q-57 80 -131 165t-74 99q0 12 10.5 21.5t24.5 9.5q37 0 108.5 -63t186.5 -197l247 67q14 3 19 3.5t10 0.5q18 0 30.5 -11.5t12.5 -27.5t-12.5 -27.5t-38.5 -19.5zM522 852q-129 0 -218 -139.5t-89 -352.5q0 -137 58.5 -217t158.5 -80
q125 0 213 140t88 344q0 145 -55.5 225t-155.5 80z" />
    <glyph glyph-name="Yacute" unicode="&#xdd;" horiz-adv-x="1079" 
d="M446 711l-168 375q-7 16 -22 48q-94 208 -123 230q-11 9 -53.5 22t-42.5 37q0 39 66.5 58.5t197.5 19.5q103 0 149 -14t46 -45q0 -20 -10 -31.5t-37 -21.5q-9 -4 -24 -10q-56 -22 -56 -50q0 -23 8 -51t29 -76l165 -366l273 368q37 50 52 80t15 53q0 20 -37.5 42.5
t-37.5 45.5q0 38 51 57t149 19q100 0 147.5 -16t47.5 -49q0 -29 -67 -55q-10 -4 -17 -7q-70 -28 -136 -119l-18 -24l-377 -500l-49 -408q-1 -12 -4 -35q-10 -81 -10 -98q0 -29 11.5 -47t37.5 -28q9 -4 24 -9q52 -18 52 -47q0 -37 -59.5 -53t-202.5 -16q-116 0 -168.5 15.5
t-52.5 49.5q0 35 55.5 51.5t70.5 26.5q42 29 99 401q16 113 26 177zM545 1663l-4 -2q-62 -33 -78 -33t-31.5 18t-15.5 34q0 9 6 18t16 16l314 224q5 3 12 8q24 18 41 18q27 0 54.5 -28t27.5 -58q0 -14 -11.5 -27t-37.5 -28z" />
    <glyph glyph-name="yacute" unicode="&#xfd;" horiz-adv-x="985" 
d="M500 33q117 176 179 342.5t62 304.5q0 74 -31.5 169t-31.5 122q0 37 26 59.5t70 22.5q56 0 88.5 -54t32.5 -149q0 -166 -73.5 -378t-203.5 -409q-156 -236 -318.5 -361.5t-311.5 -125.5q-81 0 -127.5 36.5t-46.5 98.5q0 56 28.5 88.5t77.5 32.5q38 0 62 -23t24 -59v-20
q0 -25 10.5 -33t34.5 -8q112 0 211.5 87t99.5 189q0 113 -46 310t-123 395q-49 121 -77 169t-48 48q-13 0 -41 -12.5t-45 -12.5q-16 0 -23.5 6.5t-7.5 20.5q0 15 10.5 29.5t36.5 35.5q54 43 100 71t60 28q72 0 172 -289.5t170 -730.5zM459 1204l-4 -2q-62 -33 -78 -33
t-31.5 18t-15.5 34q0 9 6 18t16 16l314 224q5 3 12 8q24 18 41 18q27 0 54.5 -28t27.5 -58q0 -14 -11.5 -27t-37.5 -28z" />
    <glyph glyph-name="Thorn" unicode="&#xde;" horiz-adv-x="1135" 
d="M365 650q-5 -36 -8 -66.5t-3 -44.5q0 -36 17.5 -47t99.5 -11h21q211 0 321.5 87t110.5 253q0 138 -74.5 202t-233.5 64q-74 0 -116.5 -5t-55.5 -15q-11 -10 -21 -45.5t-20 -103.5zM442 1176q12 0 35 2q165 12 207 12q216 0 329 -86t113 -250q0 -214 -160 -338.5
t-440 -124.5q-29 0 -59.5 1l-30.5 1q-55 0 -74 -5t-24 -17q-10 -26 -16.5 -72.5t-6.5 -99.5q0 -36 11 -55.5t36 -28.5q11 -5 29 -11q45 -16 45 -43q0 -36 -56.5 -53.5t-174.5 -17.5q-123 0 -178.5 14.5t-55.5 46.5q0 19 10.5 31.5t34.5 21.5q10 4 28 9q62 17 75 53
q15 41 42.5 209t59.5 422q23 184 38 335.5t15 174.5q0 28 -10 42.5t-36 24.5l-24 8q-50 17 -50 41q0 39 65.5 58.5t196.5 19.5q103 0 148.5 -14t45.5 -45q0 -37 -55 -54q-28 -9 -39 -16q-51 -32 -68 -155q-3 -26 -6 -41z" />
    <glyph glyph-name="thorn" unicode="&#xfe;" horiz-adv-x="1110" 
d="M371 1083l-31 -217q-1 -6 -1.5 -12t-0.5 -16q0 -11 1.5 -16t4.5 -5q1 0 43.5 46t97.5 91q59 49 122 74t126 25q135 0 219 -102.5t84 -268.5q0 -147 -50 -284t-140 -238q-83 -92 -179.5 -139.5t-201.5 -47.5q-115 0 -203 69q-12 9 -14 9q-10 0 -31.5 -100.5t-21.5 -198.5
q0 -29 10 -42t51 -27q2 -1 5 -2q44 -17 44 -46q0 -26 -42 -40.5t-122 -14.5q-121 0 -178 16.5t-57 51.5q0 16 12.5 27t38.5 18q4 1 13 3q43 11 59 75q0 1 2 12q45 232 92 547q50 343 83.5 625.5t33.5 330.5q0 37 -7.5 49.5t-27.5 16.5q-11 2 -31 5q-55 8 -55 40q0 22 24 40
t93 44q43 16 83 24t74 8q19 0 29 -9.5t10 -28.5q0 -16 -23 -146t-38 -246zM659 918q-64 0 -130.5 -37.5t-118.5 -104.5q-63 -81 -99.5 -195.5t-36.5 -236.5q0 -134 55 -204t158 -70q69 0 130.5 37t111.5 108q65 92 100 204t35 224q0 129 -54 202t-151 73z" />
    <glyph glyph-name="minus" unicode="&#x2212;" horiz-adv-x="1706" 
d="M254 670h1198v-119h-1198v119z" />
    <glyph glyph-name="multiply" unicode="&#xd7;" horiz-adv-x="1706" 
d="M381 1169l477 -477l475 477l82 -82l-475 -477l475 -475l-82 -82l-475 475l-477 -475l-80 82l475 475l-475 477z" />
    <glyph glyph-name="onesuperior" unicode="&#xb9;" horiz-adv-x="719" 
d="M487 545q0 -19 -36 -26t-170 -7q-106 0 -135 6t-29 23q0 10 10 16.5t36 11.5l21 3q65 7 76 28q9 21 21 88.5t30 195.5l5 35q30 219 30 265q0 20 -3.5 25t-14.5 5q-14 0 -42.5 -7t-41.5 -7q-11 0 -18 5.5t-7 15.5q0 12 17.5 24.5t52.5 24.5q53 18 109 29.5t89 11.5
q19 0 27 -5t8 -16q0 -10 -14 -21q-3 -2 -4 -3l-4 -2q-28 -14 -39 -57q-8 -30 -20.5 -108t-28.5 -202q-17 -106 -26 -181.5t-9 -97.5q0 -34 52 -45q11 -2 18 -4q1 0 5 -1q35 -8 35 -23z" />
    <glyph glyph-name="twosuperior" unicode="&#xb2;" horiz-adv-x="719" 
d="M12 518q-25 0 -36 4.5t-11 14.5q0 8 6.5 18t18.5 20l313 256q110 91 160.5 163.5t50.5 138.5q0 53 -33.5 82.5t-93.5 29.5q-43 0 -90 -18t-85 -50q-15 -13 -39 -37q-41 -42 -60 -42q-11 0 -17 5t-6 13q0 23 24.5 55t65.5 62q56 40 115.5 60t124.5 20q97 0 156 -50
t59 -133q0 -56 -30 -111.5t-95 -119.5q-35 -36 -265 -210l-110 -83h242q66 0 99 11t61 40q11 12 29.5 40t33.5 28q9 0 16 -8t7 -19q0 -17 -12.5 -49t-32.5 -65q-28 -50 -52.5 -75.5t-46.5 -25.5q-7 0 -11.5 4.5t-4.5 12.5q0 6 1 10t3 8h-455z" />
    <glyph glyph-name="threesuperior" unicode="&#xb3;" horiz-adv-x="719" 
d="M424 915q83 -10 126.5 -60.5t43.5 -135.5q0 -68 -37 -130.5t-102 -107.5q-62 -39 -132 -58.5t-151 -19.5q-91 0 -150 19t-59 47q0 13 9 20t26 7q11 0 68 -14.5t106 -14.5q133 0 216 66.5t83 171.5q0 73 -50.5 111t-146.5 38q-23 0 -52 -3t-36 -3q-4 0 -7 6t-3 16
q0 31 49 38l24 3q101 17 155.5 69.5t54.5 131.5q0 57 -33.5 90t-91.5 33q-64 0 -137 -36t-80 -36q-11 0 -16 5t-5 16q0 15 18.5 32.5t51.5 34.5q56 30 110 46t103 16q94 0 151.5 -51t57.5 -134q0 -67 -40 -119t-124 -94z" />
    <glyph glyph-name="onequarter" unicode="&#xbc;" horiz-adv-x="1716" 
d="M1458 150l70 454q-102 -106 -204.5 -219.5t-207.5 -234.5h342zM1540 76l-29 -189q-4 -21 -10 -26.5t-20 -5.5h-43q-11 0 -15.5 4t-5.5 14v8l31 195h-397q-15 0 -21 6t-6 22q0 41 126 179l5 6l277 301q65 73 112.5 112t69.5 39q16 0 21 -4.5t5 -19.5q0 -16 -9 -59.5
t-13 -71.5l-66 -436h76q13 -1 18.5 -4t6.5 -11v-4l-6 -32q-2 -11 -8.5 -17t-16.5 -6h-82zM621 238q-46 -64 -107 -167q-73 -122 -106 -122q-23 0 -43.5 17t-20.5 34q0 22 85 131q74 94 120 158l545 768q45 63 105 166q72 123 108 123q22 0 41.5 -17t19.5 -35q0 -22 -82 -127
q-74 -95 -121 -161zM465 594q0 -18 -34.5 -24.5t-162.5 -6.5q-101 0 -129 5.5t-28 21.5q0 10 11 16.5t33 9.5q7 1 20 3q64 7 73 28q7 18 17 71t32 193q18 123 25.5 186t7.5 93q0 21 -3.5 26t-13.5 5q-13 0 -40 -7.5t-40 -7.5q-11 0 -17.5 5t-6.5 14q0 12 16 23t49 22
q53 17 107 28t84 11q18 0 26.5 -4.5t8.5 -14.5q0 -6 -4 -11t-16 -11l-4 -2q-24 -13 -36 -54q-8 -29 -20 -104t-27 -184q-16 -107 -24.5 -175t-8.5 -87q1 -32 49 -40q11 -2 16 -3q2 -1 5 -1q35 -8 35 -24z" />
    <glyph glyph-name="onehalf" unicode="&#xbd;" horiz-adv-x="1716" 
d="M1040 0q-24 0 -34.5 4t-10.5 12t6.5 18t18.5 19l297 240q104 83 152.5 150.5t48.5 129.5q0 50 -32 78.5t-87 28.5q-42 0 -86.5 -17.5t-79.5 -48.5q-17 -13 -42 -37q-38 -36 -56 -36q-10 0 -15.5 5.5t-5.5 12.5q0 22 23 51t63 58q52 37 109 55t118 18q94 0 149.5 -46
t55.5 -124q0 -54 -27.5 -105.5t-88.5 -109.5q-40 -39 -316 -243l-43 -31h232q61 0 92.5 10t58.5 37q10 11 25 33q21 31 37 31q8 0 14 -7t6 -18q0 -16 -11 -45t-30 -62q-27 -45 -51 -69.5t-43 -24.5q-8 0 -12.5 4.5t-4.5 12.5q0 6 0.5 9t1.5 7h-432zM621 238
q-46 -64 -107 -167q-73 -122 -106 -122q-23 0 -43.5 17t-20.5 34q0 22 85 131q74 94 120 158l545 768q45 63 105 166q72 123 108 123q22 0 41.5 -17t19.5 -35q0 -22 -82 -127q-74 -95 -121 -161zM465 594q0 -18 -34.5 -24.5t-162.5 -6.5q-101 0 -129 5.5t-28 21.5
q0 10 11 16.5t33 9.5q7 1 20 3q64 7 73 28q7 18 17 71t32 193q18 123 25.5 186t7.5 93q0 21 -3.5 26t-13.5 5q-13 0 -40 -7.5t-40 -7.5q-11 0 -17.5 5t-6.5 14q0 12 16 23t49 22q53 17 107 28t84 11q18 0 26.5 -4.5t8.5 -14.5q0 -6 -4 -11t-16 -11l-4 -2q-24 -13 -36 -54
q-8 -29 -20 -104t-27 -184q-16 -107 -24.5 -175t-8.5 -87q1 -32 49 -40q11 -2 16 -3q2 -1 5 -1q35 -8 35 -24z" />
    <glyph glyph-name="threequarters" unicode="&#xbe;" horiz-adv-x="1714" 
d="M1458 150l70 454q-102 -106 -204.5 -219.5t-207.5 -234.5h342zM1540 76l-29 -189q-4 -21 -10 -26.5t-20 -5.5h-43q-11 0 -15.5 4t-5.5 14v8l31 195h-397q-15 0 -21 6t-6 22q0 41 126 179l5 6l277 301q65 73 112.5 112t69.5 39q16 0 21 -4.5t5 -19.5q0 -16 -9 -59.5
t-13 -71.5l-66 -436h76q13 -1 18.5 -4t6.5 -11v-4l-6 -32q-2 -11 -8.5 -17t-16.5 -6h-82zM621 238q-46 -64 -107 -167q-73 -122 -106 -122q-23 0 -43.5 17t-20.5 34q0 22 85 131q74 94 120 158l545 768q45 63 105 166q72 123 108 123q22 0 41.5 -17t19.5 -35q0 -22 -82 -127
q-74 -95 -121 -161zM403 940q81 -11 122.5 -58t41.5 -126q0 -63 -35 -121.5t-98 -99.5q-58 -36 -124.5 -54t-143.5 -18q-89 0 -146 17.5t-57 43.5q0 11 9 17t26 6q10 0 64.5 -12.5t101.5 -12.5q126 0 205.5 62t79.5 159q0 68 -48 104t-139 36q-22 0 -49.5 -3t-34.5 -3
q-4 0 -6 4.5t-2 15.5q0 31 51 37q12 1 19 2q94 15 146 64.5t52 123.5q0 53 -32 84t-87 31q-61 0 -131 -34t-75 -34q-11 1 -16 5.5t-5 13.5q0 14 17.5 31t48.5 32q53 29 105 43.5t99 14.5q89 0 144 -47.5t55 -124.5q0 -63 -38.5 -111.5t-119.5 -87.5z" />
    <glyph glyph-name="franc" unicode="&#x20a3;" horiz-adv-x="1915" 
d="M637 821q87 0 118.5 13t51.5 45q10 16 31 88.5t63 72.5q25 0 36 -19t11 -63q0 -103 -16 -208.5t-47 -200.5q-12 -37 -26.5 -51.5t-39.5 -14.5q-23 0 -34 17t-11 51v61q0 47 -27.5 70t-84.5 23h-216q-41 0 -54.5 -9t-20.5 -40q-4 -16 -29 -206l-4 -32q-12 -93 -18.5 -150
t-6.5 -75q0 -33 14 -50.5t50 -29.5q6 -3 19 -7q57 -18 57 -47q0 -36 -63 -52.5t-206 -16.5q-109 0 -161 15t-52 46q0 19 10.5 31.5t34.5 21.5q10 4 28 9q62 17 75 53q16 44 45 219t59 412q23 179 37 330t14 180q0 30 -9.5 44.5t-35.5 22.5q-9 4 -26 9q-49 16 -49 40
q0 34 41 52t118 18h650q108 0 178 18q8 2 10 2q33 0 55.5 -62.5t22.5 -162.5q0 -48 -13 -69t-42 -21q-35 0 -70 63q-17 30 -29 48q-22 33 -71 51t-115 18h-252q-94 0 -124 -15.5t-46 -70.5q-7 -20 -16 -71.5t-19 -126.5q-17 -123 -23 -171t-6 -59q0 -25 13.5 -34t62.5 -9
h158zM1499 831q70 109 144.5 162.5t156.5 53.5q61 0 96 -39.5t35 -108.5q0 -52 -28.5 -83.5t-75.5 -31.5q-31 0 -48 9.5t-32 33.5q-8 12 -18 48t-27 36q-28 0 -66.5 -35.5t-77.5 -99.5q-33 -55 -55.5 -157.5t-48.5 -342.5q-3 -30 -8 -84q-13 -142 -29 -161
q-14 -16 -57 -27.5t-90 -11.5q-14 0 -20.5 5.5t-6.5 16.5q0 7 12.5 63.5t22.5 103.5q35 170 53.5 312t18.5 240q0 72 -10 114.5t-25 45.5q-14 3 -44 7q-63 8 -63 36q0 17 12.5 30t47.5 29l1 1q134 59 156 59q30 0 47 -50.5t27 -173.5z" />
    <glyph glyph-name="Gbreve" unicode="&#x11e;" horiz-adv-x="1479" 
d="M907 1518q76 0 164.5 -19.5t102.5 -19.5q20 0 53 11t45 11q37 0 61.5 -71.5t24.5 -186.5q0 -55 -15 -81.5t-47 -26.5q-40 0 -84 76q-4 7 -6 10q-57 97 -141 142.5t-207 45.5q-133 0 -247.5 -65.5t-190.5 -184.5q-72 -110 -110 -249.5t-38 -291.5q0 -250 121 -399
t322 -149q161 0 268 108.5t107 274.5q0 33 -14.5 52t-46.5 29q-13 4 -35 9q-56 12 -56 39q0 38 72 56.5t219 18.5q117 0 167 -13t50 -44q0 -35 -71 -57q-17 -6 -26 -9q-51 -15 -74 -82l-1 -3q-2 -7 -7 -22q-59 -181 -114 -257q-72 -103 -188.5 -156t-270.5 -53
q-287 0 -454.5 181.5t-167.5 492.5q0 166 50 314t146 268q116 145 281.5 223t357.5 78zM1173 1911q0 -10 -22 -41.5t-58 -71.5q-62 -68 -133 -103.5t-145 -35.5q-88 0 -147.5 68t-59.5 166q0 18 10 29.5t27 11.5q19 0 33 -31q6 -15 10 -23q22 -43 56 -62.5t87 -19.5
q57 0 108.5 19t126.5 71q3 2 10 7q56 39 79 39q8 0 13 -6.5t5 -16.5z" />
    <glyph glyph-name="gbreve" unicode="&#x11f;" horiz-adv-x="1100" 
d="M158 25q-48 25 -73.5 68t-25.5 100q0 74 48.5 136.5t144.5 112.5q-49 50 -72.5 108t-23.5 126q0 164 116 272.5t295 108.5q46 0 95.5 -8t101.5 -23q49 25 89 51.5t73 55.5q20 -26 30.5 -45.5t10.5 -34.5q0 -36 -21.5 -63.5t-66.5 -51.5q38 -44 56.5 -94t18.5 -107
q0 -167 -123 -275t-319 -108q-54 0 -113.5 13.5t-66.5 13.5q-46 0 -88.5 -45.5t-42.5 -97.5q0 -55 43 -78t151 -23q54 0 167.5 9.5t172.5 9.5q124 0 190 -54.5t66 -154.5q0 -154 -163 -262.5t-406 -108.5q-167 0 -269 71t-102 183q0 57 26.5 105.5t80.5 89.5zM246 6
q-24 -33 -35.5 -65.5t-11.5 -65.5q0 -93 73.5 -148t200.5 -55q159 0 265 66t106 160q0 56 -36 86t-103 30q-42 0 -140 -9t-153 -9q-22 0 -57.5 2t-108.5 8zM522 444q110 0 189.5 91t79.5 219q0 96 -55 154.5t-146 58.5q-112 0 -191.5 -91.5t-79.5 -222.5q0 -93 56.5 -151
t146.5 -58zM946 1452q0 -10 -22 -41.5t-58 -71.5q-62 -68 -133 -103.5t-145 -35.5q-88 0 -147.5 68t-59.5 166q0 18 10 29.5t27 11.5q19 0 33 -31q6 -15 10 -23q22 -43 56 -62.5t87 -19.5q57 0 108.5 19t126.5 71q3 2 10 7q56 39 79 39q8 0 13 -6.5t5 -16.5z" />
    <glyph glyph-name="Idotaccent" unicode="&#x130;" horiz-adv-x="627" 
d="M625 1442q0 -20 -10 -31.5t-37 -21.5q-9 -4 -25 -10q-56 -20 -68 -54q-10 -33 -33.5 -176.5t-52.5 -355.5q-29 -222 -49 -399.5t-20 -203.5q0 -29 11 -46.5t35 -28.5q10 -4 26 -10q49 -18 49 -46q0 -37 -57.5 -53t-194.5 -16q-109 0 -161 15t-52 46q0 19 10 31.5t34 21.5
q10 4 29 9q62 17 74 53q15 40 42.5 208t60.5 423q22 184 37.5 334.5t15.5 175.5q0 30 -10 44.5t-35 22.5q-10 4 -29 10q-49 16 -49 39q0 39 66.5 58.5t197.5 19.5q103 0 149 -14t46 -45zM323 1774q0 47 32.5 79.5t80.5 32.5q46 0 76 -29t30 -73t-33 -75t-79 -31
q-45 0 -76 27.5t-31 68.5z" />
    <glyph glyph-name="Scedilla" unicode="&#x15e;" horiz-adv-x="1186" 
d="M485 74q151 0 258 92.5t107 220.5q0 51 -18.5 94.5t-53.5 75.5q-59 56 -204 115q-45 18 -68 28q-171 76 -239 158.5t-68 206.5q0 190 147 320.5t367 130.5q58 0 130.5 -15.5t86.5 -15.5q21 0 54.5 11t43.5 11q36 0 62 -69.5t26 -171.5q0 -46 -15 -73.5t-40 -27.5
q-38 0 -77 70q-17 29 -28 45q-42 63 -113.5 98t-158.5 35q-131 0 -218 -81t-87 -199q0 -92 57 -152t236 -135l42 -18q147 -60 216 -123q52 -49 79 -114t27 -140q0 -96 -38 -181t-109 -149q-88 -78 -196.5 -119t-227.5 -41q-99 0 -191.5 23.5t-156.5 64.5q-44 27 -61 65
t-17 115q0 121 16 175.5t51 54.5q48 0 63 -96q7 -51 15 -80q30 -110 101.5 -159.5t199.5 -49.5zM514 0q-12 -35 -20.5 -61t-13.5 -45h18q112 0 163.5 -40.5t51.5 -127.5q0 -91 -66.5 -143t-185.5 -52q-122 0 -190 22t-68 62q0 19 13 32t34 13q9 0 78 -16.5t129 -16.5
q59 0 91 27.5t32 77.5q0 38 -23 55t-103 27q-15 2 -35 2q-27 1 -28 16q0 14 14 61t38 107h71z" />
    <glyph glyph-name="scedilla" unicode="&#x15f;" horiz-adv-x="801" 
d="M535 248q0 106 -178 206q-25 14 -37 21q-126 72 -175 133.5t-49 141.5q0 129 103 217t260 88q154 0 210 -41.5t56 -155.5q0 -36 -12 -50.5t-39 -14.5q-29 0 -56 43q-6 10 -10 16q-40 62 -79.5 88.5t-90.5 26.5q-72 0 -118 -44.5t-46 -113.5q0 -62 30.5 -105.5
t114.5 -92.5q20 -12 59 -33q117 -61 163 -119q26 -32 38.5 -70.5t12.5 -83.5q0 -141 -108 -237.5t-269 -96.5q-158 0 -245.5 53t-87.5 148q0 58 20 96.5t49 38.5q45 0 62 -79q9 -41 18 -64q19 -48 64 -74.5t110 -26.5q103 0 166.5 51.5t63.5 133.5zM370 0q-12 -35 -20.5 -61
t-13.5 -45h18q112 0 163.5 -40.5t51.5 -127.5q0 -91 -66.5 -143t-185.5 -52q-122 0 -190 22t-68 62q0 19 13 32t34 13q9 0 78 -16.5t129 -16.5q59 0 91 27.5t32 77.5q0 38 -23 55t-103 27q-15 2 -35 2q-27 1 -28 16q0 14 14 61t38 107h71z" />
    <glyph glyph-name="Cacute" unicode="&#x106;" horiz-adv-x="1341" 
d="M1296 1135q-42 0 -83 73q-3 5 -5 9q-59 100 -141.5 145t-206.5 45q-134 0 -249 -65t-191 -183q-72 -110 -110 -249.5t-38 -291.5q0 -250 121 -399t320 -149q108 0 203.5 36.5t154.5 100.5q26 28 63 90.5t68 62.5q18 0 28.5 -15t10.5 -40q0 -89 -40.5 -168.5t-82.5 -79.5
q-6 0 -17.5 3t-19.5 3q-5 0 -32 -13q-168 -89 -359 -89q-284 0 -451 182.5t-167 491.5q0 166 50 314t146 268q118 145 282.5 223t356.5 78q78 0 165 -19.5t97 -19.5q24 0 58.5 11t44.5 11q37 0 61.5 -71.5t24.5 -186.5q0 -55 -15 -81.5t-47 -26.5zM721 1663l-4 -2
q-62 -33 -78 -33t-31.5 18t-15.5 34q0 9 6 18t16 16l314 224q5 3 12 8q24 18 41 18q27 0 54.5 -28t27.5 -58q0 -14 -11.5 -27t-37.5 -28z" />
    <glyph glyph-name="cacute" unicode="&#x107;" horiz-adv-x="924" 
d="M569 961q-151 0 -259.5 -156t-108.5 -383q0 -152 76 -247t196 -95q56 0 107.5 21.5t123.5 80.5q4 3 9 8q45 39 69 39q16 0 26.5 -12t10.5 -31t-14.5 -40t-42.5 -44q-83 -66 -162 -97.5t-166 -31.5q-181 0 -291 114.5t-110 303.5q0 150 56 279.5t165 232.5
q77 73 166 111.5t180 38.5q120 0 196 -61t76 -154q0 -58 -28 -91.5t-76 -33.5q-46 0 -70 28.5t-24 83.5q0 3 1 17t1 24q0 47 -27 71t-80 24zM500 1204l-4 -2q-62 -33 -78 -33t-31.5 18t-15.5 34q0 9 6 18t16 16l314 224q5 3 12 8q24 18 41 18q27 0 54.5 -28t27.5 -58
q0 -14 -11.5 -27t-37.5 -28z" />
    <glyph glyph-name="Ccaron" unicode="&#x10c;" horiz-adv-x="1341" 
d="M1296 1135q-42 0 -83 73q-3 5 -5 9q-59 100 -141.5 145t-206.5 45q-134 0 -249 -65t-191 -183q-72 -110 -110 -249.5t-38 -291.5q0 -250 121 -399t320 -149q108 0 203.5 36.5t154.5 100.5q26 28 63 90.5t68 62.5q18 0 28.5 -15t10.5 -40q0 -89 -40.5 -168.5t-82.5 -79.5
q-6 0 -17.5 3t-19.5 3q-5 0 -32 -13q-168 -89 -359 -89q-284 0 -451 182.5t-167 491.5q0 166 50 314t146 268q118 145 282.5 223t356.5 78q78 0 165 -19.5t97 -19.5q24 0 58.5 11t44.5 11q37 0 61.5 -71.5t24.5 -186.5q0 -55 -15 -81.5t-47 -26.5zM785 1743q46 46 112 121
q96 108 140 108q20 0 31.5 -6.5t11.5 -17.5q0 -10 -55.5 -91t-133.5 -180l-4 -5q-39 -50 -113 -50q-73 0 -96 46q-1 2 -2 3l-106 229q-10 23 -14.5 35t-4.5 15q0 11 12 15.5t50 4.5q31 0 89 -98q47 -79 83 -129z" />
    <glyph glyph-name="ccaron" unicode="&#x10d;" horiz-adv-x="924" 
d="M569 961q-151 0 -259.5 -156t-108.5 -383q0 -152 76 -247t196 -95q56 0 107.5 21.5t123.5 80.5q4 3 9 8q45 39 69 39q16 0 26.5 -12t10.5 -31t-14.5 -40t-42.5 -44q-83 -66 -162 -97.5t-166 -31.5q-181 0 -291 114.5t-110 303.5q0 150 56 279.5t165 232.5
q77 73 166 111.5t180 38.5q120 0 196 -61t76 -154q0 -58 -28 -91.5t-76 -33.5q-46 0 -70 28.5t-24 83.5q0 3 1 17t1 24q0 47 -27 71t-80 24zM564 1284q46 46 112 121q96 108 140 108q20 0 31.5 -6.5t11.5 -17.5q0 -10 -55.5 -91t-133.5 -180l-4 -5q-39 -50 -113 -50
q-73 0 -96 46q-1 2 -2 3l-106 229q-10 23 -14.5 35t-4.5 15q0 11 12 15.5t50 4.5q31 0 89 -98q47 -79 83 -129z" />
    <glyph glyph-name="dcroat" unicode="&#x111;" horiz-adv-x="1118" 
d="M741 199q-111 -118 -207 -173t-190 -55q-141 0 -225 104t-84 277q0 137 52 275t140 237q79 89 176 139t191 50q130 0 227 -84q11 -10 15 -11q5 0 8.5 8t5.5 26l16 165h-227q-28 0 -43.5 11t-15.5 30t16.5 31t44.5 12h231q2 18 3.5 35.5t1.5 34.5q0 29 -8.5 37.5
t-33.5 11.5q-45 6 -57 14t-12 23q0 40 90 79.5t178 39.5q18 0 28.5 -11t10.5 -30q0 -10 -13.5 -88t-22.5 -146h100q28 0 43.5 -11t15.5 -30q0 -20 -16 -31.5t-43 -11.5h-113q-70 -493 -93.5 -689.5t-23.5 -268.5q0 -37 9.5 -50.5t35.5 -13.5q10 0 27 2t25 2q20 0 30 -7.5
t10 -22.5q0 -36 -72.5 -81.5t-131.5 -45.5q-50 0 -70.5 35.5t-28.5 181.5zM412 106q154 0 269.5 168.5t115.5 405.5q0 133 -55.5 204.5t-157.5 71.5q-67 0 -127 -36.5t-113 -110.5q-64 -90 -99.5 -202.5t-35.5 -225.5q0 -131 53.5 -203t149.5 -72z" />
    <glyph glyph-name="sfthyphen" unicode="&#xad;" horiz-adv-x="627" 
d="M301 459q-57 0 -119 -3t-65 -3q-31 0 -43.5 7.5t-12.5 26.5q0 46 30 77.5t79 31.5h18q69 -2 136 -2q40 0 93.5 3t65.5 3q31 0 43.5 -8t12.5 -27q0 -45 -30.5 -76.5t-80.5 -31.5q-3 0 -45.5 1t-81.5 1z" />
    <glyph glyph-name="periodcentered" unicode="&#x2219;" horiz-adv-x="545" 
d="M150 647q0 52 34.5 86.5t85.5 34.5q52 0 86.5 -34.5t34.5 -86.5q0 -50 -35.5 -85.5t-85.5 -35.5t-85 35.5t-35 85.5z" />
    </font>
</defs>
</svg>
