<?xml version="1.0" encoding="utf-8"?>
<!-- Generator: Adobe Illustrator 22.0.1, SVG Export Plug-In . SVG Version: 6.00 Build 0)  -->
<svg version="1.1" id="Layer_1" xmlns="http://www.w3.org/2000/svg" xmlns:xlink="http://www.w3.org/1999/xlink" x="0px" y="0px"
	 viewBox="0 0 1080 939.9" style="enable-background:new 0 0 1080 939.9;" xml:space="preserve">
<style type="text/css">
	.st0{fill:#F5BACC;}
</style>
<path class="st0" d="M1080,289.9c0-1.1,0-2.2,0-3.3c0-0.1,0-0.2,0-0.3c0-0.1,0-0.2,0-0.3c0,0,0,0,0,0C1079.7,125.5,952.9,0,792.3,0
	C688.5,0,594,49.8,542.5,131.5c-1.1,1.8-3.8,1.8-4.9,0C486,49.8,390.4,0,286.6,0C126,0,0.3,125.5,0,286c0,0,0,0,0,0
	c0,0.1,0,0.2,0,0.3c0,0.1,0,0.2,0,0.3c0,1.1,0,2.2,0,3.2c0,1,0,1.9,0,2.9c0,2,0.1,4,0.2,6.1c0,0.1,0,0.1,0,0.2
	c0.3,6.4,0.7,12.7,1.4,19c0.1,1.1,0.3,2.3,0.4,3.4c0.1,0.8,0.2,1.6,0.3,2.4c31.5,255.8,372,496.5,528,613.1c5.4,4,12.7,4,18.1,0
	c156-116.6,497.3-357.1,529.1-612.9c1.3-10.3,2.1-20.8,2.3-31.4C1079.9,291.8,1079.9,290.9,1080,289.9z"/>
</svg>
