<?xml version="1.0" encoding="utf-8"?>
<!-- Generator: Adobe Illustrator 22.0.1, SVG Export Plug-In . SVG Version: 6.00 Build 0)  -->
<svg version="1.1" id="Layer_1" xmlns="http://www.w3.org/2000/svg" xmlns:xlink="http://www.w3.org/1999/xlink" x="0px" y="0px"
	 viewBox="0 0 783 288" style="enable-background:new 0 0 783 288;" xml:space="preserve">
<style type="text/css">
	.st0{fill:#222222;}
	.st1{fill:#F5BACC;}
</style>
<g>
	<path class="st0" d="M341.2,80.3v1.4h-2.1c-1.1,0-2.3,0.1-3.6,0.4c-1.1,0.2-2.3,0.5-3.7,0.8c-1.4,0.3-2.7,0.7-4,1.3
		c-1.9,0.8-3.5,1.8-4.8,3c-1.3,1.1-2.2,2.2-3,3.3c-1,1.3-1.7,2.6-2.2,3.9l-22.6,54v56.3h17.9v1.4h-76.8v-1.4h17.9v-56.5l-40.7-66
		v-1.6h9.1c4.5,0,8.7,0.2,12.6,0.5c3.8,0.4,7.4,1.2,10.9,2.6c3.4,1.4,6.6,3.3,9.7,5.8c3.1,2.5,6.1,5.9,9.2,10.2l29.1,46.6l22-52.4
		c0.4-0.8,0.5-2.3,0.5-4.3c0-0.7-0.1-1.5-0.2-2.2c-0.1-0.8-0.4-1.5-0.7-2.2c-0.4-0.8-0.9-1.5-1.7-2c-0.8-0.5-1.5-0.8-2.2-1.1
		c-0.8-0.2-1.7-0.4-2.7-0.4H303v-1.4H341.2L341.2,80.3z"/>
	<path class="st0" d="M437.7,204.8v1.4h-46.5v-15.6c-1,1.9-2,3.5-3,4.8c-1.1,1.3-2.5,2.6-4.1,3.9c-2.9,2.4-5.9,4.1-9.1,5.2
		c-3.2,1.1-6.5,1.6-10.1,1.6s-7.3-0.3-11-0.9c-3.8-0.6-7.2-1.9-10.3-3.9c-3.1-2-5.5-4.8-7.2-8.4c-0.6-1.3-1.1-2.7-1.5-4
		c-0.4-1.4-0.6-2.8-0.6-4.2v-46.8c0-6.8-0.7-12.3-2.2-16.6c-1.5-4.2-4.2-6.4-8-6.4v-1.4h15.2c5.9,0,10.7,0.7,14.6,2.2
		c3.9,1.4,7,3.3,9.3,5.7c2.3,2.4,4,5.2,4.9,8.4c1,3.2,1.4,6.7,1.4,10.4v44c0,2.4,0.3,4.8,0.8,7.2s1.5,4.5,2.8,6.3
		c0.7,0.8,1.7,1.4,3,1.7s2.4,0.4,3.5,0.4s2.1-0.3,3-1c1-0.7,1.9-1.5,2.7-2.4c0.8-1,1.6-2.2,2.3-3.9c0.7-1.6,1.3-3.3,1.8-5.2
		s0.9-3.7,1.2-5.7c0.3-1.9,0.5-3.7,0.6-5.4v-61.4h-13.5v-1.4h13.5c4.4-0.2,8.7-0.5,12.7-0.9c3.5-0.2,7.1-0.6,10.9-1.1
		s6.9-1.1,9.4-1.8v95.1L437.7,204.8L437.7,204.8z"/>
	<path class="st0" d="M493.1,204.8v1.4h-63.2v-1.4h13.6V82h-13.6v-1.4c3.3,0,7.4-0.1,12.1-0.2s9.4-0.3,14.2-0.6
		c4.7-0.3,9.2-0.7,13.4-1.2c4.2-0.5,7.5-1.1,10-1.8v127.9L493.1,204.8L493.1,204.8z"/>
	<path class="st0" d="M528.8,161.5c0,4.7,0.2,9.4,0.7,14.2s1.6,9.1,3.4,12.8s4.4,6.8,7.8,9.2c3.4,2.4,8.1,3.6,14.1,3.6
		c4.3,0,8.1-0.7,11.4-2.2c3.3-1.5,6.2-3.5,8.6-6s4.5-5.4,6.3-8.7c1.7-3.3,3.3-6.7,4.6-10.3l1.8,0.2c-1.7,4.8-3.5,9.2-5.5,13.3
		s-4.6,7.6-7.8,10.6s-7.2,5.3-12,7s-10.7,2.5-17.8,2.5c-3.2,0-6.1-0.1-8.6-0.2c-2.5-0.1-5.1-0.5-7.6-1.2c-2.6-0.7-5.3-1.6-8.2-3
		c-2.9-1.3-6.2-3.2-10-5.7c-5-3.1-9.3-8-12.8-14.5c-3.5-6.6-5.3-14.5-5.3-23.9c0-7.3,1-13.6,3-18.8c2-5.3,4.6-9.7,7.8-13.3
		c3.2-3.6,6.8-6.5,10.8-8.6c3.9-2.2,7.9-3.8,11.9-4.9s7.8-1.9,11.3-2.2c3.5-0.4,6.5-0.5,8.9-0.5c5,0,10.2,0.5,15.6,1.4
		c5.4,1,10.3,2.6,14.6,5c4.4,2.4,8,5.7,10.8,9.8c2.8,4.1,4.2,9.4,4.2,15.9c0,3.8-1.1,6.8-3.3,9s-5,3.8-8.3,4.8
		c-3.3,1.1-6.8,1.7-10.7,2c-3.8,0.2-7.4,0.4-10.8,0.4h-28.9V161.5L528.8,161.5z M541.8,112.5c-3,0.1-5.3,1.3-7,3.6
		c-1.7,2.3-3,5.1-3.9,8.6s-1.5,7.3-1.7,11.4c-0.2,4.1-0.4,8-0.4,11.8v9.5h15.8c0.6,0,1.8-0.1,3.7-0.4c1.9-0.2,3.4-1,4.8-2.2
		c0.7-0.7,1.3-1.6,1.7-2.8c0.4-1.1,0.7-2.3,0.9-3.4c0.2-1.1,0.3-2.2,0.4-3c0.1-0.9,0.1-1.5,0.1-1.9c0-6.5-0.4-11.7-1.2-15.8
		c-0.8-4.1-1.8-7.2-3.1-9.5s-2.8-3.8-4.4-4.7c-1.6-0.8-3.3-1.3-4.9-1.3L541.8,112.5L541.8,112.5z"/>
	<path class="st0" d="M693,191.3c2.2,2.9,4,5.2,5.7,7c1.6,1.8,3,3.2,4.2,4.1c1.3,1.2,2.5,2,3.6,2.5v1.3h-16.9
		c-1.4,0-3.3-0.1-5.7-0.2c-2.3-0.1-4.8-0.5-7.5-1.1s-5.4-1.6-8.3-3c-2.8-1.4-5.4-3.3-7.8-5.7c-2.2-2.2-4.2-4.6-6.1-7.4
		c-1.9-2.8-3.9-5.9-5.9-9.2s-4.2-6.9-6.6-10.8c-2.4-3.8-5.1-7.8-8.3-12l-0.5,0.7v47.2h13.5v1.4h-59.9v-1.4H600V82h-13.5v-1.4H600
		c4.4-0.2,8.7-0.5,12.7-0.9c3.5-0.2,7.1-0.6,10.9-1.1c3.8-0.5,6.8-1.1,9.2-1.8v78.6l33.2-28.2c0.2-0.2,0.6-0.8,1-1.7
		c0.4-0.9,0.6-2,0.6-3.3c0-1.8-0.4-3.2-1.2-4.2s-1.7-1.7-2.7-2.2c-1-0.4-2-0.7-2.9-0.8c-0.9-0.1-1.5-0.2-1.7-0.2h-2.5v-1.4h37.9v1.4
		h-4.8c-2.2,0-4.4,0.5-6.6,1.6c-2.3,1.1-4.4,2.3-6.4,3.8c-2,1.4-3.8,2.9-5.5,4.3s-2.9,2.5-3.8,3.2l-10.2,9.1
		c4.1,6.6,7.3,11.8,9.7,15.8c2.4,3.9,4.7,7.6,6.8,11c2.2,3.4,4.7,7.1,7.5,11.2C684,179.1,688,184.5,693,191.3z"/>
</g>
<g>
	<path class="st1" d="M56.5,121.1v-6.4c0.2-1.7,0.5-3.4,0.7-5.1c0.9-5.9,2.8-11.3,6.1-16.2c3.4-5.1,8-8.9,13.5-11.5
		c6.1-2.9,12.6-4.2,19.4-4.3c13.1-0.2,23.8,4.7,32.4,14.5c0.7,0.8,1.3,1.5,2,2.3c0.2-0.3,0.4-0.4,0.5-0.6c2.4-2.4,4.6-5,7.1-7.2
		c6.4-5.3,13.8-8.3,22.1-8.9c6.7-0.5,13.2,0.4,19.3,3.1c5.3,2.3,10,5.5,14,9.8c4.5,4.9,7.7,10.5,9.5,16.9c0.7,2.6,1,5.3,1.6,8v5.5
		c-0.1,0.2-0.1,0.4-0.2,0.6c-0.9,7.6-4,14.5-7.9,21c-4.4,7.4-9.8,14-15.6,20.3c-8.1,8.8-16.8,16.9-26.1,24.4
		c-7.7,6.1-15.6,11.9-23.4,17.9c-0.7,0.5-1.3,0.5-2,0c-1.6-1.2-3.3-2.3-4.9-3.5c-8.3-5.7-16.3-11.9-23.9-18.4
		c-7.5-6.4-14.7-13.1-21.3-20.4c-5.3-5.8-10.2-11.9-14.3-18.6c-3.4-5.5-6.2-11.3-7.6-17.6C57.1,124.6,56.8,122.8,56.5,121.1"/>
</g>
</svg>
