<?xml version="1.0" encoding="utf-8"?>
<!-- Generator: Adobe Illustrator 22.0.1, SVG Export Plug-In . SVG Version: 6.00 Build 0)  -->
<svg version="1.1" id="Layer_1" xmlns="http://www.w3.org/2000/svg" xmlns:xlink="http://www.w3.org/1999/xlink" x="0px" y="0px"
	 viewBox="0 0 1080 939.9" style="enable-background:new 0 0 1080 939.9;" xml:space="preserve">
<style type="text/css">
	.st0{fill:#F5BACC;}
</style>
<path class="st0" d="M539.5,935c-9.1,0-18.2-2.8-25.8-8.5c-7.3-5.5-15-11.2-23.1-17.2C333.7,792.7,41.6,575.7,12.3,337.9
	c-0.1-0.6-0.1-1.2-0.2-1.7l-0.2-1.6c-0.1-0.9-0.2-1.8-0.3-2.7c-0.7-6.3-1.2-12.9-1.4-19.5l0-0.2c-0.1-2.1-0.2-4.1-0.2-6.2
	c0-1-0.1-5-0.1-6.3c0-0.2,0-0.5,0-0.7C10.3,134.1,139.8,4.9,304.9,4.9c52,0,103.2,12.4,148,35.9c33.8,17.7,63.4,41.3,87.1,69.3
	c23.6-28.1,53-51.7,86.5-69.3c44.6-23.5,95.7-35.9,147.6-35.9c79.8,0,154.3,30.3,209.7,85.3c55.5,55.1,86.1,129.3,86.3,209.1l0,0.4
	l-0.1,6.5c-0.2,10.8-1,21.6-2.4,32.1c-7,56.6-29.7,116-67.3,176.6c-31.4,50.5-74.2,103.4-127.2,157.2
	c-95.6,96.9-208.8,181-283.6,236.6c-8.5,6.3-16.6,12.3-24.2,18C557.7,932.2,548.6,935,539.5,935z M68.2,310
	c0.2,5.4,0.6,10.7,1.2,15.9c0.1,0.7,0.1,1.3,0.2,2l0.2,2c0,0.3,0.1,0.6,0.1,0.9l0,0.1c6,48.4,25.8,100,59,153.6
	c29.1,47,69.3,96.6,119.3,147.4c92.6,94,199.1,173.1,276.9,231c4.9,3.7,9.7,7.2,14.3,10.6c4.9-3.7,10.1-7.5,15.4-11.4
	c77.8-57.8,184.5-137,276.9-230.7c50-50.7,90.1-100.2,119.3-147c33.2-53.4,53-104.9,59-153.2l0-0.1c1.1-8.5,1.7-17.2,1.9-25.9
	l0.1-5.9c-0.3-132.5-104.8-236.3-238-236.3c-42.5,0-84.2,10.1-120.6,29.2c-36,18.9-65.9,46.4-86.7,79.3
	c-5.8,9.3-15.9,14.8-26.8,14.8c0,0,0,0,0,0c-11,0-21-5.5-26.8-14.8c-20.7-32.8-50.8-60.2-87.2-79.2C389.4,73,347.5,62.9,304.9,62.9
	c-64.3,0-124.1,24.3-168.3,68.4c-44.2,44.1-68.6,103.8-68.7,168.1l0,1.2c0,1.3,0,3.7,0.1,4.3C68,306.6,68.1,308.3,68.2,310L68.2,310
	L68.2,310z"/>
</svg>
