<?xml version="1.0" encoding="utf-8"?>
<!-- Generator: Adobe Illustrator 22.0.1, SVG Export Plug-In . SVG Version: 6.00 Build 0)  -->
<svg version="1.1" id="Layer_1" xmlns="http://www.w3.org/2000/svg" xmlns:xlink="http://www.w3.org/1999/xlink" x="0px" y="0px"
	 viewBox="0 0 1080 939.9" style="enable-background:new 0 0 1080 939.9;" xml:space="preserve">
<style type="text/css">
	.st0{fill:#F5BACC;}
</style>
<path class="st0" d="M1041,305.5c-0.2,9.8-0.9,19.5-2.2,29.1c-29.5,237.3-346.2,460.5-491,568.7c-5,3.7-11.8,3.7-16.8,0
	C386.3,795,70.3,571.7,41.1,334.3c-0.1-0.7-0.2-1.5-0.3-2.2c-0.1-1.1-0.3-2.1-0.4-3.2c-0.6-5.8-1.1-11.7-1.3-17.7c0-0.1,0-0.1,0-0.2
	c-0.1-1.9-0.1-3.7-0.2-5.6c0-0.9-0.1-4.7-0.1-5.7c0-0.1,0-0.5,0-0.5C39.2,150.4,155.9,33.9,304.9,33.9c96.3,0,185,46.2,232.8,122.1
	c1.1,1.7,3.5,1.7,4.6,0C590.1,80.1,677.8,33.9,774.1,33.9c149,0,266.7,116.5,267,265.4L1041,305.5z"/>
</svg>
