<?xml version="1.0" encoding="utf-8"?>
<!-- Generator: Adobe Illustrator 22.0.1, SVG Export Plug-In . SVG Version: 6.00 Build 0)  -->
<svg version="1.1" id="Layer_1" xmlns="http://www.w3.org/2000/svg" xmlns:xlink="http://www.w3.org/1999/xlink" x="0px" y="0px"
	 viewBox="0 0 800 800" style="enable-background:new 0 0 800 800;" xml:space="preserve">
<style type="text/css">
	.st0{clip-path:url(#SVGID_2_);}
	.st1{clip-path:url(#SVGID_2_);fill:#F8BBCD;}
</style>
<g>
	<defs>
		<rect id="SVGID_1_" x="71" y="60.1" width="657.4" height="679.9"/>
	</defs>
	<clipPath id="SVGID_2_">
		<use xlink:href="#SVGID_1_"  style="overflow:visible;"/>
	</clipPath>
	<path class="st0" d="M296.5,734.5c-2,3.1-4.3,5.1-8,5.1c-7.1,0-9.3-6.5-9.3-12.5c0-9.6,5.1-12.5,9-12.5c3.8,0,5.9,1.9,7.6,5.2
		l-2.8,1.4c-1-1.9-2.4-3.7-4.8-3.7c-4.8,0-5.8,5.8-5.8,9.6c0,3.8,0.9,9.6,5.8,9.6c2.8,0,4.3-1.7,5.7-3.9L296.5,734.5z"/>
	<path class="st0" d="M324.2,727.1c0,2-0.1,12.5-8.6,12.5c-3.9,0-8.6-2.8-8.6-12.5c0-9.6,4.6-12.5,8.6-12.5
		C319.5,714.6,324.2,717.4,324.2,727.1 M310.3,727.1c0,3.5,0.7,9.6,5.3,9.6c4.7,0,5.3-6,5.3-9.6c0-3.5-0.7-9.6-5.3-9.6
		C311,717.5,310.3,723.5,310.3,727.1"/>
	<polygon class="st0" points="335.4,715 339.2,715 348.6,735.4 348.7,735.3 348.4,729 348.4,715 351.5,715 351.5,739.2 347.7,739.2 
		338.3,718.8 338.2,718.9 338.5,725.2 338.5,739.2 335.4,739.2 	"/>
	<path class="st0" d="M366.2,731.5c0.6,3,2.1,5.2,5.3,5.2c2.5,0,4.5-1.4,4.5-4.1c0-3-2.5-3.7-4.9-4.7c-3.5-1.5-6.8-2.4-6.8-7
		c0-4.1,3.3-6.4,7.1-6.4c4,0,6.4,2.3,7.4,6.1l-3,0.9c-0.6-2.4-1.8-4-4.5-4c-2,0-4,1-4,3.2c0,2.3,1.4,2.9,3.3,3.7l5.2,2.3
		c2.2,1.2,3.3,3.1,3.3,5.7c0,4.6-3.2,7.2-7.6,7.2c-4.5,0-7.3-2.9-8.1-7.2L366.2,731.5z"/>
	<polygon class="st0" points="392.4,715 407.5,715 407.5,717.8 395.5,717.8 395.5,725 405.4,725 405.4,727.8 395.5,727.8 
		395.5,736.4 407.5,736.4 407.5,739.2 392.4,739.2 	"/>
	<polygon class="st0" points="421.9,736.4 425.3,736.4 425.3,717.8 421.9,717.8 421.9,715 431.8,715 431.8,717.8 428.4,717.8 
		428.4,736.4 431.8,736.4 431.8,739.2 421.9,739.2 	"/>
	<polygon class="st0" points="448.6,715 451.7,715 451.7,736.4 464.4,736.4 464.4,739.2 448.6,739.2 	"/>
	<path class="st0" d="M536.2,734.8c-2,3-4.3,5-8,5c-7,0-9.3-6.5-9.3-12.5c0-9.6,5.1-12.5,9-12.5c3.8,0,5.9,1.9,7.7,5.1l-2.8,1.4
		c-1-1.9-2.4-3.6-4.8-3.6c-4.8,0-5.8,5.8-5.8,9.5c0,3.7,0.9,9.6,5.8,9.6c2.8,0,4.3-1.7,5.7-3.9L536.2,734.8z"/>
	<path class="st0" d="M547.9,715.2h8.2c4,0,7.2,1.9,7.2,6.6c0,3-2,5.9-4.9,6.7l5.9,9.8l-2.7,1.6l-6.2-11H551v10.3h-3.1V715.2z
		 M555.1,726.3c3,0,5-1.7,5-4.4c0-2.2-1.3-3.8-4.1-3.8h-5v8.2H555.1z"/>
	<path class="st0" d="M575.6,715.2h15.1v2.8h-11.9v7.2h9.9v2.8h-9.9v8.6h11.9v2.8h-15.1V715.2z M587.5,710.1l-8.7,3.8l-1.2-2
		l8.2-4.7L587.5,710.1z"/>
	<path class="st0" d="M605.3,732.8L603,740l-3-1.1l7.6-23.6h4l7.6,23.6l-3.1,1.1l-2.2-7.2H605.3z M609.6,718.8l-3.4,11.2h6.9
		L609.6,718.8z"/>
	<polygon class="st0" points="635.4,718 628.8,718 628.8,715.2 645.1,715.2 645.1,718 638.5,718 638.5,739.4 635.4,739.4 	"/>
	<polygon class="st0" points="659.3,736.6 662.7,736.6 662.7,718 659.3,718 659.3,715.2 669.2,715.2 669.2,718 665.8,718 
		665.8,736.6 669.2,736.6 669.2,739.4 659.3,739.4 	"/>
	<path class="st0" d="M700.2,727.3c0,1.9-0.1,12.5-8.6,12.5c-3.9,0-8.6-2.8-8.6-12.5c0-9.6,4.6-12.5,8.6-12.5
		C695.4,714.8,700.2,717.6,700.2,727.3 M686.3,727.3c0,3.5,0.7,9.6,5.3,9.6c4.7,0,5.3-6,5.3-9.6c0-3.6-0.6-9.6-5.3-9.6
		C686.9,717.8,686.3,723.8,686.3,727.3"/>
	<polygon class="st0" points="710.9,715.2 714.7,715.2 724.1,735.6 724.2,735.5 723.9,729.2 723.9,715.2 727,715.2 727,739.4 
		723.1,739.4 713.8,719 713.7,719.1 714,725.4 714,739.4 710.9,739.4 	"/>
	<path class="st0" d="M488.6,724.4c-1.4-1.8-2.3-3.2-2.3-5.6c0-3.7,2.3-6.3,6-6.3c3.6,0,6.1,2.8,6.1,6.3c0,3-1.4,4.8-5,7.2l4.5,6.2
		c0.9-1.3,1.2-3,1.4-4.5l3,0.6c-0.3,2.3-1.1,4.7-2.5,6.6l1.9,2.6l-2.4,1.7l-1.7-2.3c-1.6,1.3-3.4,2-5.6,2c-4,0-7.3-2.9-7.3-7.1
		c0-3.1,2.1-4.9,4.4-6.5L488.6,724.4z M491,727.6c-1.6,1.1-2.9,2.1-2.9,4.3c0,2.5,1.8,4.2,4.2,4.2c1.4,0,2.8-0.6,3.7-1.5L491,727.6z
		 M492.7,723c1.5-1.1,2.8-2.1,2.8-4.1c0-2-1.2-3.5-3.3-3.5c-1.9,0-3,1.4-3,3.2c0,1.6,0.7,2.9,2.5,5.1L492.7,723z"/>
	<path class="st1" d="M318.2,180.9v-17.5c0.7-4.7,1.3-9.4,2-14.1c2.4-16.1,7.7-31,16.8-44.5c9.4-13.9,21.9-24.4,37-31.6
		c16.8-8,34.6-11.5,53-11.9c35.8-0.7,65.3,12.8,88.9,39.6c1.8,2.1,3.6,4.2,5.5,6.4c0.7-0.7,1-1.2,1.4-1.5
		c6.5-6.6,12.5-13.8,19.6-19.7c17.5-14.6,37.9-22.6,60.6-24.5c18.3-1.5,36.1,1.2,53,8.4c14.6,6.2,27.5,15.2,38.4,27
		c12.5,13.4,21.2,28.8,26.1,46.4c1.9,7.2,2.9,14.6,4.3,21.9v14.9c-0.2,0.5-0.4,1-0.5,1.5c-2.4,20.9-10.9,39.6-21.7,57.5
		c-12.1,20.2-27,38.3-42.9,55.5c-22.1,24-46,46.4-71.5,66.8c-21,16.8-42.7,32.7-64,49c-2,1.5-3.5,1.4-5.4,0c-4.4-3.2-9-6.4-13.5-9.5
		c-22.7-15.8-44.6-32.7-65.6-50.6c-20.6-17.5-40.2-36-58.5-55.9c-14.5-15.9-27.9-32.6-39.2-51c-9.3-15.1-16.9-30.9-20.8-48.3
		C319.9,190.4,319.1,185.7,318.2,180.9"/>
	<polygon class="st0" points="589.9,529.7 680.8,436.5 727.8,436.5 622.3,542.3 728.5,670.1 681.2,670.1 597.1,566.1 589.9,573.4 
		589.9,670.1 554.6,670.1 554.6,436.5 589.9,436.5 	"/>
	<polygon class="st0" points="534,469.6 440.4,469.6 440.4,525.7 531.3,525.7 531.3,558.9 440.4,558.9 440.4,636.9 534,636.9 
		534,670.1 405.1,670.1 405.1,436.5 534,436.5 	"/>
	<path class="st0" d="M320.4,636.9V436.5l0,0V290.9h-35.2v140.6c0,20.4-3.3,35-9.8,44c-9.8,13.4-23.6,20.1-41.4,20.1
		c-17.8,0-31.5-6.7-41.3-20.1c-6.6-9.3-9.8-24-9.8-44V294.8l0,0V193.9l76.3-132.7h-40.6l-53.4,93.3l-53.5-93.3H71l76.5,132.7v97l0,0
		v150.4c0,24.6,7.7,44.9,23,60.8c17.1,17.7,38.3,26.6,63.4,26.6c19.7,0,36.9-5.5,51.8-16.5v157.8h103.9v-33.1H320.4z"/>
</g>
</svg>
